<svg width="95" height="73" viewBox="0 0 95 73" fill="none" xmlns="http://www.w3.org/2000/svg">
<g clip-path="url(#clip0_1_3610)">
<path d="M87.8973 66.353C84.7846 68.7501 80.9925 71.1784 77.2642 72.3234C76.1894 72.6633 75.0803 72.8803 73.9578 72.9703C72.9082 73.0556 71.852 72.9727 70.828 72.7247C68.1373 72.0478 65.6415 70.8625 63.2266 69.4777C62.4377 69.0246 61.6578 68.5507 60.8825 68.0664C59.6169 67.2754 58.3639 66.4568 57.1074 65.6577C56.9193 65.5366 56.7323 65.4179 56.5442 65.3003H56.5431C56.2398 65.1077 55.9357 64.9178 55.6309 64.7307C55.5774 64.6972 55.5238 64.6649 55.469 64.6315C54.8933 64.2787 54.3076 63.9339 53.7121 63.5972C53.6391 63.5569 53.5661 63.5154 53.4932 63.475C52.3409 62.8286 51.1567 62.2425 49.945 61.7189C49.1492 61.3799 48.3431 61.0744 47.529 60.8138H47.5279C47.2166 60.7146 46.9042 60.6212 46.5907 60.5359C45.6505 60.275 44.6924 60.0854 43.7243 59.9686C42.3904 59.8053 41.0411 59.8161 39.7099 60.0009C39.6198 60.0136 39.5309 60.0263 39.4408 60.0412C35.8379 60.6247 32.5497 62.5918 28.9309 63.0553C28.8134 63.0703 28.6971 63.0841 28.5797 63.0945C28.5295 63.0991 28.4794 63.1049 28.4292 63.1083C27.3776 63.1993 26.3192 63.1731 25.2733 63.0299C22.3511 62.6402 19.5052 61.4307 16.9433 59.9063C10.9541 56.3423 6.09705 50.8642 3.14406 44.5202C2.63697 43.433 2.18675 42.3195 1.79526 41.1845C0.700708 38.037 0.0979333 34.7362 0.00864051 31.4009C-0.268416 19.829 6.23387 8.21911 16.4428 2.98547C26.6529 -2.24817 40.0838 -0.51746 48.318 7.52267C53.313 12.4 56.2033 19.0092 59.9624 24.9139C63.7215 30.8175 69.0642 36.457 75.9553 37.3172C79.4658 37.7553 83.1394 36.9078 86.504 38.0101C88.367 38.6213 89.9564 39.7904 91.2368 41.2802C92.0976 42.2911 92.818 43.4161 93.378 44.624C93.7884 45.4972 94.1215 46.4055 94.3733 47.3382C94.4201 47.51 94.4634 47.6818 94.5056 47.8536C96.1816 54.7765 93.5034 62.0337 87.8973 66.353Z" fill="#F2F2F2"/>
<path d="M31.829 53.8206H21.1116C19.5059 53.8206 18.2042 55.1369 18.2042 56.7608V56.7608C18.2042 58.3847 19.5059 59.7011 21.1116 59.7011H31.829C33.4348 59.7011 34.7364 58.3847 34.7364 56.7608C34.7364 55.1369 33.4348 53.8206 31.829 53.8206Z" fill="#506DB8"/>
<path d="M28.5796 58.2021V63.0945C27.4787 63.2022 26.3692 63.1805 25.2732 63.0299V58.2021H28.5796Z" fill="#506DB8"/>
<path d="M39.7097 60.0011C39.6196 60.0137 39.5307 60.0264 39.4406 60.0414C35.8378 60.6249 32.5496 62.5919 28.9307 63.0555C28.8133 63.0704 28.697 63.0843 28.5795 63.0947C28.5294 63.0993 28.4792 63.105 28.429 63.1085C27.5454 62.2333 26.6618 61.3017 25.8318 60.3366C25.3814 59.8143 24.9459 59.2816 24.5366 58.7419C23.4739 57.3491 22.5732 55.917 21.9781 54.5103C22.0385 53.8358 21.6235 52.2757 21.4251 51.0812L21.4239 51.08C21.3396 50.5784 21.294 50.1426 21.3362 49.8624C21.5779 48.2458 22.8833 48.4315 23.2847 46.8472C23.6467 46.5433 24.0322 46.2692 24.4374 46.0274C24.5046 45.987 24.573 45.9467 24.6437 45.9063L28.9991 42.8623L30.6637 44.5135L33.1972 47.0271L35.9426 49.7494L33.6122 52.1304C33.6122 52.1304 35.5595 54.4008 37.8364 57.4275C38.4476 58.2404 39.0826 59.1086 39.7097 60.0011Z" fill="#082777"/>
<path d="M77.2641 58.2021V72.3234C76.1893 72.6633 75.0802 72.8803 73.9576 72.9703V58.2021H77.2641Z" fill="#506DB8"/>
<path d="M81.5396 57.0493H70.8222C69.2165 57.0493 67.9148 58.3657 67.9148 59.9896V59.9896C67.9148 61.6134 69.2165 62.9298 70.8222 62.9298H81.5396C83.1453 62.9298 84.447 61.6134 84.447 59.9896C84.447 58.3657 83.1453 57.0493 81.5396 57.0493Z" fill="#506DB8"/>
<path d="M55.4689 64.6317C54.8931 64.2789 54.3075 63.9341 53.7119 63.5975C53.639 63.5571 53.566 63.5156 53.493 63.4752L53.8853 63.3057L54.9433 62.8457L54.9536 62.8411L54.965 62.8803L55.4689 64.6317Z" fill="#FFB6B6"/>
<path d="M57.1073 65.6578C56.9192 65.5368 56.7322 65.418 56.5441 65.3004H56.543C56.2397 65.1078 55.9356 64.918 55.6308 64.7308C55.5773 64.6973 55.5237 64.6651 55.4689 64.6316C54.8932 64.2788 54.3075 63.934 53.712 63.5973C53.639 63.557 53.566 63.5155 53.4931 63.4751C52.3408 62.8288 51.1565 62.2426 49.9449 61.719C49.1491 61.3801 48.343 61.0745 47.5289 60.8139H47.5278L46.8882 59.7312L44.0093 54.855L43.3765 53.7838C43.3765 53.7838 41.2182 54.4295 38.1637 55.0487C37.0521 55.2747 35.823 55.4961 34.5335 55.6829C33.155 55.8812 31.7093 56.0392 30.2727 56.1153C29.5875 56.1522 28.9045 56.1706 28.2318 56.1649C26.4931 56.1533 24.8228 55.9884 23.36 55.5964C22.872 55.1329 21.4012 54.5022 20.3477 53.9245H20.3465C19.9042 53.6824 19.537 53.4506 19.3444 53.2442C18.2338 52.0566 19.1825 51.1307 18.1951 49.8347C18.1818 49.3592 18.2058 48.8834 18.2669 48.4118C18.2772 48.3334 18.2874 48.2539 18.3 48.1732L18.6112 42.8277L20.9235 42.5187L24.442 42.0482L28.2535 41.5386L28.6731 44.8616C28.6731 44.8616 31.6409 44.7094 35.4011 44.7602C41.4405 44.8432 49.5219 45.452 50.6164 48.0648C50.7191 48.3104 50.8217 48.5583 50.9243 48.8062C51.1683 49.3988 51.41 49.9946 51.6494 50.5934C52.5171 52.7611 53.3448 54.9496 54.1008 57.0181C54.5705 58.3049 55.0129 59.5456 55.4199 60.7067C55.7471 61.6406 56.0504 62.5239 56.3275 63.3368C56.5806 64.0793 56.8098 64.7631 57.0138 65.3765C57.0458 65.4722 57.0765 65.5667 57.1073 65.6578Z" fill="#082777"/>
<path d="M35.8372 33.2704L28.5339 26.9977L33.2855 22.1345L36.6005 27.6256L48.8884 30.0893C49.2579 29.8081 49.7003 29.6417 50.1617 29.6104C50.6231 29.579 51.0835 29.6842 51.4868 29.9129C51.8902 30.1416 52.219 30.4841 52.4332 30.8985C52.6474 31.313 52.7377 31.7815 52.6932 32.247C52.6486 32.7125 52.4711 33.1548 52.1823 33.52C51.8934 33.8852 51.5058 34.1576 51.0665 34.3038C50.6273 34.4501 50.1555 34.4639 49.7086 34.3437C49.2617 34.2234 48.8591 33.9743 48.5498 33.6266L35.8372 33.2704Z" fill="#A0616A"/>
<path d="M22.0794 18.754C21.2354 21.5308 29.2737 28.1536 29.2737 28.1536C29.3631 27.4869 33.9205 33.2354 34.2306 32.7148C35.1118 31.2352 36.0815 27.5778 37.0988 27.1103C37.6806 26.843 34.343 23.1273 34.343 23.1273C34.343 23.1273 32.6405 20.8494 30.3926 17.9624C29.772 17.1343 28.9544 16.4784 28.0157 16.0558C27.0771 15.6332 26.048 15.4577 25.0243 15.5455C25.0243 15.5455 22.9235 15.9772 22.0794 18.754Z" fill="#506DB8"/>
<path d="M25.6334 12.6066C28.3615 12.6066 30.573 10.37 30.573 7.61115C30.573 4.85225 28.3615 2.61572 25.6334 2.61572C22.9054 2.61572 20.6938 4.85225 20.6938 7.61115C20.6938 10.37 22.9054 12.6066 25.6334 12.6066Z" fill="#A0616A"/>
<path d="M28.1033 15.9081C29.1674 16.548 29.804 17.7235 30.1694 18.9197C30.846 21.1344 31.2532 23.4242 31.3821 25.7385L31.7681 32.667L36.5484 47.4198C32.4055 50.9649 16.833 48.2255 16.833 48.2255C16.833 48.2255 16.355 48.0644 16.833 47.5809C17.311 47.0975 17.7764 47.5258 17.2984 47.0424C16.8203 46.5589 17.1499 47.0975 17.3092 46.6141C17.4686 46.1306 17.3092 46.4529 17.1499 46.2918C16.9905 46.1306 18.3834 44.6804 18.3834 44.6804L17.1087 36.2121L15.5153 19.131C17.4274 16.7138 21.2729 15.289 21.2729 15.289L22.2665 13.4802L27.2346 13.8822L28.1033 15.9081Z" fill="#506DB8"/>
<path d="M29.7054 4.95712C30.0893 5.2467 30.3738 5.65076 30.5187 6.11241C30.5743 5.35797 30.5779 4.60053 30.5292 3.8456C30.471 3.3151 30.1017 3.19578 29.6741 3.05751C29.2879 2.93259 28.8511 2.79148 28.7336 2.27649C27.1809 0.748898 24.4779 0.825928 22.6281 1.35878C21.6102 1.65199 21.0245 2.02872 20.9721 2.24941L20.9612 2.29484L20.9199 2.31574C20.1353 2.71248 19.9826 3.96531 19.9926 4.94642C20.0118 6.7949 20.6429 8.89431 20.9984 9.06485C21.0172 9.07388 21.022 9.07034 21.0301 9.06348C21.5655 8.63082 22.2186 9.09636 22.5056 9.34943C22.6749 8.20057 23.22 7.14222 24.0538 6.3434C24.8877 5.54459 25.9622 5.0514 27.1057 4.9426C27.4791 4.9061 27.8496 4.84328 28.2144 4.75459C28.3994 4.70618 28.5897 4.68093 28.7808 4.67942C29.1098 4.67437 29.4325 4.77127 29.7054 4.95712Z" fill="#082777"/>
<path d="M23.4813 40.7967L21.9703 40.014C21.8894 39.9557 21.8318 39.8699 21.8083 39.7722C21.7847 39.6745 21.7967 39.5715 21.842 39.4821C21.8874 39.3926 21.963 39.3226 22.0551 39.2848C22.1473 39.2471 22.2497 39.2441 22.3439 39.2764L23.8549 40.059C23.9358 40.1174 23.9933 40.2032 24.0169 40.3009C24.0404 40.3986 24.0285 40.5015 23.9832 40.591C23.9378 40.6805 23.8622 40.7505 23.7701 40.7883C23.6779 40.826 23.5755 40.829 23.4813 40.7967Z" fill="#4B93E7"/>
<path d="M18.3959 38.6997L15.9103 29.3414L22.5527 28.0698L22.1955 34.4933L30.923 43.5814C31.385 43.5623 31.8426 43.6795 32.2398 43.9189C32.6371 44.1582 32.957 44.5092 33.1604 44.9292C33.3638 45.3492 33.4419 45.82 33.3853 46.2841C33.3287 46.7483 33.1398 47.1857 32.8417 47.5432C32.5435 47.9006 32.1489 48.1626 31.706 48.2971C31.2632 48.4317 30.7911 48.4331 30.3475 48.301C29.9039 48.169 29.5079 47.9093 29.2077 47.5536C28.9075 47.1978 28.7162 46.7615 28.657 46.2977L18.3959 38.6997Z" fill="#A0616A"/>
<path d="M15.2305 18.8488C12.9758 20.6489 15.8697 30.7176 15.8697 30.7176C16.3177 30.2204 16.8384 37.5696 17.386 37.3193C18.9425 36.6081 21.7953 34.1556 22.8951 34.3555C23.5241 34.4698 22.8651 29.4944 22.8651 29.4944C22.8651 29.4944 22.7439 26.6416 22.5161 22.9742C22.4707 21.9361 22.1664 20.9266 21.6314 20.0395C21.0965 19.1524 20.3482 18.4166 19.4565 17.9006C19.4565 17.9006 17.4852 17.0488 15.2305 18.8488Z" fill="#506DB8"/>
<path d="M93.3779 44.6241L3.14396 44.5203C2.63687 43.4331 2.18665 42.3196 1.79517 41.1846L91.2367 41.2803C92.0975 42.2912 92.8179 43.4162 93.3779 44.6241Z" fill="#506DB8"/>
<path d="M64.6381 68.8173C64.1718 69.0456 63.7013 69.2658 63.2266 69.4779C62.4376 69.0248 61.6577 68.5509 60.8824 68.0666L63.7579 66.7891L64.6381 68.8173Z" fill="#FFB6B6"/>
<path d="M85.6032 52.9283C85.1357 53.5625 84.6534 54.184 84.1563 54.7928C83.698 55.3543 83.2275 55.9051 82.7448 56.4451C82.5453 56.6688 82.3435 56.8913 82.1371 57.1116C81.7574 57.5232 81.3694 57.9279 80.973 58.3257C80.2593 58.5528 78.8136 58.9529 77.2641 59.3265C76.1365 59.5975 74.9541 59.8546 73.9576 60.0184C73.3998 60.1196 72.8355 60.1805 72.2691 60.2005C71.5964 60.2063 70.9134 60.1879 70.2282 60.151C69.4552 60.1094 68.681 60.0449 67.916 59.9619C65.9264 59.7509 63.9996 59.4222 62.3372 59.0844C61.7284 58.9622 61.156 58.8376 60.6293 58.7166C59.6316 58.4894 58.797 58.2773 58.1928 58.1158C57.5121 57.936 57.1244 57.8195 57.1244 57.8195L55.4199 60.7067L54.5352 62.2045L53.8853 63.3057L53.712 63.5974C53.639 63.557 53.566 63.5155 53.4931 63.4752C52.3408 62.8288 51.1566 62.2427 49.9449 61.7191C49.1491 61.3801 48.343 61.0745 47.5289 60.814H47.5278C47.2165 60.7148 46.9041 60.6214 46.5906 60.5361C46.6886 60.2697 46.7878 60.0014 46.8882 59.7312C47.0751 59.2274 47.2659 58.7189 47.4605 58.2058C47.8812 57.0943 48.3168 55.9666 48.7649 54.8447C49.132 53.9234 49.506 53.0056 49.8845 52.1004C50.0589 51.683 50.4135 51.3164 50.9095 50.9947C51.1465 50.8435 51.3938 50.7094 51.6494 50.5934C53.0689 49.9397 55.16 49.5142 57.4642 49.2409C57.6546 49.219 57.8462 49.1971 58.0389 49.1763C59.9463 48.9734 61.9701 48.8685 63.8628 48.8201C64.8102 48.7958 65.7246 48.7866 66.5752 48.7855C66.8499 48.7855 67.1171 48.7862 67.3767 48.7878H67.3778C68.079 48.7912 68.7244 48.8016 69.2922 48.8131C69.4028 48.8154 69.5099 48.8189 69.6148 48.8212H69.616C69.6867 48.8224 69.7562 48.8247 69.8246 48.8258C71.0662 48.8581 71.8279 48.8973 71.8279 48.8973L72.1232 46.5543L72.1836 46.0816L72.2406 45.6319V45.6308L72.2474 45.5743L72.2942 45.5731L73.1151 45.557L80.0153 45.4209L83.7846 45.3459L83.1872 47.9357L82.201 52.2088C82.3013 52.8845 85.6374 52.3553 85.6032 52.9283Z" fill="#082777"/>
<path d="M65.4885 68.3906C65.2069 68.5359 64.923 68.6789 64.638 68.8172C64.1717 69.0455 63.7012 69.2658 63.2265 69.4779C62.4375 69.0248 61.6576 68.5509 60.8823 68.0666C59.6167 67.2756 58.3637 66.457 57.1073 65.6579C56.9192 65.5368 56.7322 65.4181 56.544 65.3005H56.5429C56.0253 64.5233 55.4974 63.7139 54.9649 62.8802C54.9569 62.8687 54.9501 62.8572 54.9433 62.8456C54.8064 62.6335 54.6704 62.4198 54.5351 62.2045C53.6834 60.8555 52.8271 59.4488 51.996 58.0121L54.1007 57.0182L58.0137 55.171L58.6887 54.8528L60.6292 58.7166L62.36 62.163L62.7453 62.9298L65.4885 68.3906Z" fill="#082777"/>
<path d="M66.0784 49.8402L76.0548 40.1104L78.8199 32.1925L74.7413 30.3989C72.6463 32.4284 70.3817 38.7497 70.3817 38.7497L63.5165 47.5825C63.463 47.601 63.4097 47.6207 63.357 47.6442C63.0478 47.7821 62.779 47.9984 62.5765 48.272C62.3741 48.5457 62.2449 48.8675 62.2014 49.2064C62.1579 49.5453 62.2016 49.8899 62.3282 50.2067C62.4549 50.5236 62.6602 50.802 62.9244 51.0152C63.1885 51.2283 63.5026 51.369 63.8362 51.4235C64.1698 51.478 64.5117 51.4446 64.8288 51.3265C65.1459 51.2083 65.4275 51.0095 65.6464 50.7491C65.8653 50.4887 66.0141 50.1757 66.0784 49.8402Z" fill="#FFB8B8"/>
<path d="M73.5935 31.283L78.767 32.944L78.7865 32.9407C80.7121 32.6145 82.3099 29.4341 83.3111 26.8234C83.6406 25.9623 83.6344 25.0068 83.2939 24.1501C82.9534 23.2934 82.304 22.5994 81.4769 22.2084C80.8649 21.9242 80.1864 21.8187 79.5182 21.904C78.85 21.9892 78.2187 22.2618 77.6956 22.6909L75.039 24.8862L73.5935 31.283Z" fill="#4B93E7"/>
<path d="M85.5824 53.045L85.6127 53.0044C87.2268 50.8394 85.0191 45.4781 84.6854 44.7006L86.1862 44.251L85.9246 41.361L85.7986 40.0724L86.9655 38.9517L86.9695 38.923L87.772 33.1472L88.8221 29.3244C89.2179 27.8793 89.2262 26.3536 88.8463 24.9041C88.4664 23.4546 87.7119 22.1334 86.6603 21.0762L84.5137 18.9208L81.9419 14.8499L77.6299 14.7373L76.0793 17.5229C74.6374 17.8205 73.3443 18.6203 72.4255 19.7829C71.5066 20.9455 71.0202 22.3972 71.0509 23.8852L71.1969 31.3011L69.6497 40.4893L69.6063 42.1583L68.0877 43.7789L68.3684 45.4173L67.2325 45.8749L66.6766 48.2031C66.4643 48.4717 65.0626 50.2636 65.0499 50.7631C65.0479 50.8381 65.1008 50.912 65.2162 50.9955C66.1236 51.652 71.1949 53.0745 73.4773 52.2193C75.9085 51.3091 85.4369 53.0186 85.5329 53.036L85.5824 53.045Z" fill="#4B93E7"/>
<path d="M79.4092 13.4893C82.5642 13.4893 85.1218 10.9028 85.1218 7.71219C85.1218 4.52157 82.5642 1.93506 79.4092 1.93506C76.2543 1.93506 73.6967 4.52157 73.6967 7.71219C73.6967 10.9028 76.2543 13.4893 79.4092 13.4893Z" fill="#FFB8B8"/>
<path d="M78.7123 13.5666C79.5969 13.5805 80.4811 13.5181 81.3553 13.3798C82.2217 13.2016 84.16 11.7652 84.7003 10.9008C85.1017 10.2586 85.3585 9.25568 85.5031 8.5275C85.698 7.56388 85.6906 6.56962 85.4813 5.6091C85.2721 4.64858 84.8657 3.74321 84.2885 2.95162C84.0666 2.62052 83.7604 2.35621 83.4022 2.18665C83.3705 2.1741 83.3378 2.16297 83.3048 2.15346C82.7828 2.01458 82.3139 1.72111 81.958 1.31072C81.889 1.22771 81.8142 1.14984 81.7342 1.07771C81.332 0.734492 80.8553 0.492396 80.3429 0.371208C79.5158 0.147356 78.3189 0.369559 76.7854 1.03228C76.015 1.36525 75.1724 1.24475 74.5242 1.10256C74.4879 1.09545 74.4503 1.0981 74.4153 1.11024C74.3802 1.12238 74.3489 1.14358 74.3245 1.17174C74.0488 1.43356 73.6852 1.58012 73.307 1.58195C73.0753 1.59224 72.8322 1.91665 72.5384 2.3397C72.4717 2.43573 72.3939 2.5478 72.3378 2.61597L72.3303 2.48501L72.1993 2.63111C71.9933 2.86074 71.8481 3.13935 71.7772 3.441C71.7064 3.74265 71.7121 4.05753 71.794 4.35632C71.8759 4.65511 72.0312 4.92808 72.2455 5.14983C72.4597 5.37157 72.726 5.53487 73.0195 5.62452C73.2526 5.68723 73.4913 5.72571 73.7321 5.73936C73.878 5.75263 74.0288 5.76636 74.1734 5.79173C74.6374 5.88782 75.0688 6.10394 75.4256 6.41901C75.7824 6.73407 76.0522 7.1373 76.2089 7.58933C76.2459 7.69382 76.3062 7.7883 76.3851 7.86548C76.464 7.94266 76.5594 8.00048 76.6638 8.03446C76.7683 8.06845 76.8791 8.07771 76.9877 8.06151C77.0963 8.04531 77.1998 8.00409 77.2901 7.94104C77.4407 7.82244 77.6174 7.74244 77.8052 7.70786C77.993 7.67328 78.1863 7.68514 78.3686 7.74244C78.5261 7.83102 78.6487 7.97167 78.7158 8.14081C78.7974 8.32926 78.9327 8.48885 79.1044 8.59923C79.6915 8.90536 79.732 10.2616 79.5211 11.3921C79.3178 12.4819 78.916 13.2702 78.544 13.3092C78.2576 13.3392 78.2248 13.3598 78.2041 13.411L78.1856 13.4568L78.2178 13.4997C78.3759 13.5577 78.5446 13.5805 78.7123 13.5666Z" fill="#082777"/>
<path d="M75.0121 29.5362L72.8095 25.0952C69.6124 25.3161 63.2671 29.0544 63.2671 29.0544L51.2614 31.6287C50.9058 31.4904 50.5204 31.4493 50.144 31.5096C49.7677 31.5698 49.4137 31.7293 49.1176 31.9719C48.8216 32.2145 48.594 32.5317 48.4577 32.8915C48.3214 33.2514 48.2813 33.6412 48.3413 34.0217C48.4013 34.4022 48.5594 34.76 48.7997 35.0591C49.0399 35.3582 49.3538 35.588 49.7098 35.7254C50.0658 35.8628 50.4513 35.9029 50.8275 35.8418C51.2037 35.7806 51.5573 35.6203 51.8527 35.377L67.1246 34.2699L75.0121 29.5362Z" fill="#FFB8B8"/>
<path d="M74.1237 30.2655L79.8762 25.9423L80.8895 22.2494C81.0858 21.5237 81.0775 20.757 80.8656 20.0358C80.6536 19.3146 80.2464 18.6678 79.69 18.1683C78.9312 17.4965 77.9485 17.1411 76.9405 17.174C75.9325 17.2069 74.9745 17.6256 74.2601 18.3455C72.0953 20.5307 69.6263 23.5792 70.1567 25.6931L70.162 25.7145L74.1237 30.2655Z" fill="#4B93E7"/>
<path d="M67.0028 41.8291H51.6107V43.9046H67.0028V41.8291Z" fill="white"/>
<path d="M27.6674 41.8291H12.2754V43.9046H27.6674V41.8291Z" fill="white"/>
<path d="M29.4648 31.8482V41.7302C29.4649 41.8561 29.5145 41.9769 29.6025 42.0659C29.6906 42.155 29.81 42.205 29.9345 42.2051H44.4149C44.5395 42.205 44.6588 42.155 44.7469 42.0659C44.8349 41.9769 44.8845 41.8561 44.8846 41.7302V31.8482C44.8843 31.7224 44.8347 31.6018 44.7467 31.5129C44.6586 31.424 44.5393 31.3739 44.4149 31.3738H29.9345C29.8101 31.3739 29.6908 31.424 29.6028 31.5129C29.5147 31.6018 29.4651 31.7224 29.4648 31.8482Z" fill="#506DB8"/>
<path d="M29.8044 31.9712V41.6083C29.8046 41.6756 29.831 41.7401 29.8781 41.7877C29.9251 41.8352 29.9889 41.862 30.0554 41.8621H44.2943C44.3608 41.862 44.4246 41.8352 44.4716 41.7877C44.5187 41.7401 44.5452 41.6756 44.5453 41.6083V31.9712C44.5453 31.9038 44.5188 31.8392 44.4718 31.7915C44.4247 31.7438 44.3609 31.7169 44.2943 31.7168H30.0554C29.9888 31.7169 29.925 31.7438 29.8779 31.7915C29.8309 31.8392 29.8044 31.9038 29.8044 31.9712Z" fill="#4B93E7"/>
<path d="M29.1619 43.6576C29.1885 43.6912 29.2222 43.7183 29.2606 43.7369C29.2989 43.7555 29.341 43.765 29.3835 43.7648H44.8887C44.9311 43.7647 44.9729 43.7551 45.0112 43.7367C45.0495 43.7182 45.0832 43.6913 45.1099 43.658C45.1366 43.6247 45.1556 43.5858 45.1656 43.5441C45.1756 43.5025 45.1763 43.459 45.1676 43.4171L44.9269 42.2609C44.9169 42.2138 44.8954 42.1699 44.8644 42.1333C44.8334 42.0967 44.7938 42.0685 44.7492 42.0513C44.717 42.0385 44.6826 42.0319 44.648 42.032H29.6232C29.5886 42.0319 29.5543 42.0385 29.522 42.0513C29.4775 42.0685 29.4379 42.0967 29.4068 42.1333C29.3758 42.1699 29.3543 42.2138 29.3444 42.2609L29.1037 43.4171C29.0951 43.459 29.0959 43.5024 29.106 43.544C29.116 43.5856 29.1352 43.6244 29.1619 43.6576Z" fill="#082777"/>
<path d="M44.116 42.5298H44.4822C44.5129 42.5298 44.5378 42.5046 44.5378 42.4735V42.2963C44.5378 42.2652 44.5129 42.24 44.4822 42.24H44.116C44.0852 42.24 44.0603 42.2652 44.0603 42.2963V42.4735C44.0603 42.5046 44.0852 42.5298 44.116 42.5298Z" fill="#506DB8"/>
<path d="M43.1609 42.5298H43.5271C43.5578 42.5298 43.5828 42.5046 43.5828 42.4735V42.2963C43.5828 42.2652 43.5578 42.24 43.5271 42.24H43.1609C43.1301 42.24 43.1052 42.2652 43.1052 42.2963V42.4735C43.1052 42.5046 43.1301 42.5298 43.1609 42.5298Z" fill="#506DB8"/>
<path d="M42.2058 42.5298H42.572C42.6028 42.5298 42.6277 42.5046 42.6277 42.4735V42.2963C42.6277 42.2652 42.6028 42.24 42.572 42.24H42.2058C42.1751 42.24 42.1501 42.2652 42.1501 42.2963V42.4735C42.1501 42.5046 42.1751 42.5298 42.2058 42.5298Z" fill="#506DB8"/>
<path d="M41.2507 42.5298H41.6169C41.6477 42.5298 41.6726 42.5046 41.6726 42.4735V42.2963C41.6726 42.2652 41.6477 42.24 41.6169 42.24H41.2507C41.22 42.24 41.1951 42.2652 41.1951 42.2963V42.4735C41.1951 42.5046 41.22 42.5298 41.2507 42.5298Z" fill="#506DB8"/>
<path d="M40.2956 42.5298H40.6619C40.6926 42.5298 40.7175 42.5046 40.7175 42.4735V42.2963C40.7175 42.2652 40.6926 42.24 40.6619 42.24H40.2956C40.2649 42.24 40.24 42.2652 40.24 42.2963V42.4735C40.24 42.5046 40.2649 42.5298 40.2956 42.5298Z" fill="#506DB8"/>
<path d="M39.3404 42.5298H39.7067C39.7374 42.5298 39.7623 42.5046 39.7623 42.4735V42.2963C39.7623 42.2652 39.7374 42.24 39.7067 42.24H39.3404C39.3097 42.24 39.2848 42.2652 39.2848 42.2963V42.4735C39.2848 42.5046 39.3097 42.5298 39.3404 42.5298Z" fill="#506DB8"/>
<path d="M38.3854 42.5298H38.7516C38.7823 42.5298 38.8073 42.5046 38.8073 42.4735V42.2963C38.8073 42.2652 38.7823 42.24 38.7516 42.24H38.3854C38.3546 42.24 38.3297 42.2652 38.3297 42.2963V42.4735C38.3297 42.5046 38.3546 42.5298 38.3854 42.5298Z" fill="#506DB8"/>
<path d="M37.4303 42.5298H37.7965C37.8273 42.5298 37.8522 42.5046 37.8522 42.4735V42.2963C37.8522 42.2652 37.8273 42.24 37.7965 42.24H37.4303C37.3995 42.24 37.3746 42.2652 37.3746 42.2963V42.4735C37.3746 42.5046 37.3995 42.5298 37.4303 42.5298Z" fill="#506DB8"/>
<path d="M36.4752 42.5298H36.8414C36.8722 42.5298 36.8971 42.5046 36.8971 42.4735V42.2963C36.8971 42.2652 36.8722 42.24 36.8414 42.24H36.4752C36.4445 42.24 36.4195 42.2652 36.4195 42.2963V42.4735C36.4195 42.5046 36.4445 42.5298 36.4752 42.5298Z" fill="#506DB8"/>
<path d="M35.52 42.5298H35.8862C35.917 42.5298 35.9419 42.5046 35.9419 42.4735V42.2963C35.9419 42.2652 35.917 42.24 35.8862 42.24H35.52C35.4893 42.24 35.4643 42.2652 35.4643 42.2963V42.4735C35.4643 42.5046 35.4893 42.5298 35.52 42.5298Z" fill="#506DB8"/>
<path d="M34.5649 42.5298H34.9312C34.9619 42.5298 34.9868 42.5046 34.9868 42.4735V42.2963C34.9868 42.2652 34.9619 42.24 34.9312 42.24H34.5649C34.5342 42.24 34.5093 42.2652 34.5093 42.2963V42.4735C34.5093 42.5046 34.5342 42.5298 34.5649 42.5298Z" fill="#506DB8"/>
<path d="M33.6098 42.5298H33.9761C34.0068 42.5298 34.0317 42.5046 34.0317 42.4735V42.2963C34.0317 42.2652 34.0068 42.24 33.9761 42.24H33.6098C33.5791 42.24 33.5542 42.2652 33.5542 42.2963V42.4735C33.5542 42.5046 33.5791 42.5298 33.6098 42.5298Z" fill="#506DB8"/>
<path d="M32.6548 42.5298H33.021C33.0517 42.5298 33.0767 42.5046 33.0767 42.4735V42.2963C33.0767 42.2652 33.0517 42.24 33.021 42.24H32.6548C32.624 42.24 32.5991 42.2652 32.5991 42.2963V42.4735C32.5991 42.5046 32.624 42.5298 32.6548 42.5298Z" fill="#506DB8"/>
<path d="M31.6997 42.5298H32.0659C32.0967 42.5298 32.1216 42.5046 32.1216 42.4735V42.2963C32.1216 42.2652 32.0967 42.24 32.0659 42.24H31.6997C31.669 42.24 31.644 42.2652 31.644 42.2963V42.4735C31.644 42.5046 31.669 42.5298 31.6997 42.5298Z" fill="#506DB8"/>
<path d="M30.7445 42.5298H31.1107C31.1415 42.5298 31.1664 42.5046 31.1664 42.4735V42.2963C31.1664 42.2652 31.1415 42.24 31.1107 42.24H30.7445C30.7138 42.24 30.6888 42.2652 30.6888 42.2963V42.4735C30.6888 42.5046 30.7138 42.5298 30.7445 42.5298Z" fill="#506DB8"/>
<path d="M29.7894 42.5298H30.1556C30.1864 42.5298 30.2113 42.5046 30.2113 42.4735V42.2963C30.2113 42.2652 30.1864 42.24 30.1556 42.24H29.7894C29.7587 42.24 29.7338 42.2652 29.7338 42.2963V42.4735C29.7338 42.5046 29.7587 42.5298 29.7894 42.5298Z" fill="#506DB8"/>
<path d="M44.1273 43.0127H44.4935C44.5243 43.0127 44.5492 42.9875 44.5492 42.9564V42.7792C44.5492 42.7481 44.5243 42.7229 44.4935 42.7229H44.1273C44.0966 42.7229 44.0716 42.7481 44.0716 42.7792V42.9564C44.0716 42.9875 44.0966 43.0127 44.1273 43.0127Z" fill="#506DB8"/>
<path d="M43.1722 43.0127H43.5385C43.5692 43.0127 43.5941 42.9875 43.5941 42.9564V42.7792C43.5941 42.7481 43.5692 42.7229 43.5385 42.7229H43.1722C43.1415 42.7229 43.1166 42.7481 43.1166 42.7792V42.9564C43.1166 42.9875 43.1415 43.0127 43.1722 43.0127Z" fill="#506DB8"/>
<path d="M42.217 43.0127H42.5833C42.614 43.0127 42.6389 42.9875 42.6389 42.9564V42.7792C42.6389 42.7481 42.614 42.7229 42.5833 42.7229H42.217C42.1863 42.7229 42.1614 42.7481 42.1614 42.7792V42.9564C42.1614 42.9875 42.1863 43.0127 42.217 43.0127Z" fill="#506DB8"/>
<path d="M41.2619 43.0127H41.6282C41.6589 43.0127 41.6838 42.9875 41.6838 42.9564V42.7792C41.6838 42.7481 41.6589 42.7229 41.6282 42.7229H41.2619C41.2312 42.7229 41.2063 42.7481 41.2063 42.7792V42.9564C41.2063 42.9875 41.2312 43.0127 41.2619 43.0127Z" fill="#506DB8"/>
<path d="M40.3069 43.0127H40.6731C40.7038 43.0127 40.7288 42.9875 40.7288 42.9564V42.7792C40.7288 42.7481 40.7038 42.7229 40.6731 42.7229H40.3069C40.2761 42.7229 40.2512 42.7481 40.2512 42.7792V42.9564C40.2512 42.9875 40.2761 43.0127 40.3069 43.0127Z" fill="#506DB8"/>
<path d="M39.3518 43.0127H39.718C39.7488 43.0127 39.7737 42.9875 39.7737 42.9564V42.7792C39.7737 42.7481 39.7488 42.7229 39.718 42.7229H39.3518C39.321 42.7229 39.2961 42.7481 39.2961 42.7792V42.9564C39.2961 42.9875 39.321 43.0127 39.3518 43.0127Z" fill="#506DB8"/>
<path d="M38.3967 43.0127H38.7629C38.7937 43.0127 38.8186 42.9875 38.8186 42.9564V42.7792C38.8186 42.7481 38.7937 42.7229 38.7629 42.7229H38.3967C38.366 42.7229 38.3411 42.7481 38.3411 42.7792V42.9564C38.3411 42.9875 38.366 43.0127 38.3967 43.0127Z" fill="#506DB8"/>
<path d="M37.4415 43.0127H37.8077C37.8385 43.0127 37.8634 42.9875 37.8634 42.9564V42.7792C37.8634 42.7481 37.8385 42.7229 37.8077 42.7229H37.4415C37.4108 42.7229 37.3859 42.7481 37.3859 42.7792V42.9564C37.3859 42.9875 37.4108 43.0127 37.4415 43.0127Z" fill="#506DB8"/>
<path d="M36.4864 43.0127H36.8527C36.8834 43.0127 36.9083 42.9875 36.9083 42.9564V42.7792C36.9083 42.7481 36.8834 42.7229 36.8527 42.7229H36.4864C36.4557 42.7229 36.4308 42.7481 36.4308 42.7792V42.9564C36.4308 42.9875 36.4557 43.0127 36.4864 43.0127Z" fill="#506DB8"/>
<path d="M35.5314 43.0127H35.8976C35.9283 43.0127 35.9532 42.9875 35.9532 42.9564V42.7792C35.9532 42.7481 35.9283 42.7229 35.8976 42.7229H35.5314C35.5006 42.7229 35.4757 42.7481 35.4757 42.7792V42.9564C35.4757 42.9875 35.5006 43.0127 35.5314 43.0127Z" fill="#506DB8"/>
<path d="M34.5763 43.0127H34.9425C34.9732 43.0127 34.9982 42.9875 34.9982 42.9564V42.7792C34.9982 42.7481 34.9732 42.7229 34.9425 42.7229H34.5763C34.5455 42.7229 34.5206 42.7481 34.5206 42.7792V42.9564C34.5206 42.9875 34.5455 43.0127 34.5763 43.0127Z" fill="#506DB8"/>
<path d="M33.6211 43.0127H33.9873C34.018 43.0127 34.043 42.9875 34.043 42.9564V42.7792C34.043 42.7481 34.018 42.7229 33.9873 42.7229H33.6211C33.5903 42.7229 33.5654 42.7481 33.5654 42.7792V42.9564C33.5654 42.9875 33.5903 43.0127 33.6211 43.0127Z" fill="#506DB8"/>
<path d="M32.666 43.0127H33.0322C33.063 43.0127 33.0879 42.9875 33.0879 42.9564V42.7792C33.0879 42.7481 33.063 42.7229 33.0322 42.7229H32.666C32.6353 42.7229 32.6103 42.7481 32.6103 42.7792V42.9564C32.6103 42.9875 32.6353 43.0127 32.666 43.0127Z" fill="#506DB8"/>
<path d="M31.7109 43.0127H32.0772C32.1079 43.0127 32.1328 42.9875 32.1328 42.9564V42.7792C32.1328 42.7481 32.1079 42.7229 32.0772 42.7229H31.7109C31.6802 42.7229 31.6553 42.7481 31.6553 42.7792V42.9564C31.6553 42.9875 31.6802 43.0127 31.7109 43.0127Z" fill="#506DB8"/>
<path d="M30.7558 43.0127H31.1221C31.1528 43.0127 31.1777 42.9875 31.1777 42.9564V42.7792C31.1777 42.7481 31.1528 42.7229 31.1221 42.7229H30.7558C30.7251 42.7229 30.7002 42.7481 30.7002 42.7792V42.9564C30.7002 42.9875 30.7251 43.0127 30.7558 43.0127Z" fill="#506DB8"/>
<path d="M29.8008 43.0127H30.167C30.1977 43.0127 30.2227 42.9875 30.2227 42.9564V42.7792C30.2227 42.7481 30.1977 42.7229 30.167 42.7229H29.8008C29.77 42.7229 29.7451 42.7481 29.7451 42.7792V42.9564C29.7451 42.9875 29.77 43.0127 29.8008 43.0127Z" fill="#506DB8"/>
<path d="M36.2 43.5923H39.9091C39.9398 43.5923 39.9647 43.5671 39.9647 43.536V43.3588C39.9647 43.3277 39.9398 43.3025 39.9091 43.3025H36.2C36.1692 43.3025 36.1443 43.3277 36.1443 43.3588V43.536C36.1443 43.5671 36.1692 43.5923 36.2 43.5923Z" fill="#506DB8"/>
</g>
<defs>
<clipPath id="clip0_1_3610">
<rect width="95" height="73" fill="white"/>
</clipPath>
</defs>
</svg>
