<svg width="96" height="73" viewBox="0 0 96 73" fill="none" xmlns="http://www.w3.org/2000/svg">
<g clip-path="url(#clip0_1_3477)">
<path d="M38.217 52.2839H7.13866C6.86174 52.2836 6.59626 52.1654 6.40045 51.9554C6.20464 51.7454 6.0945 51.4606 6.09418 51.1636V46.2812C6.0945 45.9842 6.20464 45.6994 6.40045 45.4894C6.59626 45.2794 6.86174 45.1612 7.13866 45.1609H38.217C38.4939 45.1612 38.7594 45.2794 38.9552 45.4894C39.151 45.6994 39.2611 45.9842 39.2614 46.2812V51.1636C39.2611 51.4606 39.151 51.7454 38.9552 51.9554C38.7594 52.1654 38.4939 52.2836 38.217 52.2839Z" fill="#F0F0F0"/>
<path d="M35.1974 51.5281H7.84336C7.56645 51.5277 7.30097 51.4096 7.10516 51.1995C6.90936 50.9895 6.79921 50.7047 6.79889 50.4077V47.0374C6.79921 46.7403 6.90936 46.4555 7.10516 46.2455C7.30097 46.0355 7.56645 45.9173 7.84336 45.917H37.5125C37.7894 45.9173 38.0549 46.0355 38.2507 46.2455C38.4465 46.4555 38.5566 46.7403 38.557 47.0374V47.9244C38.556 48.8798 38.2017 49.7958 37.5718 50.4714C36.942 51.147 36.0881 51.527 35.1974 51.5281Z" fill="white"/>
<path d="M25.7618 48.375H13.2707C13.1993 48.375 13.1308 48.3446 13.0802 48.2904C13.0297 48.2362 13.0013 48.1627 13.0013 48.0861C13.0013 48.0094 13.0297 47.9359 13.0802 47.8818C13.1308 47.8276 13.1993 47.7971 13.2707 47.7971H25.7618C25.8333 47.7971 25.9018 47.8276 25.9523 47.8818C26.0028 47.9359 26.0312 48.0094 26.0312 48.0861C26.0312 48.1627 26.0028 48.2362 25.9523 48.2904C25.9018 48.3446 25.8333 48.375 25.7618 48.375Z" fill="#E6E6E6"/>
<path d="M32.085 49.5566H13.2707C13.2353 49.5567 13.2002 49.5493 13.1674 49.5348C13.1347 49.5203 13.1049 49.4991 13.0798 49.4722C13.0548 49.4454 13.0349 49.4135 13.0213 49.3784C13.0077 49.3433 13.0007 49.3057 13.0007 49.2677C13.0007 49.2297 13.0077 49.1921 13.0213 49.157C13.0349 49.1219 13.0548 49.09 13.0798 49.0632C13.1049 49.0363 13.1347 49.0151 13.1674 49.0006C13.2002 48.9861 13.2353 48.9787 13.2707 48.9788H32.085C32.1564 48.9789 32.2247 49.0094 32.2751 49.0636C32.3255 49.1178 32.3538 49.1912 32.3538 49.2677C32.3538 49.3442 32.3255 49.4176 32.2751 49.4718C32.2247 49.526 32.1564 49.5565 32.085 49.5566Z" fill="#E6E6E6"/>
<path d="M40.2022 39.5748H4.76641C4.48365 39.5744 4.21256 39.4538 4.01262 39.2393C3.81268 39.0249 3.70021 38.7341 3.69989 38.4308V9.37565C3.70021 9.07235 3.81268 8.78157 4.01263 8.56711C4.21257 8.35265 4.48365 8.23203 4.76641 8.23169H40.2022C40.485 8.23203 40.7561 8.35265 40.956 8.56711C41.156 8.78157 41.2684 9.07235 41.2688 9.37565V38.4308C41.2684 38.7341 41.156 39.0249 40.956 39.2393C40.7561 39.4538 40.485 39.5744 40.2022 39.5748Z" fill="white"/>
<path d="M40.2022 39.7166H4.76643C4.44862 39.7162 4.14393 39.5806 3.9192 39.3395C3.69448 39.0985 3.56806 38.7716 3.56769 38.4307V9.37561C3.56806 9.03471 3.69448 8.70789 3.91921 8.46685C4.14394 8.22581 4.44863 8.09022 4.76643 8.08984H40.2022C40.52 8.09022 40.8247 8.22581 41.0494 8.46685C41.2742 8.70789 41.4006 9.03471 41.401 9.37561V38.4307C41.4006 38.7716 41.2742 39.0985 41.0494 39.3395C40.8247 39.5806 40.52 39.7162 40.2022 39.7166ZM4.76643 8.3735C4.51873 8.37379 4.28126 8.47946 4.1061 8.66733C3.93095 8.8552 3.83242 9.10992 3.83212 9.37561V38.4307C3.8324 38.6964 3.93093 38.9512 4.10608 39.1391C4.28124 39.3269 4.51872 39.4326 4.76643 39.4329H40.2022C40.4499 39.4326 40.6874 39.3269 40.8626 39.1391C41.0377 38.9512 41.1362 38.6964 41.1365 38.4307V9.37561C41.1362 9.10991 41.0377 8.85519 40.8625 8.66732C40.6874 8.47946 40.4499 8.37379 40.2022 8.37349L4.76643 8.3735Z" fill="#F0F0F0"/>
<path d="M3.78174 34.0435V38.4306C3.78213 38.7106 3.88599 38.979 4.07057 39.177C4.25514 39.375 4.50536 39.4864 4.76639 39.4868H40.2023C40.4633 39.4864 40.7135 39.375 40.8981 39.177C41.0827 38.979 41.1865 38.7106 41.1869 38.4306V34.0435H3.78174Z" fill="#F0F0F0"/>
<path d="M4.11564 8.41668L3.97308 8.65552L41.1156 34.1629L41.2582 33.9241L4.11564 8.41668Z" fill="#F0F0F0"/>
<path d="M41.2205 8.41666L4.078 33.9241L4.22056 34.1629L41.3631 8.6555L41.2205 8.41666Z" fill="#F0F0F0"/>
<path d="M72.6071 71.0244L70.9689 71.0242L70.1895 64.2466L72.6073 64.2467L72.6071 71.0244Z" fill="#A0616A"/>
<path d="M72.5634 70.4501L70.8155 69.6885L70.7639 69.6658L69.7987 70.4501C69.2691 70.45 68.7598 70.6693 68.3772 71.0622C67.9947 71.4552 67.7683 71.9914 67.7454 72.559C67.7427 72.5902 67.7427 72.6228 67.7427 72.6554V72.7278H73.0248V70.4501H72.5634Z" fill="#506DB8"/>
<path d="M68.7706 69.3892L67.2253 69.9723L64.3929 63.8562L66.6736 62.9956L68.7706 69.3892Z" fill="#A0616A"/>
<path d="M68.5518 68.8628L66.6673 68.7666L66.6117 68.7636L65.9439 69.8471C65.4442 70.0356 65.0317 70.4237 64.7924 70.9306C64.5531 71.4375 64.5055 72.0239 64.6595 72.5675C64.6666 72.5978 64.6767 72.6286 64.6868 72.6594L64.7092 72.7276L69.6919 70.8471L68.9871 68.6985L68.5518 68.8628Z" fill="#506DB8"/>
<path d="M73.1859 41.8004C74.6846 41.7381 72.8281 54.549 72.8281 54.549C72.8281 54.549 73.3712 65.7964 73.2561 66.3866C73.141 66.9769 73.2416 68.5688 73.2416 68.5688C72.9479 67.9955 69.9186 68.4282 69.9186 68.4282L69.5065 57.0289L67.4025 47.8955L64.4855 54.0178L67.2813 63.4151C67.2813 63.4151 68.4135 64.539 68.2931 64.9831C68.1727 65.4272 65.207 66.4287 64.662 66.4514C64.1171 66.474 64.3631 65.732 64.3367 65.0012C64.3103 64.2705 61.7458 57.4981 60.8438 55.1938C59.9418 52.8895 60.643 49.6403 61.1035 47.2794C61.5639 44.9184 63.9863 40.4876 63.9863 40.4876C66.9931 36.8498 71.6872 41.8628 73.1859 41.8004Z" fill="#506DB8"/>
<path d="M54.9217 31.4476C55.0038 31.6158 55.1192 31.7627 55.26 31.8779C55.4007 31.9931 55.5633 32.0738 55.7362 32.1143C55.9092 32.1548 56.0883 32.1541 56.261 32.1123C56.4337 32.0705 56.5958 31.9886 56.7358 31.8724L60.3398 34.3946L60.3288 31.996L56.908 29.9686C56.7104 29.7293 56.4378 29.576 56.1419 29.5379C55.846 29.4998 55.5473 29.5794 55.3024 29.7617C55.0576 29.944 54.8836 30.2163 54.8134 30.527C54.7432 30.8377 54.7817 31.1653 54.9217 31.4476Z" fill="#A0616A"/>
<path d="M72.4076 43.8541C68.6909 43.8543 66.6428 43.0562 65.5551 42.3436C64.2252 41.4723 63.9976 40.5535 63.9886 40.5148L63.986 40.5037L64.1154 38.7564L64.172 38.6204C64.4329 37.994 64.4675 37.286 64.2691 36.6338L64.2651 36.6204L64.2661 36.6064L65.1351 24.5167L68.2105 23.4361L69.1052 22.4719L73.0886 22.4099L73.6436 23.6169L76.7839 24.885L75.2411 34.7356L74.5015 36.103L74.7991 37.5925L74.7971 37.606L73.8268 43.8178L73.7734 43.8203C73.2949 43.8433 72.8396 43.8546 72.4076 43.8541Z" fill="#082777"/>
<path d="M62.7924 36.3116L61.3343 35.3844L61.2429 35.2428C61.0573 34.9563 60.8117 34.7205 60.5257 34.5543C60.2397 34.3881 59.9214 34.2961 59.5963 34.2858L59.5793 34.2853L57.5711 33.0188L58.4035 30.4031L61.5517 31.4007L63.7464 25.5512C63.867 25.23 64.0682 24.9509 64.3278 24.745C64.5874 24.5391 64.8951 24.4145 65.2168 24.385C65.5385 24.3555 65.8615 24.4223 66.1498 24.5779C66.4382 24.7336 66.6807 24.972 66.8503 25.2667C67.0241 25.5747 67.1142 25.9286 67.1104 26.2885V30.116L67.0973 30.135L62.7924 36.3116Z" fill="#082777"/>
<path d="M72.5405 41.6043C72.5716 41.4174 72.6406 41.24 72.7426 41.0848C72.8446 40.9296 72.9771 40.8003 73.1307 40.7059C73.2843 40.6115 73.4553 40.5544 73.6318 40.5386C73.8082 40.5228 73.9857 40.5487 74.1518 40.6145L76.8829 37.0474L77.5442 39.3387L74.8493 42.3748C74.7279 42.6668 74.5108 42.9008 74.2392 43.0325C73.9676 43.1643 73.6604 43.1846 73.3758 43.0896C73.0912 42.9946 72.849 42.7909 72.695 42.5172C72.5411 42.2435 72.4861 41.9186 72.5405 41.6043Z" fill="#A0616A"/>
<path d="M76.6239 41.1537L74.8103 39.2082L75.9648 36.191L77.6379 33.7405C75.855 32.8095 74.5168 30.604 73.5471 28.7783L73.5362 28.7578L73.7776 26.7292C73.8341 26.2547 74.0113 25.8061 74.2898 25.4325C74.532 25.1076 74.8431 24.8496 75.1973 24.6801C75.5514 24.5107 75.9382 24.4346 76.3254 24.4583C76.7125 24.4821 77.0888 24.6049 77.4226 24.8165C77.7565 25.0282 78.0382 25.3225 78.2443 25.6749L81.4958 33.4282L81.4592 33.4867L78.8438 38.2689L78.1301 38.7654L76.6239 41.1537Z" fill="#082777"/>
<path d="M73.9569 18.3432C73.8373 19.278 73.3767 20.1237 72.6761 20.6945C71.9756 21.2652 71.0925 21.5143 70.2208 21.3871C69.3491 21.2598 68.5602 20.7666 68.0274 20.0158C67.4945 19.265 67.2613 18.318 67.379 17.3829L67.3854 17.3323C67.5229 16.4097 67.993 15.582 68.6944 15.0278C69.3957 14.4737 70.272 14.2374 71.1342 14.3701C71.9965 14.5027 72.7756 14.9936 73.3034 15.7368C73.8313 16.4801 74.0656 17.4161 73.9559 18.343L73.9569 18.3432Z" fill="#A0616A"/>
<path d="M73.1121 20.1772C73.2825 19.8057 73.4576 19.407 73.4097 18.9962C73.3618 18.5854 72.9863 18.1928 72.6175 18.3149C72.397 18.3879 72.2303 18.6215 71.9998 18.6334C71.6826 18.6499 71.5008 18.2605 71.402 17.9368L71 16.6183C70.6139 16.9411 70.1661 17.1684 69.6886 17.2842C69.2112 17.3999 68.7158 17.4011 68.2378 17.2878C67.8645 17.1963 67.4873 17.0178 67.2683 16.6808C67.0494 16.3438 67.0507 15.8211 67.351 15.5663C67.4983 15.4413 67.6943 15.3939 67.8351 15.2605C67.9224 15.1778 67.9825 15.0672 68.0067 14.9449C68.0308 14.8227 68.0176 14.6954 67.969 14.5818C67.9204 14.4683 67.839 14.3745 67.7369 14.3144C67.6348 14.2543 67.5173 14.2311 67.402 14.2481L68.4143 14.1124L68.1127 13.5272C68.2274 13.6109 68.3571 13.668 68.4935 13.6949C68.6299 13.7217 68.77 13.7177 68.9049 13.6831C69.1773 13.6305 69.4338 13.5102 69.7003 13.43C70.3461 13.2531 71.0282 13.3071 71.6428 13.584C72.2574 13.8608 72.771 14.3453 73.1055 14.9637C73.3546 14.8745 73.6231 14.8686 73.8755 14.9467C74.1278 15.0249 74.3521 15.1835 74.5185 15.4014C74.7895 15.7704 74.8632 16.2627 74.8737 16.7323C74.8934 17.6582 74.7052 18.5756 74.325 19.4071C74.2159 19.6713 74.0592 19.9096 73.864 20.1086C73.7657 20.2072 73.6484 20.2816 73.5205 20.3265C73.3926 20.3713 73.257 20.3856 73.1234 20.3684" fill="#506DB8"/>
<path d="M19.3243 16.5137C19.3785 17.343 19.6062 18.1484 19.9906 18.8703C20.8008 20.3964 22.1901 21.5014 23.6864 22.1582C25.5558 22.9787 27.6397 23.004 29.6237 22.821C31.4663 22.6511 33.2903 22.2572 35.1398 22.176C36.57 22.1269 38.0018 22.1635 39.4283 22.2857C42.1958 22.4964 44.9518 22.8874 47.6901 23.3613C48.4317 23.4881 49.1718 23.6243 49.9103 23.77C49.9801 23.7766 50.0491 23.7903 50.1164 23.811C50.1299 23.8169 50.1514 23.8123 50.1637 23.8206C50.186 23.8357 50.0735 23.7824 50.1417 23.8429C50.2367 23.9498 50.3214 24.0667 50.3945 24.1919L51.4058 25.5879C51.6959 25.9882 51.965 26.4746 52.3398 26.7902C52.6041 27.0092 52.923 27.1394 53.2561 27.1643C53.5893 27.1892 53.9219 27.1077 54.2119 26.9301C54.515 26.7248 54.7566 26.4303 54.9081 26.0819C55.1407 25.6242 55.4183 25.1946 55.736 24.8001C56.9391 23.2946 58.6113 22.3685 60.0099 21.1017C60.6874 20.5133 61.2655 19.8043 61.7192 19.0059C62.1063 18.2833 62.3469 17.4814 62.4255 16.6523C62.593 14.9687 62.1113 13.2517 61.3012 11.8194C60.4201 10.2807 59.1542 9.03785 57.6475 8.23219C55.9549 7.30719 54.0818 6.85662 52.2043 6.6321C50.2109 6.39371 48.1944 6.39445 46.1913 6.41852C43.9433 6.44536 41.6993 6.5514 39.4594 6.73664C37.2164 6.92286 34.9823 7.18756 32.7571 7.53073C30.6218 7.86003 28.4605 8.20325 26.3704 8.78591C24.524 9.30064 22.6828 10.1052 21.304 11.5629C20.0781 12.8591 19.2254 14.6328 19.3243 16.5137Z" fill="#4B93E7"/>
<path d="M29.6453 17.0493C29.5541 17.0449 29.4646 17.0203 29.3826 16.977C29.3007 16.9336 29.2279 16.8726 29.169 16.7977C29.1101 16.7228 29.0663 16.6356 29.0404 16.5416C29.0144 16.4476 29.0069 16.3489 29.0183 16.2516L29.0657 15.851C29.0748 15.7742 29.0663 15.6961 29.041 15.6235C29.0157 15.551 28.9744 15.4861 28.9206 15.4345L28.64 15.1656C28.5482 15.0775 28.4811 14.9637 28.4464 14.8369C28.4117 14.7101 28.4108 14.5754 28.4437 14.4481C28.4767 14.3208 28.5422 14.2059 28.6328 14.1164C28.7235 14.027 28.8357 13.9665 28.9567 13.9419L29.3265 13.8665C29.3974 13.8521 29.464 13.8194 29.5205 13.7712C29.577 13.7231 29.6218 13.6609 29.6509 13.5901L29.8027 13.2203C29.8524 13.0994 29.9326 12.9958 30.0343 12.9213C30.136 12.8468 30.2552 12.8042 30.3782 12.7985C30.5013 12.7928 30.6234 12.8241 30.7307 12.8889C30.838 12.9537 30.9263 13.0494 30.9856 13.1653L31.1666 13.5193C31.2013 13.5872 31.2509 13.6451 31.3111 13.6879C31.3713 13.7307 31.4404 13.7572 31.5122 13.765L31.8867 13.8056C32.0092 13.8189 32.1259 13.8687 32.2234 13.9494C32.321 14.0301 32.3955 14.1385 32.4386 14.2622C32.4817 14.386 32.4917 14.5203 32.4674 14.6498C32.4431 14.7794 32.3854 14.899 32.301 14.9953L32.0432 15.2893C31.9937 15.3457 31.9577 15.4141 31.9384 15.4887C31.9191 15.5633 31.917 15.6418 31.9323 15.7175L32.0119 16.1124C32.0379 16.2415 32.0297 16.3758 31.9883 16.5002C31.9469 16.6247 31.8738 16.7341 31.7774 16.8164C31.681 16.8986 31.5651 16.9502 31.4428 16.9654C31.3204 16.9807 31.1966 16.9589 31.0852 16.9026L30.7447 16.7305C30.6794 16.6973 30.6076 16.6817 30.5354 16.685C30.4633 16.6884 30.3929 16.7105 30.3306 16.7496L30.0052 16.9528C29.8963 17.0211 29.7714 17.0546 29.6453 17.0493Z" fill="white"/>
<path d="M34.9467 16.8842C34.7787 16.8758 34.6199 16.7998 34.502 16.6712C34.4308 16.5903 34.3776 16.493 34.3466 16.3868C34.3156 16.2806 34.3075 16.1682 34.323 16.0581L34.3665 15.6905C34.3758 15.6122 34.3672 15.5327 34.3414 15.4588C34.3157 15.3849 34.2736 15.3188 34.2187 15.2662L33.9585 15.0168C33.8817 14.9465 33.8205 14.8588 33.7794 14.7599C33.7382 14.6611 33.7182 14.5537 33.7206 14.4455C33.7263 14.2852 33.7826 14.1317 33.8802 14.0102C33.9779 13.8887 34.1111 13.8064 34.258 13.7767L34.6236 13.7022C34.6959 13.6875 34.7637 13.6541 34.8213 13.605C34.8789 13.5559 34.9245 13.4925 34.9541 13.4203L35.0904 13.0884C35.1391 12.9625 35.2192 12.8534 35.322 12.7731C35.4248 12.6929 35.5462 12.6447 35.6729 12.6337C35.7971 12.6261 35.9208 12.6566 36.0295 12.7214C36.1382 12.7863 36.2274 12.8829 36.2869 13.0001L36.4658 13.35C36.5012 13.4193 36.5518 13.4782 36.6132 13.5218C36.6746 13.5655 36.7449 13.5924 36.8182 13.6003L37.1652 13.6379C37.2659 13.6464 37.3635 13.6788 37.451 13.7329C37.5385 13.787 37.6136 13.8613 37.6709 13.9505C37.754 14.0837 37.7925 14.2433 37.7801 14.4031C37.7676 14.5629 37.705 14.7135 37.6024 14.8301L37.3475 15.1208C37.2971 15.1782 37.2606 15.2479 37.2409 15.3239C37.2212 15.3998 37.219 15.4798 37.2346 15.5569L37.308 15.9215C37.3316 16.0267 37.333 16.1362 37.3123 16.2421C37.2916 16.3481 37.2492 16.4477 37.1883 16.534C37.0961 16.6606 36.9665 16.7498 36.8207 16.7868C36.675 16.8238 36.5218 16.8064 36.3865 16.7374L36.0496 16.5671C35.9831 16.5335 35.91 16.5177 35.8366 16.5212C35.7632 16.5246 35.6916 16.5471 35.6281 16.5868L35.3066 16.7876C35.1977 16.856 35.0728 16.8895 34.9467 16.8842Z" fill="white"/>
<path d="M40.2617 16.8601C40.1705 16.8557 40.081 16.831 39.999 16.7877C39.9171 16.7444 39.8443 16.6834 39.7854 16.6085C39.7265 16.5335 39.6827 16.4463 39.6568 16.3524C39.6308 16.2584 39.6233 16.1597 39.6347 16.0624L39.6821 15.6618C39.6912 15.5849 39.6827 15.5069 39.6574 15.4343C39.6321 15.3618 39.5908 15.2969 39.537 15.2453L39.2564 14.9764C39.1646 14.8883 39.0975 14.7745 39.0628 14.6477C39.0281 14.5209 39.0272 14.3862 39.0601 14.2589C39.0931 14.1316 39.1586 14.0167 39.2492 13.9272C39.3399 13.8378 39.4521 13.7773 39.5731 13.7526L39.9429 13.6773C40.0138 13.6629 40.0804 13.6302 40.1369 13.582C40.1934 13.5338 40.2382 13.4717 40.2673 13.4009L40.4191 13.0311C40.4688 12.9102 40.549 12.8066 40.6507 12.7321C40.7524 12.6576 40.8715 12.615 40.9946 12.6093C41.1177 12.6036 41.2398 12.6349 41.3471 12.6997C41.4544 12.7645 41.5427 12.8602 41.602 12.9761L41.783 13.33C41.8177 13.398 41.8673 13.4559 41.9275 13.4987C41.9877 13.5415 42.0568 13.568 42.1286 13.5758L42.5031 13.6163C42.6256 13.6296 42.7423 13.6795 42.8398 13.7602C42.9374 13.8409 43.0119 13.9493 43.055 14.073C43.0981 14.1968 43.1081 14.3311 43.0838 14.4606C43.0595 14.5901 43.0018 14.7098 42.9174 14.806L42.6596 15.1001C42.6101 15.1565 42.5741 15.2249 42.5548 15.2995C42.5355 15.3741 42.5334 15.4526 42.5487 15.5283L42.6282 15.9232C42.6543 16.0523 42.6461 16.1866 42.6047 16.311C42.5633 16.4354 42.4902 16.5449 42.3938 16.6271C42.2974 16.7093 42.1815 16.761 42.0592 16.7762C41.9368 16.7915 41.813 16.7697 41.7016 16.7134L41.3611 16.5413C41.2958 16.5081 41.224 16.4925 41.1518 16.4958C41.0796 16.4991 41.0093 16.5213 40.9469 16.5603L40.6216 16.7636C40.5127 16.8319 40.3878 16.8654 40.2617 16.8601Z" fill="white"/>
<path opacity="0.2" d="M45.4316 16.7095C45.3403 16.705 45.2509 16.6804 45.1689 16.6371C45.0869 16.5938 45.0142 16.5328 44.9553 16.4578C44.8964 16.3829 44.8526 16.2957 44.8266 16.2017C44.8007 16.1078 44.7932 16.009 44.8045 15.9118L44.852 15.5112C44.861 15.4343 44.8526 15.3563 44.8273 15.2837C44.802 15.2111 44.7607 15.1463 44.7068 15.0946L44.4263 14.8257C44.3344 14.7377 44.2673 14.6239 44.2326 14.4971C44.198 14.3703 44.197 14.2356 44.23 14.1083C44.2629 13.981 44.3284 13.8661 44.4191 13.7766C44.5097 13.6871 44.6219 13.6266 44.743 13.602L45.1128 13.5267C45.1837 13.5122 45.2503 13.4795 45.3068 13.4314C45.3633 13.3832 45.408 13.321 45.4371 13.2502L45.5889 12.8804C45.6386 12.7595 45.7189 12.656 45.8206 12.5815C45.9223 12.5069 46.0414 12.4644 46.1645 12.4587C46.2875 12.4529 46.4096 12.4843 46.5169 12.5491C46.6243 12.6139 46.7126 12.7096 46.7718 12.8254L46.9528 13.1794C46.9875 13.2474 47.0371 13.3053 47.0974 13.3481C47.1576 13.3909 47.2266 13.4173 47.2985 13.4251L47.6729 13.4657C47.7955 13.479 47.9121 13.5288 48.0097 13.6095C48.1072 13.6902 48.1818 13.7986 48.2249 13.9224C48.268 14.0462 48.2779 14.1804 48.2536 14.31C48.2293 14.4395 48.1717 14.5592 48.0873 14.6554L47.8294 14.9495C47.7799 15.0058 47.7439 15.0743 47.7246 15.1489C47.7053 15.2235 47.7032 15.302 47.7185 15.3776L47.7981 15.7725C47.8241 15.9016 47.816 16.036 47.7746 16.1604C47.7331 16.2848 47.6601 16.3943 47.5637 16.4765C47.4673 16.5587 47.3514 16.6104 47.229 16.6256C47.1067 16.6408 46.9828 16.619 46.8714 16.5627L46.5309 16.3906C46.4657 16.3575 46.3938 16.3419 46.3217 16.3452C46.2495 16.3485 46.1792 16.3707 46.1168 16.4097L45.7915 16.6129C45.6826 16.6813 45.5577 16.7148 45.4316 16.7095Z" fill="black"/>
<path opacity="0.2" d="M50.6015 16.5591C50.5102 16.5547 50.4207 16.53 50.3388 16.4867C50.2568 16.4434 50.1841 16.3824 50.1252 16.3074C50.0663 16.2325 50.0224 16.1453 49.9965 16.0513C49.9706 15.9574 49.963 15.8586 49.9744 15.7614L50.0218 15.3608C50.0309 15.2839 50.0224 15.2059 49.9971 15.1333C49.9718 15.0608 49.9305 14.9959 49.8767 14.9442L49.5962 14.6753C49.5043 14.5873 49.4372 14.4735 49.4025 14.3467C49.3678 14.2199 49.3669 14.0852 49.3998 13.9579C49.4328 13.8306 49.4983 13.7157 49.5889 13.6262C49.6796 13.5367 49.7918 13.4763 49.9128 13.4516L50.2827 13.3763C50.3536 13.3618 50.4201 13.3291 50.4766 13.281C50.5331 13.2328 50.5779 13.1707 50.607 13.0998L50.7588 12.73C50.8085 12.6092 50.8887 12.5056 50.9904 12.4311C51.0921 12.3565 51.2113 12.314 51.3343 12.3083C51.4574 12.3026 51.5795 12.3339 51.6868 12.3987C51.7941 12.4635 51.8824 12.5592 51.9417 12.675L52.1227 13.029C52.1574 13.097 52.207 13.1549 52.2672 13.1977C52.3274 13.2405 52.3965 13.2669 52.4684 13.2748L52.8428 13.3153C52.9653 13.3286 53.082 13.3784 53.1795 13.4592C53.2771 13.5399 53.3516 13.6482 53.3947 13.772C53.4378 13.8958 53.4478 14.0301 53.4235 14.1596C53.3992 14.2891 53.3415 14.4088 53.2571 14.505L52.9993 14.7991C52.9498 14.8554 52.9138 14.9239 52.8945 14.9985C52.8752 15.0731 52.8731 15.1516 52.8884 15.2273L52.968 15.6221C52.994 15.7513 52.9858 15.8856 52.9444 16.01C52.903 16.1344 52.83 16.2439 52.7335 16.3261C52.6371 16.4083 52.5212 16.46 52.3989 16.4752C52.2766 16.4904 52.1527 16.4687 52.0413 16.4123L51.7008 16.2402C51.6355 16.2071 51.5637 16.1915 51.4915 16.1948C51.4194 16.1981 51.3491 16.2203 51.2867 16.2593L50.9613 16.4625C50.8524 16.5309 50.7275 16.5644 50.6015 16.5591Z" fill="black"/>
<path d="M83.5386 63.8738L83.6898 60.2262C85.2664 59.3222 87.0249 58.8447 88.8126 58.8352C86.3522 60.9929 86.6597 65.1521 84.9916 68.0537C84.4649 68.9544 83.7559 69.7164 82.9173 70.2833C82.0788 70.8501 81.132 71.2073 80.1472 71.3283L78.0883 72.6805C77.8058 70.9911 77.868 69.256 78.2709 67.5949C78.6737 65.9338 79.4074 64.3861 80.4215 63.0584C80.9973 62.3197 81.6576 61.6616 82.3867 61.0998C82.8798 62.4946 83.5386 63.8738 83.5386 63.8738Z" fill="#F2F2F2"/>
<path d="M95.3426 73.0001H40.1571C40.1153 73.0001 40.0753 72.9823 40.0457 72.9506C40.0162 72.919 39.9996 72.876 39.9996 72.8312C39.9996 72.7864 40.0162 72.7435 40.0457 72.7118C40.0753 72.6801 40.1153 72.6624 40.1571 72.6624H95.3426C95.3843 72.6624 95.4244 72.6801 95.4539 72.7118C95.4834 72.7435 95.5 72.7864 95.5 72.8312C95.5 72.876 95.4834 72.919 95.4539 72.9506C95.4244 72.9823 95.3843 73.0001 95.3426 73.0001Z" fill="#CACACA"/>
</g>
<defs>
<clipPath id="clip0_1_3477">
<rect width="95" height="73" fill="white" transform="translate(0.5)"/>
</clipPath>
</defs>
</svg>
