<svg width="96" height="73" viewBox="0 0 96 73" fill="none" xmlns="http://www.w3.org/2000/svg">
<g clip-path="url(#clip0_1_3344)">
<path d="M93.1327 31.8149C93.1592 31.3904 92.2075 31.1832 92.2508 30.8117C92.2939 30.4416 93.2538 30.5185 94.2685 29.85C94.4515 29.7294 95.6047 28.9696 95.4923 28.3996C95.2791 27.3191 90.7065 27.8706 90.2614 26.2988C90.1638 25.9538 90.2545 25.47 89.9852 24.3858C89.878 23.9545 89.7891 23.7306 89.6074 23.66C89.3496 23.5597 89.1304 23.8555 88.4976 24.2925C87.5485 24.9478 87.3751 24.7429 86.6941 25.3203C86.1886 25.749 86.0187 26.0871 85.7986 26.0189C85.4871 25.9225 85.6263 25.1833 85.2697 25.0028C84.9058 24.8187 84.2712 25.3408 83.8824 25.7935C83.1527 26.643 83.0771 27.4945 82.8345 28.2729C82.5709 29.1189 81.9869 30.2742 80.5382 31.4639L67.313 41.5372C70.0971 39.5206 77.8826 34.1026 80.916 32.1897C81.7916 31.6375 82.7113 31.1 83.7153 31.3472C84.6819 31.5852 85.6102 32.522 87.1687 33.1435C87.3507 33.2161 87.8598 33.4114 88.089 33.1836C88.2785 32.9954 88.1041 32.6895 88.2785 32.511C88.5124 32.2715 89.0161 32.6275 89.8417 32.7494C90.4238 32.8354 90.87 32.7613 91.2537 32.6975C91.3694 32.6783 93.0975 32.3799 93.1327 31.8149Z" fill="#F2F2F2"/>
<path d="M70.7869 26.0931C70.5955 25.957 70.2237 26.386 70.0619 26.2566C69.9008 26.1277 70.2138 25.6569 70.193 24.9429C70.1893 24.8141 70.1656 24.0026 69.8658 23.8959C69.2975 23.6936 68.2368 26.2011 67.3711 25.9761C67.1811 25.9268 66.9804 25.7406 66.3941 25.566C66.1609 25.4966 66.0302 25.4777 65.9447 25.5507C65.8233 25.6541 65.8987 25.8521 65.9211 26.3031C65.9547 26.9796 65.8085 27.0095 65.8829 27.5259C65.9381 27.9092 66.0477 28.094 65.9522 28.1873C65.8171 28.3195 65.5105 28.0347 65.323 28.1658C65.1316 28.2996 65.1934 28.7761 65.2935 29.1064C65.4815 29.7262 65.8591 30.0107 66.1542 30.3599C66.475 30.7394 66.8484 31.3727 66.9884 32.46L67.8974 42.1584C67.7548 40.1468 67.4599 34.5851 67.4378 32.4754C67.4315 31.8663 67.4447 31.2389 67.8504 30.7946C68.2409 30.3669 68.9482 30.1604 69.6893 29.5394C69.7759 29.4668 70.0144 29.2617 69.9737 29.0783C69.9401 28.9267 69.7463 28.928 69.7129 28.7869C69.668 28.5977 69.9804 28.4417 70.2757 28.0529C70.484 27.7788 70.578 27.5282 70.6588 27.3128C70.6832 27.2478 71.0418 26.2742 70.7869 26.0931Z" fill="#F2F2F2"/>
<path d="M74.0107 29.718L74.5991 28.5609L74.7049 28.5171C75.1948 28.3147 75.5595 28.0357 75.7896 27.6875C75.8262 27.6322 75.86 27.5749 75.8946 27.5165C76.0314 27.2853 76.2014 26.9977 76.5528 26.7724C76.7492 26.6471 77.2423 26.3846 77.5371 26.6721C77.6172 26.7485 77.6563 26.839 77.6745 26.9253C77.6901 26.9182 77.7059 26.9112 77.7229 26.9036C77.9323 26.8135 78.0592 26.8016 78.1815 26.7901C78.2755 26.7812 78.3724 26.7722 78.5525 26.7152C78.6315 26.6903 78.6966 26.6653 78.7515 26.6444C78.9177 26.5814 79.1256 26.5131 79.3198 26.656C79.5222 26.8164 79.5133 27.076 79.5075 27.2479C79.4972 27.5547 79.4551 27.7509 79.4271 27.881C79.4168 27.9285 79.4054 27.9821 79.4051 28.0009C79.4046 28.153 80.0164 28.4489 80.246 28.5616C80.7629 28.8131 81.2101 29.0307 81.1751 29.4554C81.1503 29.7593 80.8728 29.9858 80.3272 30.1459C80.1573 30.1957 79.9998 30.2132 79.866 30.2194C79.9093 30.3175 79.9289 30.4345 79.8834 30.5635C79.7754 30.8687 79.3906 30.9764 78.7393 30.8847C78.5772 30.8623 78.3596 30.8314 78.1059 30.7098C77.9865 30.6524 77.8872 30.5881 77.8032 30.5317C77.7689 30.5803 77.7224 30.6263 77.657 30.661C77.465 30.7635 77.237 30.7144 76.9825 30.5046C76.6994 30.2781 76.4961 30.0462 76.3165 29.842C76.1595 29.6639 76.0238 29.5111 75.8921 29.4296C75.6456 29.282 75.3376 29.3486 74.9603 29.4509L74.0107 29.718Z" fill="#F2F2F2"/>
<path d="M78.7324 23.7022L77.5135 23.4002L77.4462 23.3042C77.1348 22.8597 76.7844 22.5613 76.4042 22.4168C76.3437 22.3938 76.2822 22.374 76.2195 22.3539C75.971 22.2741 75.6621 22.1749 75.3647 21.8764C75.199 21.7094 74.8312 21.2769 75.0222 20.9055C75.0726 20.8052 75.1463 20.7426 75.2214 20.7023C75.2109 20.6883 75.2005 20.6741 75.1891 20.6588C75.0527 20.4697 75.0095 20.3443 74.9679 20.2234C74.9358 20.1306 74.9029 20.0347 74.8046 19.8669C74.7615 19.7933 74.7219 19.7337 74.6886 19.6835C74.5882 19.5312 74.4723 19.3381 74.5552 19.1053C74.6521 18.8597 74.8944 18.8029 75.0548 18.7652C75.3409 18.6978 75.533 18.6906 75.6604 18.6859C75.7069 18.6843 75.7593 18.6823 75.7768 18.6778C75.9176 18.6397 76.0359 17.9455 76.0819 17.6845C76.1833 17.0976 76.271 16.5896 76.6724 16.5174C76.9597 16.4654 77.2394 16.6888 77.5258 17.2004C77.6149 17.3598 77.671 17.5148 77.7108 17.6486C77.7905 17.5799 77.8936 17.5304 78.0244 17.5437C78.334 17.5756 78.5311 17.9378 78.6115 18.6203C78.632 18.79 78.6586 19.0181 78.6105 19.3057C78.5878 19.4411 78.5535 19.5579 78.5227 19.6573C78.5763 19.6797 78.6306 19.7151 78.6793 19.7724C78.8227 19.9408 78.8352 20.184 78.7058 20.4949C78.5682 20.8388 78.4054 21.1034 78.2622 21.337C78.1374 21.5411 78.0305 21.7171 77.9887 21.8711C77.9147 22.158 78.0544 22.4529 78.2447 22.8089L78.7324 23.7022Z" fill="#F2F2F2"/>
<path d="M80.2709 20.1537L80.8592 18.9967L80.9651 18.9529C81.4549 18.7505 81.8197 18.4714 82.0498 18.1233C82.0863 18.068 82.1202 18.0107 82.1547 17.9523C82.2915 17.7211 82.4615 17.4335 82.813 17.2082C83.0094 17.0829 83.5025 16.8204 83.7973 17.1079C83.8773 17.1843 83.9164 17.2748 83.9347 17.3611C83.9502 17.354 83.9661 17.347 83.9831 17.3394C84.1925 17.2493 84.3194 17.2374 84.4417 17.2259C84.5356 17.217 84.6326 17.208 84.8127 17.151C84.8916 17.1261 84.9568 17.1011 85.0117 17.0802C85.1779 17.0171 85.3857 16.9489 85.5799 17.0918C85.7824 17.2522 85.7735 17.5118 85.7676 17.6837C85.7574 17.9905 85.7153 18.1867 85.6873 18.3168C85.677 18.3643 85.6656 18.4179 85.6653 18.4367C85.6648 18.5888 86.2765 18.8847 86.5061 18.9974C87.023 19.2489 87.4703 19.4665 87.4353 19.8912C87.4105 20.1951 87.133 20.4216 86.5874 20.5817C86.4175 20.6315 86.26 20.6489 86.1262 20.6552C86.1695 20.7533 86.1891 20.8703 86.1436 20.9993C86.0356 21.3045 85.6508 21.4122 84.9994 21.3204C84.8374 21.2981 84.6198 21.2672 84.3661 21.1456C84.2467 21.0882 84.1474 21.0239 84.0634 20.9675C84.029 21.0161 83.9826 21.062 83.9172 21.0968C83.7252 21.1993 83.4972 21.1502 83.2426 20.9403C82.9596 20.7139 82.7562 20.482 82.5766 20.2778C82.4196 20.0997 82.284 19.9469 82.1523 19.8654C81.9058 19.7178 81.5978 19.7844 81.2204 19.8867L80.2709 20.1537Z" fill="#F2F2F2"/>
<path d="M67.6683 41.7662L67.5455 41.4708L67.2748 41.3211C67.2868 41.2939 67.3099 41.228 67.3467 41.1256C67.5489 40.5646 68.1636 38.857 69.3853 36.3495C70.2381 34.5991 71.207 32.8656 72.2655 31.1963C73.3256 29.5243 74.2207 28.3249 74.9399 27.3607C75.4825 26.6336 76.011 25.9497 76.5263 25.2838C77.9023 23.5044 79.2019 21.8233 80.3895 19.7824C80.6549 19.3269 81.2068 18.3785 81.3332 17.039C81.4064 16.2621 81.3264 15.4684 81.0948 14.6804L81.6835 14.491C81.9388 15.3615 82.0269 16.2403 81.9456 17.1029C81.8055 18.588 81.2041 19.6214 80.9152 20.1179C79.7065 22.1949 78.3942 23.892 77.0048 25.6885C76.4918 26.3522 75.9653 27.033 75.425 27.7572C74.7124 28.7123 73.8251 29.9014 72.7787 31.5519C71.7327 33.2012 70.7757 34.9136 69.9334 36.6417C68.7273 39.1177 68.1219 40.8 67.923 41.3526C67.8166 41.6476 67.7943 41.7094 67.6683 41.7662Z" fill="#F2F2F2"/>
<path d="M79.6109 14.8571C79.5901 14.8422 79.5693 14.8265 79.549 14.8097C79.1326 14.4754 78.9094 13.9176 78.8854 13.1518C78.8747 12.792 78.9679 12.457 79.1538 11.7891C79.1823 11.686 79.3325 11.1671 79.6383 10.5241C79.838 10.1038 79.9494 9.94811 80.1147 9.85852C80.2986 9.75853 80.501 9.74199 80.6963 9.77298C80.7232 9.71751 80.7627 9.66883 80.8188 9.63049C81.0503 9.47095 81.2614 9.6649 81.3767 9.76812C81.4342 9.82155 81.5057 9.88878 81.5935 9.94488C81.7313 10.0337 81.8302 10.0436 81.9795 10.0591C82.1225 10.0739 82.3002 10.0923 82.5187 10.1887C82.9506 10.377 83.1939 10.716 83.2741 10.8276C83.698 11.4127 83.6763 12.0535 83.6511 12.7954C83.6457 12.9439 83.6129 13.4754 83.4155 14.0947C83.2731 14.5415 83.1501 14.6973 83.0385 14.7987C82.8099 15.0077 82.5673 15.0472 81.9827 15.0994C81.3717 15.1547 81.0653 15.1821 80.8298 15.1635C80.2821 15.1193 79.9382 15.0916 79.6109 14.8571Z" fill="#F2F2F2"/>
<path d="M77.1845 0H42.6817C41.416 0 40.3868 1.07692 40.3868 2.4013V39.6404C40.3868 40.9648 41.416 42.0417 42.6817 42.0417H77.1845C78.4502 42.0417 79.4794 40.9648 79.4794 39.6404V2.4013C79.4794 1.07692 78.4502 0 77.1845 0ZM79.2381 39.6404C79.2381 40.8272 78.3187 41.7892 77.1845 41.7892H42.6817C41.5475 41.7892 40.6281 40.8272 40.6281 39.6404V2.4013C40.6281 1.21455 41.5475 0.252503 42.6817 0.252503H60.9577C71.0537 0.252503 79.2381 8.81644 79.2381 19.3806V39.6404Z" fill="#506DB8"/>
<path d="M39.6565 27.9881C38.4472 28.3302 37.6357 29.2603 37.8438 30.0656C38.052 30.8708 39.2009 31.2461 40.4106 30.9038C40.8956 30.774 41.3438 30.5246 41.7178 30.1763L46.8242 28.6595L46.0928 26.1672L41.1365 27.9272C40.6456 27.8235 40.1381 27.8444 39.6565 27.9881Z" fill="#FFB6B6"/>
<path d="M61.0552 20.511C61.0552 20.511 62.4969 22.7239 59.2478 24.3933C55.9986 26.0626 49.9926 28.4452 49.9926 28.4452L41.6998 30.4555L40.4475 27.5827L50.2877 24.7773L58.3061 20.095L61.0552 20.511Z" fill="#506DB8"/>
<path d="M60.0906 14.6208C60.0538 15.6698 60.7755 16.915 61.5385 16.9406C62.4564 16.9713 66.7959 17.2947 66.9354 16.9181C67.904 14.3033 63.3425 8.87918 62.3143 8.7227C61.7617 8.63862 61.1001 9.46875 60.8457 10.154C60.4892 11.1144 61.0153 11.5673 60.7184 12.8611C60.4919 13.8476 60.1164 13.8875 60.0906 14.6208Z" fill="#082777"/>
<path d="M52.5371 55.9724L49.4915 56.7027L52.5518 66.2044L54.6156 65.7097L52.5371 55.9724Z" fill="#FFB6B6"/>
<path d="M51.4488 63.2414L52.6267 63.4222L52.8083 64.0824C52.8083 64.0824 52.8476 63.2425 54.1486 62.667L54.4868 63.2579C54.4868 63.2579 55.1832 63.7269 55.4083 64.8891L55.9081 68.0329L54.8853 68.3168L54.1348 66.2515C54.1348 66.2515 53.7219 65.8565 53.065 68.5285C53.065 68.5285 52.799 69.4265 50.386 69.3224C50.0543 69.3081 49.7625 69.0766 49.674 68.7418C49.6251 68.5571 49.6467 68.3661 49.8504 68.2381C50.3688 67.9124 50.9717 67.9429 51.2043 67.3639C51.4369 66.7848 51.4488 63.2414 51.4488 63.2414Z" fill="#082777"/>
<path d="M59.1538 60.2923L56.4341 60.2219L56.8148 70.2273L58.9318 70.2668L59.1538 60.2923Z" fill="#FFB6B6"/>
<path d="M56.4258 67.0735L57.5275 67.5456L57.5519 68.2322C57.5519 68.2322 57.7832 67.4269 59.1783 67.1958L59.3706 67.8546C59.3706 67.8546 59.9388 68.4851 59.8899 69.6699L59.652 72.8471L58.594 72.8651L58.3406 70.6715C58.3406 70.6715 58.0306 70.1841 56.7785 72.6122C56.7785 72.6122 56.3138 73.4168 53.9956 72.7082C53.677 72.6108 53.447 72.3126 53.4381 71.9654C53.4331 71.7738 53.498 71.5939 53.7251 71.5209C54.3033 71.3353 54.8815 71.5167 55.2404 71.0133C55.5993 70.5098 56.4258 67.0735 56.4258 67.0735Z" fill="#082777"/>
<path d="M64.766 49.364L50.3821 48.1993L54.4299 30.8358L64.1144 29.3757L64.766 49.364Z" fill="#082777"/>
<path d="M62.7822 17.447L65.8129 15.7576L68.2602 18.7812L63.3423 35.2746L54.3463 31.1065L61.1791 18.8836L62.7822 17.447Z" fill="#4B93E7"/>
<path d="M63.1664 32.2966C63.1664 32.2966 64.1314 37.5036 61.143 40.21L60.2282 43.2532L59.2405 48.8703L59.3298 63.3781L55.7101 62.9994L54.2623 49.1122L54.2451 42.2006L48.9013 46.989L54.4939 58.4828L49.9368 60.5708L44.3711 46.7198C43.9844 45.8761 44.0875 44.876 44.6374 44.138L54.3464 31.1064L63.1664 32.2966Z" fill="#082777"/>
<path d="M66.9186 17.1235L60.9764 22.9242C59.5702 34.865 60.3378 45.8295 64.3841 55.3217L74.3693 50.4792C66.1356 47.8661 66.9431 33.5181 68.5407 18.1446L66.9186 17.1235Z" fill="#506DB8"/>
<path d="M61.7941 18.9025L62.7082 17.4226L57.6524 20.5328L53.6546 32.1253L61.0294 22.4954L61.7941 18.9025Z" fill="#506DB8"/>
<path d="M74.4408 40.7081C74.7892 41.9672 75.6925 42.7996 76.4582 42.5674C77.224 42.3353 77.562 41.1265 77.2133 39.8671C77.0806 39.362 76.8342 38.8975 76.4948 38.5124L74.954 33.1973L72.5857 34.007L74.3561 39.1609C74.2658 39.6763 74.2948 40.2068 74.4408 40.7081Z" fill="#FFB6B6"/>
<path d="M66.6877 18.2683C66.6877 18.2683 68.7603 16.6968 70.4484 20.0473C72.1365 23.3977 74.5851 29.6112 74.5851 29.6112L76.7439 38.2271L74.0355 39.6195L71.0728 29.4079L66.3694 21.1557L66.6877 18.2683Z" fill="#506DB8"/>
<path d="M64.2233 15.6216C66.0821 15.6216 67.5891 14.0448 67.5891 12.0997C67.5891 10.1547 66.0821 8.57788 64.2233 8.57788C62.3644 8.57788 60.8575 10.1547 60.8575 12.0997C60.8575 14.0448 62.3644 15.6216 64.2233 15.6216Z" fill="#FFB6B6"/>
<path d="M64.2344 10.7257C64.0449 10.7062 63.9475 10.9158 63.224 11.2083C62.9676 11.3119 62.8364 11.3639 62.6858 11.374C62.2282 11.4048 61.8725 11.1403 61.6347 10.9635C61.2483 10.6762 60.9994 10.4911 60.9508 10.1952C60.8873 9.80901 61.3051 9.37764 62.1433 8.53068C62.5537 8.11589 62.8039 7.86535 63.2055 7.56715C63.8791 7.06699 64.216 6.81691 64.6881 6.76783C65.3135 6.70285 65.7889 7.01511 66.475 7.4657C66.6603 7.58743 66.9276 7.64597 67.2108 7.66827C68.1382 7.7413 68.9332 8.38808 69.1855 9.32473C69.2047 9.39629 69.2209 9.46107 69.2331 9.51653C69.7309 11.7908 69.592 14.1563 68.9107 16.3778C68.8923 16.4376 68.877 16.4933 68.8651 16.5441C68.5486 17.897 64.201 18.4244 63.6925 17.2806C63.3723 16.5604 64.8688 15.8398 65.0923 13.6922C65.2478 12.1972 64.707 10.7745 64.2344 10.7257Z" fill="#082777"/>
<path d="M51.1252 11.5208H14.6566V11.7164H51.1252V11.5208Z" fill="#E6E6E6"/>
<path d="M45.9768 8.66107H19.8051C19.3928 8.66107 19.0573 8.31006 19.0573 7.87863C19.0573 7.4472 19.3928 7.09619 19.8051 7.09619H45.9768C46.3891 7.09619 46.7245 7.4472 46.7245 7.87863C46.7245 8.31006 46.3891 8.66107 45.9768 8.66107Z" fill="#E6E6E6"/>
<path d="M14.7374 13.0777C15.6037 13.0777 16.306 12.3429 16.306 11.4364C16.306 10.53 15.6037 9.79517 14.7374 9.79517C13.8712 9.79517 13.1689 10.53 13.1689 11.4364C13.1689 12.3429 13.8712 13.0777 14.7374 13.0777Z" fill="#E6E6E6"/>
<path d="M19.5637 9.54255C20.43 9.54255 21.1322 8.80773 21.1322 7.90128C21.1322 6.99483 20.43 6.26001 19.5637 6.26001C18.6974 6.26001 17.9952 6.99483 17.9952 7.90128C17.9952 8.80773 18.6974 9.54255 19.5637 9.54255Z" fill="#E6E6E6"/>
<path d="M38.8183 29.8274H2.34967V30.023H38.8183V29.8274Z" fill="#506DB8"/>
<path d="M33.6698 26.9675H7.49813C7.08582 26.9675 6.75037 26.6165 6.75037 26.185C6.75037 25.7536 7.08582 25.4026 7.49813 25.4026H33.6698C34.0821 25.4026 34.4176 25.7536 34.4176 26.185C34.4176 26.6165 34.0821 26.9675 33.6698 26.9675Z" fill="#4B93E7"/>
<path d="M2.06853 31.3841C2.93481 31.3841 3.63706 30.6493 3.63706 29.7428C3.63706 28.8364 2.93481 28.1016 2.06853 28.1016C1.20226 28.1016 0.5 28.8364 0.5 29.7428C0.5 30.6493 1.20226 31.3841 2.06853 31.3841Z" fill="#4B93E7"/>
<path d="M6.89479 27.8489C7.76107 27.8489 8.46333 27.1141 8.46333 26.2077C8.46333 25.3012 7.76107 24.5664 6.89479 24.5664C6.02852 24.5664 5.32626 25.3012 5.32626 26.2077C5.32626 27.1141 6.02852 27.8489 6.89479 27.8489Z" fill="#4B93E7"/>
<path d="M43.1619 50.0276H6.6933V50.2232H43.1619V50.0276Z" fill="#E6E6E6"/>
<path d="M38.0135 47.1677H11.8418C11.4294 47.1677 11.094 46.8166 11.094 46.3852C11.094 45.9538 11.4294 45.6028 11.8418 45.6028H38.0135C38.4258 45.6028 38.7612 45.9538 38.7612 46.3852C38.7612 46.8166 38.4258 47.1677 38.0135 47.1677Z" fill="#E6E6E6"/>
<path d="M11.1178 47.9229C11.984 47.9229 12.6863 47.1881 12.6863 46.2816C12.6863 45.3752 11.984 44.6404 11.1178 44.6404C10.2515 44.6404 9.54922 45.3752 9.54922 46.2816C9.54922 47.1881 10.2515 47.9229 11.1178 47.9229Z" fill="#E6E6E6"/>
<path d="M6.41216 51.7105C7.27844 51.7105 7.98069 50.9757 7.98069 50.0692C7.98069 49.1628 7.27844 48.428 6.41216 48.428C5.54588 48.428 4.84363 49.1628 4.84363 50.0692C4.84363 50.9757 5.54588 51.7105 6.41216 51.7105Z" fill="#E6E6E6"/>
</g>
<defs>
<clipPath id="clip0_1_3344">
<rect width="95" height="73" fill="white" transform="translate(0.5)"/>
</clipPath>
</defs>
</svg>
