<svg width="95" height="73" viewBox="0 0 95 73" fill="none" xmlns="http://www.w3.org/2000/svg">
<g clip-path="url(#clip0_1_3525)">
<path d="M91.1704 28.937C91.1704 41.601 81.6316 52.3642 68.3463 56.2873C62.9987 57.8575 57.2776 58.2706 51.6965 57.4896C51.1668 57.4159 50.6409 57.3312 50.1188 57.2355C49.4113 57.1073 48.7122 56.96 48.0215 56.7934C33.7583 53.3701 23.3041 42.1946 23.3041 28.937C23.3041 12.9555 38.4964 0 57.2373 0C75.9781 0 91.1704 12.9554 91.1704 28.937Z" fill="#E6E6E6"/>
<path d="M35.9837 37.8682C35.924 37.8954 35.8794 37.9418 35.8597 37.9971C35.84 38.0524 35.8468 38.1121 35.8787 38.1631L48.6366 58.5406C48.6686 58.5916 48.723 58.6296 48.7878 58.6464C48.8526 58.6632 48.9226 58.6574 48.9824 58.6302L67.0171 50.4193C67.0768 50.392 67.1214 50.3456 67.1411 50.2904C67.1608 50.2351 67.154 50.1754 67.1221 50.1244L54.3642 29.7468C54.3322 29.6959 54.2778 29.6578 54.213 29.641C54.1482 29.6242 54.0782 29.63 54.0184 29.6572L35.9837 37.8682Z" fill="#3F3D56"/>
<path d="M37.6601 38.4638L49.335 57.111L65.3407 49.824L53.6658 31.1765L37.6601 38.4638ZM36.6459 38.9255L36.6481 38.9245L36.6456 38.9256L36.6459 38.9255Z" fill="white"/>
<path d="M41.6957 40.5139C41.447 40.6271 41.3941 40.9576 41.5775 41.2505C41.7609 41.5434 42.1124 41.6897 42.361 41.5765L54.0835 36.2394C54.3322 36.1262 54.3851 35.7957 54.2017 35.5028C54.0183 35.2099 53.6669 35.0635 53.4182 35.1767L41.6957 40.5139Z" fill="#4B93E7"/>
<path d="M43.14 42.8207C42.8914 42.934 42.8384 43.2644 43.0218 43.5574C43.2052 43.8503 43.5567 43.9966 43.8054 43.8834L55.5279 38.5463C55.7765 38.4331 55.8295 38.1026 55.6461 37.8097C55.4627 37.5168 55.1112 37.3704 54.8625 37.4836L43.14 42.8207Z" fill="#4B93E7"/>
<path d="M44.5844 45.1276C44.3357 45.2408 44.2828 45.5713 44.4662 45.8642C44.6496 46.1571 45.001 46.3035 45.2497 46.1903L56.9722 40.8532C57.2209 40.7399 57.2738 40.4095 57.0904 40.1166C56.907 39.8236 56.5555 39.6773 56.3069 39.7905L44.5844 45.1276Z" fill="#4B93E7"/>
<path d="M46.0286 47.4345C45.7799 47.5477 45.727 47.8782 45.9104 48.1711C46.0938 48.464 46.4452 48.6104 46.6939 48.4972L58.4164 43.16C58.6651 43.0468 58.718 42.7163 58.5346 42.4234C58.3512 42.1305 57.9998 41.9842 57.7511 42.0974L46.0286 47.4345Z" fill="#4B93E7"/>
<path d="M47.4729 49.7414C47.2243 49.8546 47.1713 50.1851 47.3547 50.478C47.5381 50.7709 47.8896 50.9173 48.1382 50.8041L59.8608 45.4669C60.1094 45.3537 60.1624 45.0232 59.979 44.7303C59.7956 44.4374 59.4441 44.2911 59.1954 44.4043L47.4729 49.7414Z" fill="#4B93E7"/>
<path d="M49.7493 29.0644L60.3712 29.6175L63.346 22.0524L54.0294 20.3738L49.7493 29.0644Z" fill="#082777"/>
<path d="M57.4098 27.1514C59.756 27.1514 61.658 25.5295 61.658 23.5287C61.658 21.5279 59.756 19.906 57.4098 19.906C55.0636 19.906 53.1616 21.5279 53.1616 23.5287C53.1616 25.5295 55.0636 27.1514 57.4098 27.1514Z" fill="#FFB8B8"/>
<path d="M68.3187 56.0053L68.3463 56.2872C62.9987 57.8574 57.2775 58.2705 51.6965 57.4895L50.1188 57.2354L51.6201 54.3962L52.6043 52.535L52.2499 46.0963L52.2124 45.43L52.166 44.58L52.8071 44.5768L57.3649 44.5533L61.7086 44.5298L62.371 44.5266C66.5244 48.8832 69.9515 52.424 68.3187 56.0053Z" fill="#082777"/>
<path d="M62.3085 44.4732L52.1661 45.4342L51.7905 39.4546C50.6002 36.8659 51.3859 34.5552 53.8562 32.4816L54.3584 30.7864C54.4903 30.3415 54.7626 29.9359 55.1459 29.6137C55.5292 29.2916 56.0087 29.0652 56.5323 28.9592C58.1926 28.1473 60.0732 27.7603 62.1833 27.8158C63.026 28.0964 63.7405 28.6007 64.2213 29.2542C64.7021 29.9077 64.9238 30.6757 64.8534 31.4448C64.417 36.1441 63.6336 40.5431 62.3085 44.4732Z" fill="#4B93E7"/>
<path d="M54.1962 19.2486C54.1962 19.2486 51.9995 19.9322 51.9431 22.4175C51.94 22.8357 52.0055 23.2522 52.1376 23.6549C52.28 24.1117 52.3943 25.1027 51.4365 26.4238C50.8106 27.2813 50.2448 28.1696 49.7419 29.0841L52.2153 29.2876L52.6243 25.7912C52.8226 24.096 53.3125 22.435 54.0782 20.8615L54.0942 20.8287C54.0942 20.8287 55.2289 22.5105 57.3855 22.4587L56.5936 21.8204C56.5936 21.8204 59.2947 22.6878 60.7635 22.862C60.9311 22.8819 61.0892 22.9404 61.2207 23.0312C61.3522 23.1221 61.4522 23.2418 61.5098 23.3775C61.5674 23.5132 61.5806 23.6597 61.5478 23.8013C61.515 23.9429 61.4375 24.0742 61.3237 24.181C61.3151 24.1891 61.3063 24.1971 61.2973 24.2052C60.3991 25.0156 58.6113 26.8991 59.7373 28.3181C60.8634 29.7372 59.9521 30.1535 59.9521 30.1535L61.6206 29.3246L62.3778 28.912L62.3951 29.4375L66.3872 28.9472C66.3872 28.9472 67.4611 28.7899 65.0767 26.6123C65.0767 26.6123 64.4379 25.7597 64.6802 25.0054C64.8808 24.4317 64.9184 23.8255 64.7901 23.2369C64.1911 20.7868 61.9984 15.9396 54.1962 19.2486Z" fill="#082777"/>
<path d="M57.2373 72.7332C65.6741 72.7332 72.5134 72.3985 72.5134 71.9857C72.5134 71.5729 65.6741 71.2383 57.2373 71.2383C48.8004 71.2383 41.9611 71.5729 41.9611 71.9857C41.9611 72.3985 48.8004 72.7332 57.2373 72.7332Z" fill="#E6E6E6"/>
<path d="M0.0929515 34.4396C0.0608799 34.447 0.0335221 34.4648 0.0168819 34.4893C0.000241772 34.5138 -0.00432223 34.5429 0.00419348 34.5703L3.42132 45.5073C3.4299 45.5347 3.45085 45.558 3.47958 45.5722C3.50831 45.5864 3.54246 45.5902 3.57455 45.583L13.2541 43.3837C13.2861 43.3764 13.3135 43.3586 13.3301 43.3341C13.3468 43.3096 13.3513 43.2804 13.3428 43.2531L9.92569 32.3161C9.91711 32.2887 9.89616 32.2654 9.86743 32.2512C9.8387 32.237 9.80454 32.2331 9.77246 32.2404L0.0929515 34.4396Z" fill="#F2F2F2"/>
<path d="M2.47152 36.2458C2.33806 36.2762 2.26951 36.4288 2.31863 36.586C2.36775 36.7432 2.51626 36.8465 2.64971 36.8162L8.94139 35.3867C9.07485 35.3563 9.1434 35.2037 9.09428 35.0465C9.04516 34.8893 8.89665 34.786 8.76319 34.8163L2.47152 36.2458Z" fill="white"/>
<path d="M2.85836 37.4841C2.7249 37.5144 2.65635 37.6671 2.70547 37.8243C2.75459 37.9815 2.9031 38.0848 3.03656 38.0545L9.32823 36.625C9.46169 36.5946 9.53024 36.442 9.48112 36.2848C9.432 36.1276 9.28349 36.0243 9.15003 36.0546L2.85836 37.4841Z" fill="white"/>
<path d="M3.2452 38.7221C3.11174 38.7525 3.04319 38.9051 3.09231 39.0623C3.14143 39.2195 3.28994 39.3228 3.4234 39.2925L9.71508 37.863C9.84853 37.8327 9.91708 37.68 9.86796 37.5228C9.81884 37.3656 9.67034 37.2623 9.53688 37.2926L3.2452 38.7221Z" fill="white"/>
<path d="M3.63204 39.9604C3.49858 39.9908 3.43003 40.1434 3.47915 40.3006C3.52827 40.4578 3.67678 40.5611 3.81024 40.5308L10.1019 39.1013C10.2354 39.0709 10.3039 38.9183 10.2548 38.7611C10.2057 38.6039 10.0572 38.5006 9.92371 38.5309L3.63204 39.9604Z" fill="white"/>
<path d="M4.01888 41.1985C3.88542 41.2288 3.81687 41.3814 3.86599 41.5386C3.91511 41.6958 4.06362 41.7991 4.19708 41.7688L10.4888 40.3393C10.6222 40.309 10.6908 40.1564 10.6416 39.9992C10.5925 39.8419 10.444 39.7386 10.3106 39.769L4.01888 41.1985Z" fill="white"/>
<path d="M4.40572 42.4365C4.27226 42.4668 4.20372 42.6195 4.25283 42.7767C4.30195 42.9339 4.45046 43.0372 4.58392 43.0069L10.8756 41.5773C11.0091 41.547 11.0776 41.3944 11.0285 41.2372C10.9794 41.08 10.8309 40.9767 10.6974 41.007L4.40572 42.4365Z" fill="white"/>
<path d="M24.8296 72.9752C24.8296 72.9889 24.8857 73 24.9548 73H38.2276C38.2967 73 38.3528 72.9889 38.3528 72.9752V70.9959C38.3528 70.9823 38.2967 70.9712 38.2276 70.9712H24.9548C24.8857 70.9712 24.8296 70.9823 24.8296 70.9959V72.9752Z" fill="#F2F2F2"/>
<path d="M27.4888 72.6288C27.4888 72.6561 27.6441 72.6783 27.8348 72.6783C28.0256 72.6783 28.1809 72.6561 28.1809 72.6288V71.3422C28.1809 71.3149 28.0256 71.2927 27.8348 71.2927C27.6441 71.2927 27.4888 71.3149 27.4888 71.3422V72.6288Z" fill="white"/>
<path d="M28.9913 72.6288C28.9913 72.6561 29.1466 72.6783 29.3374 72.6783C29.5282 72.6783 29.6835 72.6561 29.6835 72.6288V71.3422C29.6835 71.3149 29.5282 71.2927 29.3374 71.2927C29.1466 71.2927 28.9913 71.3149 28.9913 71.3422V72.6288Z" fill="white"/>
<path d="M30.4939 72.6288C30.4939 72.6561 30.6492 72.6783 30.84 72.6783C31.0308 72.6783 31.1861 72.6561 31.1861 72.6288V71.3422C31.1861 71.3149 31.0308 71.2927 30.84 71.2927C30.6492 71.2927 30.4939 71.3149 30.4939 71.3422V72.6288Z" fill="white"/>
<path d="M31.9965 72.6288C31.9965 72.6561 32.1518 72.6783 32.3425 72.6783C32.5333 72.6783 32.6886 72.6561 32.6886 72.6288V71.3422C32.6886 71.3149 32.5333 71.2927 32.3425 71.2927C32.1518 71.2927 31.9965 71.3149 31.9965 71.3422V72.6288Z" fill="white"/>
<path d="M33.499 72.6288C33.499 72.6561 33.6543 72.6783 33.8451 72.6783C34.0359 72.6783 34.1912 72.6561 34.1912 72.6288V71.3422C34.1912 71.3149 34.0359 71.2927 33.8451 71.2927C33.6543 71.2927 33.499 71.3149 33.499 71.3422V72.6288Z" fill="white"/>
<path d="M35.0016 72.6288C35.0016 72.6561 35.1569 72.6783 35.3477 72.6783C35.5384 72.6783 35.6937 72.6561 35.6937 72.6288V71.3422C35.6937 71.3149 35.5384 71.2927 35.3477 71.2927C35.1569 71.2927 35.0016 71.3149 35.0016 71.3422V72.6288Z" fill="white"/>
<path d="M0.448033 26.547C0.418763 26.5603 0.396902 26.5831 0.38725 26.6102C0.377598 26.6372 0.380943 26.6665 0.396549 26.6915L6.6477 36.6761C6.66336 36.701 6.69 36.7197 6.72176 36.7279C6.75353 36.7361 6.78783 36.7333 6.81713 36.72L15.6537 32.6968C15.683 32.6834 15.7049 32.6607 15.7145 32.6336C15.7242 32.6065 15.7208 32.5773 15.7052 32.5523L9.45407 22.5677C9.43841 22.5427 9.41177 22.5241 9.38 22.5158C9.34824 22.5076 9.31394 22.5105 9.28464 22.5238L0.448033 26.547Z" fill="#E6E6E6"/>
<path d="M1.26941 26.8387L6.98985 35.9754L14.8323 32.4049L9.1119 23.2681L1.26941 26.8387ZM0.772461 27.0649L0.773562 27.0644L0.772339 27.065L0.772461 27.0649Z" fill="white"/>
<path d="M3.24682 27.8433C3.12498 27.8988 3.09904 28.0607 3.18889 28.2042C3.27875 28.3478 3.45097 28.4195 3.5728 28.364L9.3166 25.7489C9.43844 25.6934 9.46438 25.5315 9.37452 25.388C9.28466 25.2445 9.11245 25.1728 8.99061 25.2282L3.24682 27.8433Z" fill="#4B93E7"/>
<path d="M3.95446 28.9737C3.83262 29.0292 3.80668 29.1911 3.89654 29.3346C3.98639 29.4781 4.15861 29.5499 4.28044 29.4944L10.0242 26.8793C10.1461 26.8238 10.172 26.6619 10.0822 26.5184C9.9923 26.3748 9.82008 26.3031 9.69825 26.3586L3.95446 28.9737Z" fill="#4B93E7"/>
<path d="M4.66222 30.1041C4.54039 30.1595 4.51444 30.3215 4.6043 30.465C4.69416 30.6085 4.86638 30.6802 4.98821 30.6248L10.732 28.0097C10.8538 27.9542 10.8798 27.7923 10.7899 27.6487C10.7001 27.5052 10.5279 27.4335 10.406 27.489L4.66222 30.1041Z" fill="#4B93E7"/>
<path d="M5.36986 31.2342C5.24803 31.2897 5.22209 31.4516 5.31194 31.5951C5.4018 31.7386 5.57401 31.8103 5.69585 31.7549L11.4396 29.1398C11.5615 29.0843 11.5874 28.9224 11.4976 28.7789C11.4077 28.6353 11.2355 28.5636 11.1137 28.6191L5.36986 31.2342Z" fill="#4B93E7"/>
<path d="M6.0775 32.3646C5.95567 32.42 5.92973 32.582 6.01958 32.7255C6.10944 32.869 6.28166 32.9407 6.40349 32.8852L12.1473 30.2702C12.2691 30.2147 12.2951 30.0528 12.2052 29.9092C12.1154 29.7657 11.9431 29.694 11.8213 29.7495L6.0775 32.3646Z" fill="#4B93E7"/>
<path d="M6.78514 33.4949C6.66331 33.5504 6.63737 33.7123 6.72723 33.8559C6.81708 33.9994 6.9893 34.0711 7.11114 34.0156L12.8549 31.4005C12.9768 31.3451 13.0027 31.1831 12.9129 31.0396C12.823 30.8961 12.6508 30.8244 12.5289 30.8798L6.78514 33.4949Z" fill="#4B93E7"/>
<path d="M86.3146 52.0627C86.286 52.0483 86.2519 52.0442 86.2197 52.0512C86.1875 52.0583 86.16 52.0759 86.1431 52.1003L79.3905 61.8445C79.3737 61.8689 79.3689 61.898 79.3771 61.9255C79.3854 61.9529 79.4061 61.9764 79.4346 61.9908L88.0586 66.3367C88.0872 66.3511 88.1213 66.3552 88.1534 66.3481C88.1856 66.3411 88.2131 66.3235 88.2301 66.2991L94.9826 56.5548C94.9994 56.5304 95.0043 56.5013 94.996 56.4739C94.9877 56.4465 94.9671 56.423 94.9385 56.4086L86.3146 52.0627Z" fill="#E6E6E6"/>
<path d="M86.4494 52.8126L80.2703 61.7295L87.9239 65.5865L94.1031 56.6696L86.4494 52.8126ZM85.9644 52.5682L85.9654 52.5687L85.9643 52.5681L85.9644 52.5682Z" fill="white"/>
<path d="M86.4709 54.7752C86.352 54.7153 86.1763 54.7805 86.0792 54.9206C85.9822 55.0607 85.9999 55.2234 86.1188 55.2833L91.7243 58.1082C91.8432 58.1681 92.0189 58.1028 92.116 57.9627C92.2131 57.8227 92.1954 57.6599 92.0765 57.6L86.4709 54.7752Z" fill="#4B93E7"/>
<path d="M85.7065 55.8785C85.5876 55.8185 85.4119 55.8838 85.3148 56.0239C85.2178 56.164 85.2355 56.3267 85.3544 56.3866L90.9599 59.2114C91.0788 59.2714 91.2545 59.2061 91.3516 59.066C91.4487 58.9259 91.431 58.7632 91.3121 58.7033L85.7065 55.8785Z" fill="#4B93E7"/>
<path d="M84.9421 56.9815C84.8232 56.9216 84.6475 56.9868 84.5504 57.1269C84.4534 57.267 84.4711 57.4297 84.59 57.4896L90.1955 60.3145C90.3144 60.3744 90.4901 60.3091 90.5872 60.169C90.6843 60.029 90.6666 59.8662 90.5477 59.8063L84.9421 56.9815Z" fill="#4B93E7"/>
<path d="M84.1777 58.0848C84.0588 58.0248 83.8831 58.0901 83.786 58.2302C83.689 58.3703 83.7067 58.533 83.8256 58.5929L89.4311 61.4177C89.55 61.4777 89.7257 61.4124 89.8228 61.2723C89.9199 61.1322 89.9022 60.9695 89.7833 60.9096L84.1777 58.0848Z" fill="#4B93E7"/>
<path d="M83.4132 59.1878C83.2943 59.1279 83.1186 59.1931 83.0215 59.3332C82.9244 59.4733 82.9421 59.636 83.061 59.6959L88.6666 62.5208C88.7855 62.5807 88.9612 62.5154 89.0583 62.3753C89.1553 62.2353 89.1376 62.0725 89.0187 62.0126L83.4132 59.1878Z" fill="#4B93E7"/>
<path d="M82.6488 60.2908C82.5299 60.2309 82.3542 60.2962 82.2571 60.4362C82.16 60.5763 82.1777 60.739 82.2966 60.799L87.9022 63.6238C88.0211 63.6837 88.1968 63.6184 88.2938 63.4784C88.3909 63.3383 88.3732 63.1756 88.2543 63.1156L82.6488 60.2908Z" fill="#4B93E7"/>
<path d="M55.1712 34.3293L55.041 35.017L53.6686 42.231L52.8071 44.5769L52.5041 45.4023L52.25 46.0963L49.1609 54.5105L48.3134 56.2086C47.8483 56.3552 47.4487 56.6222 47.1703 56.9721C46.8919 57.322 46.7487 57.7373 46.7607 58.16C46.7727 58.5827 46.9393 58.9916 47.2373 59.3296C47.5352 59.6676 47.9496 59.9177 48.4224 60.045C48.8952 60.1723 49.4028 60.1704 49.8743 60.0396C50.3458 59.9087 50.7576 59.6555 51.052 59.3153C51.3465 58.9751 51.5089 58.565 51.5166 58.1422C51.5242 57.7195 51.3768 57.3052 51.0948 56.9574L57.1409 44.9634L57.3649 44.5534L58.0511 43.2988L59.3471 34.9604L59.4285 34.4361L55.1712 34.3293Z" fill="#FFB8B8"/>
<path d="M60.1798 35.1835C58.212 34.5805 56.3242 34.5164 54.5452 35.1835L55.1259 30.8915C55.1045 30.3556 55.3307 29.8339 55.7558 29.4386C56.1808 29.0434 56.7708 28.8062 57.3988 28.778C58.0345 28.7494 58.6575 28.9374 59.1308 29.3006C59.604 29.6638 59.8886 30.1724 59.9221 30.7146L59.9225 30.7216L60.1798 35.1835Z" fill="#4B93E7"/>
</g>
<defs>
<clipPath id="clip0_1_3525">
<rect width="95" height="73" fill="white"/>
</clipPath>
</defs>
</svg>
