<svg width="96" height="73" viewBox="0 0 96 73" fill="none" xmlns="http://www.w3.org/2000/svg">
<g clip-path="url(#clip0_1_3179)">
<path d="M9.08593 31.8824C7.32716 33.4814 10.2051 47.5165 10.2051 47.5165C10.2051 47.5165 10.8447 68.9246 12.2037 69.9017C13.5628 70.8788 16.6007 69.8128 17.7998 69.6352C18.999 69.4575 17.9597 56.2219 16.2009 51.3362C14.4422 46.4506 15.8012 39.3441 15.8012 39.3441L25.3146 41.3872C25.3146 41.3872 19.5586 46.8059 19.7984 47.9607C20.0383 49.1155 26.1939 53.024 27.3132 53.2016C28.4324 53.3793 30.5909 46.0952 32.5095 41.1207C34.4282 36.1463 19.3987 32.9484 19.3987 32.9484L17.3202 28.5957C17.3202 28.5957 10.8447 30.2835 9.08593 31.8824Z" fill="#082777"/>
<path d="M13.8606 70.2704C13.8606 70.2704 13.2805 72.5265 13.8606 72.5265C14.4407 72.5265 15.5043 73.1711 17.148 72.9562C18.7916 72.7413 18.3082 70.4852 17.148 70.1629C15.9877 69.8406 16.2778 67.2622 16.2778 67.2622C15.891 66.4027 14.054 67.4771 14.054 67.4771L13.8606 70.2704Z" fill="#082777"/>
<path d="M22.0966 52.3297C22.0966 52.3297 21.1014 54.3991 21.6684 54.535C22.2355 54.671 23.1528 55.5503 24.8003 55.7254C26.4478 55.9005 26.4034 53.5819 25.3304 52.9949C24.2574 52.408 25.0303 49.9556 25.0303 49.9556C24.8154 49.0248 22.8158 49.6445 22.8158 49.6445L22.0966 52.3297Z" fill="#082777"/>
<path d="M10.1652 12.6508C10.3251 13.0061 9.60559 17.4476 9.60559 17.4476L10.2451 18.6912C10.2451 18.6912 13.9226 17.0923 13.363 16.8258C12.8034 16.5593 12.8833 13.2726 12.8833 13.2726C12.8833 13.2726 10.0053 12.2955 10.1652 12.6508Z" fill="#FFB9B9"/>
<path d="M11.5493 14.0197C14.2564 14.0197 16.451 11.5812 16.451 8.57321C16.451 5.56519 14.2564 3.12671 11.5493 3.12671C8.8422 3.12671 6.64764 5.56519 6.64764 8.57321C6.64764 11.5812 8.8422 14.0197 11.5493 14.0197Z" fill="#082777"/>
<path d="M11.2113 5.72815C12.3314 5.72815 13.2395 4.71913 13.2395 3.47443C13.2395 2.22973 12.3314 1.2207 11.2113 1.2207C10.0911 1.2207 9.18298 2.22973 9.18298 3.47443C9.18298 4.71913 10.0911 5.72815 11.2113 5.72815Z" fill="#082777"/>
<path d="M12.0986 4.49527C12.1688 4.50337 12.2393 4.50744 12.3099 4.50746C12.5763 4.50746 12.84 4.44916 13.0861 4.3359C13.3322 4.22264 13.5558 4.05663 13.7441 3.84736C13.9325 3.63808 14.0819 3.38963 14.1838 3.11619C14.2857 2.84276 14.3382 2.54969 14.3382 2.25373C14.3382 1.95776 14.2857 1.6647 14.1838 1.39126C14.0819 1.11783 13.9325 0.86938 13.7441 0.660102C13.5558 0.450824 13.3322 0.284815 13.0861 0.171555C12.84 0.0582944 12.5763 -8.82041e-09 12.3099 0C12.2393 2.01661e-05 12.1688 0.00408712 12.0986 0.012185C12.5973 0.0702351 13.0589 0.331425 13.3944 0.74536C13.7299 1.15929 13.9156 1.69664 13.9156 2.25373C13.9156 2.81082 13.7299 3.34816 13.3944 3.7621C13.0589 4.17603 12.5973 4.43722 12.0986 4.49527Z" fill="#082777"/>
<path d="M11.6841 14.9603C13.5385 14.9603 15.0418 13.2899 15.0418 11.2294C15.0418 9.1689 13.5385 7.49854 11.6841 7.49854C9.82975 7.49854 8.32648 9.1689 8.32648 11.2294C8.32648 13.2899 9.82975 14.9603 11.6841 14.9603Z" fill="#FFB9B9"/>
<path d="M6.84748 16.9589C5.8082 17.2254 4.04944 20.0679 4.04944 20.0679L6.84748 23.177C6.84748 23.177 8.84608 31.527 9.08591 31.8823C10.6571 34.2101 17.7199 29.0398 17.7199 29.0398C17.7199 29.0398 17.4401 26.5081 17.6 25.2645C17.7537 24.0684 17.0004 21.6669 17.0004 21.6669C17.0004 21.6669 19.6385 20.4233 19.0789 19.1796C18.5193 17.936 15.0817 15.0935 13.6427 16.0706C12.2037 17.0477 9.32576 16.0706 9.32576 16.0706C9.32576 16.0706 7.88676 16.6924 6.84748 16.9589Z" fill="#E6E6E6"/>
<path d="M27.2732 34.8582C27.2732 34.8582 31.83 39.2109 32.9492 38.3225C34.0684 37.4342 28.6322 34.3252 28.6322 34.3252L27.2732 34.8582Z" fill="#FFB9B9"/>
<path d="M6.80756 33.3481C7.44711 34.1476 10.485 32.1045 10.0955 31.1972C9.70605 30.2898 7.28722 32.1045 7.28722 32.1045C7.28722 32.1045 6.16801 32.5486 6.80756 33.3481Z" fill="#FFB9B9"/>
<path d="M6.84751 21.3116L3.48987 28.2403C3.48987 28.2403 7.32717 31.7935 7.80683 31.8823C8.2865 31.9712 6.84751 34.2808 6.84751 34.2808C6.84751 34.2808 2.53053 30.9052 0.851708 29.2174C-0.827116 27.5297 4.04947 20.068 4.04947 20.068L5.48847 19.0908L6.84751 21.3116Z" fill="#E6E6E6"/>
<path d="M16.6007 21.0452L20.518 27.7963C20.518 27.7963 26.5138 35.258 27.3132 35.6133C28.1126 35.9686 29.072 34.2808 29.072 34.2808L21.877 24.5984L19.1589 19.1797L18.1197 18.7356L16.6007 21.0452Z" fill="#E6E6E6"/>
<path d="M11.5493 9.05042C13.4163 9.05042 14.9298 8.04139 14.9298 6.7967C14.9298 5.552 13.4163 4.54297 11.5493 4.54297C9.68237 4.54297 8.16888 5.552 8.16888 6.7967C8.16888 8.04139 9.68237 9.05042 11.5493 9.05042Z" fill="#082777"/>
<path d="M21.0326 55.4233C20.9218 55.4235 20.8156 55.4725 20.7373 55.5595C20.6589 55.6466 20.6149 55.7646 20.6147 55.8877V71.725C20.6149 71.8481 20.6589 71.9661 20.7373 72.0532C20.8156 72.1402 20.9218 72.1892 21.0326 72.1893H69.6331C69.7439 72.1892 69.8501 72.1402 69.9284 72.0532C70.0068 71.9661 70.0508 71.8481 70.051 71.725V55.8877C70.0508 55.7646 70.0068 55.6466 69.9284 55.5595C69.8501 55.4724 69.7439 55.4235 69.6331 55.4233L21.0326 55.4233Z" fill="#E6E6E6"/>
<path d="M21.662 71.0257H69.0037V56.5869H21.662V71.0257Z" fill="white"/>
<path d="M63.0281 68.0303C62.9371 68.0302 62.847 68.05 62.7629 68.0886C62.6788 68.1272 62.6024 68.1838 62.5381 68.2552C62.4737 68.3267 62.4226 68.4115 62.3878 68.5049C62.353 68.5983 62.335 68.6984 62.335 68.7994C62.335 68.9005 62.353 69.0006 62.3878 69.094C62.4226 69.1874 62.4737 69.2722 62.5381 69.3437C62.6024 69.4151 62.6788 69.4717 62.7629 69.5103C62.847 69.5489 62.9371 69.5687 63.0281 69.5686H65.797C65.9806 69.5686 66.1566 69.4876 66.2865 69.3433C66.4163 69.1991 66.4892 69.0034 66.4892 68.7994C66.4892 68.5954 66.4163 68.3998 66.2865 68.2556C66.1566 68.1113 65.9806 68.0303 65.797 68.0303H63.0281Z" fill="#4B93E7"/>
<path d="M66.4891 66.5383H34.5255V66.7407H66.4891V66.5383Z" fill="#E6E6E6"/>
<path d="M27.8441 68.2864C30.0708 68.2864 31.876 66.2807 31.876 63.8064C31.876 61.3322 30.0708 59.3264 27.8441 59.3264C25.6174 59.3264 23.8123 61.3322 23.8123 63.8064C23.8123 66.2807 25.6174 68.2864 27.8441 68.2864Z" fill="#4B93E7"/>
<path d="M34.5761 65.4085L34.4751 65.2401L37.7965 62.7796L40.0742 63.9944L43.3503 61.6687L49.8673 64.7577L55.0571 61.9249L60.0965 64.1951L66.4288 57.9631L66.5496 58.1146L60.1328 64.4299L55.0642 62.1465L49.8726 64.9802L43.3673 61.8968L40.0869 64.2257L37.8113 63.0121L34.5761 65.4085Z" fill="#3F3D56"/>
<path d="M35.1175 68.1362C35.0397 68.1361 34.9626 68.1531 34.8907 68.1861C34.8188 68.2191 34.7535 68.2675 34.6984 68.3286C34.6434 68.3897 34.5997 68.4622 34.5699 68.5421C34.5401 68.6219 34.5248 68.7075 34.5248 68.7939C34.5248 68.8804 34.5401 68.966 34.5699 69.0458C34.5997 69.1257 34.6434 69.1982 34.6984 69.2593C34.7535 69.3204 34.8188 69.3688 34.8907 69.4018C34.9626 69.4348 35.0397 69.4518 35.1175 69.4517H41.3098C41.4667 69.4514 41.6171 69.382 41.7279 69.2587C41.8387 69.1354 41.901 68.9682 41.901 68.7939C41.901 68.6197 41.8387 68.4525 41.7279 68.3292C41.6171 68.2058 41.4667 68.1365 41.3098 68.1362H35.1175Z" fill="#E6E6E6"/>
<path d="M29.384 61.8022H30.014L28.7031 63.2437C28.4741 63.4945 28.1655 63.6351 27.844 63.6351C27.5224 63.6351 27.2138 63.4945 26.9848 63.2437L25.6741 61.8022H26.3041L27.2999 62.8973C27.4449 63.0562 27.6404 63.1452 27.8441 63.1452C28.0477 63.1452 28.2432 63.0562 28.3882 62.8973L29.384 61.8022ZM26.2961 65.8107H25.6661L26.985 64.3603C27.214 64.1095 27.5226 63.9689 27.8441 63.9689C28.1657 63.9689 28.4743 64.1095 28.7033 64.3603L30.0222 65.8107H29.3922L28.3882 64.7067C28.2432 64.5479 28.0477 64.4588 27.8441 64.4588C27.6404 64.4588 27.4449 64.5479 27.2999 64.7067L26.2961 65.8107Z" fill="white"/>
<path d="M27.3613 4.69507C27.2505 4.69522 27.1442 4.74418 27.0659 4.83123C26.9876 4.91829 26.9435 5.03631 26.9434 5.15942V20.9967C26.9435 21.1198 26.9876 21.2379 27.0659 21.3249C27.1442 21.412 27.2505 21.4609 27.3613 21.4611H75.9617C76.0725 21.4609 76.1787 21.412 76.257 21.3249C76.3354 21.2379 76.3795 21.1198 76.3796 20.9967V5.15941C76.3795 5.03631 76.3354 4.91828 76.257 4.83123C76.1787 4.74418 76.0725 4.69521 75.9617 4.69507L27.3613 4.69507Z" fill="#E6E6E6"/>
<path d="M27.9906 20.2974H75.3323V5.85864H27.9906V20.2974Z" fill="white"/>
<path d="M69.3567 17.302C69.1731 17.302 68.997 17.383 68.8672 17.5273C68.7374 17.6715 68.6644 17.8672 68.6644 18.0712C68.6644 18.2752 68.7374 18.4708 68.8672 18.6151C68.997 18.7593 69.1731 18.8403 69.3567 18.8403H72.1256C72.3091 18.8403 72.4852 18.7593 72.615 18.6151C72.7449 18.4708 72.8178 18.2752 72.8178 18.0712C72.8178 17.8672 72.7449 17.6715 72.615 17.5273C72.4852 17.383 72.3091 17.302 72.1256 17.302H69.3567Z" fill="#4B93E7"/>
<path d="M72.8178 15.8101H40.8541V16.0124H72.8178V15.8101Z" fill="#E6E6E6"/>
<path d="M34.1727 17.5579C36.3995 17.5579 38.2046 15.5521 38.2046 13.0779C38.2046 10.6037 36.3995 8.5979 34.1727 8.5979C31.946 8.5979 30.1409 10.6037 30.1409 13.0779C30.1409 15.5521 31.946 17.5579 34.1727 17.5579Z" fill="#4B93E7"/>
<path d="M40.9046 14.68L40.8036 14.5116L44.1251 12.0512L46.4027 13.266L49.6789 10.9403L49.7231 10.9612L56.1959 14.0293L61.3856 11.1965L66.4251 13.4667L72.7574 7.23462L72.8781 7.38612L66.4614 13.7014L61.3927 11.4181L56.2012 14.2518L49.6959 11.1684L46.4154 13.4972L44.1398 12.2835L40.9046 14.68Z" fill="#3F3D56"/>
<path d="M41.4461 17.4077C41.2892 17.4079 41.1389 17.4773 41.028 17.6007C40.9172 17.724 40.8549 17.8911 40.8549 18.0654C40.8549 18.2397 40.9172 18.4069 41.028 18.5302C41.1389 18.6535 41.2892 18.7229 41.4461 18.7231H47.6385C47.7955 18.7231 47.946 18.6538 48.057 18.5305C48.168 18.4072 48.2304 18.2399 48.2304 18.0654C48.2304 17.891 48.168 17.7237 48.057 17.6004C47.946 17.477 47.7955 17.4077 47.6385 17.4077H41.4461Z" fill="#E6E6E6"/>
<path d="M35.795 12.5551C35.8704 11.9945 35.4862 11.6931 34.9609 11.492L35.1313 10.7326L34.7152 10.6174L34.5493 11.3568C34.44 11.3265 34.3277 11.298 34.2161 11.2697L34.3832 10.5254L33.9674 10.4102L33.7969 11.1693C33.7063 11.1464 33.6175 11.1238 33.5312 11.0999L33.5317 11.0976L32.9579 10.9384L32.8473 11.4321C32.8473 11.4321 33.1559 11.5107 33.1494 11.5156C33.207 11.5233 33.2595 11.5557 33.2958 11.606C33.332 11.6563 33.3491 11.7204 33.3433 11.7845L33.1492 12.6496C33.1639 12.6537 33.1783 12.6588 33.1924 12.665L33.1486 12.6529L32.8764 13.8649C32.8704 13.886 32.8607 13.9057 32.8479 13.9226C32.8351 13.9396 32.8193 13.9536 32.8016 13.9638C32.7839 13.974 32.7645 13.9802 32.7447 13.9821C32.7248 13.984 32.7047 13.9814 32.6857 13.9747C32.6899 13.9814 32.3834 13.8908 32.3834 13.8908L32.1768 14.4201L32.7183 14.5701C32.819 14.5981 32.9178 14.6275 33.0148 14.6551L32.8426 15.4234L33.2582 15.5386L33.4288 14.7786C33.5422 14.8128 33.6524 14.8444 33.7602 14.8742L33.5903 15.6306L34.0063 15.7458L34.1785 14.9791C34.8879 15.1283 35.4215 15.0681 35.6458 14.3553C35.8267 13.7813 35.6369 13.4501 35.2637 13.2341C35.5355 13.1642 35.7402 12.9655 35.7949 12.5551L35.795 12.5551ZM34.8443 14.0362C34.7156 14.6102 33.8459 14.3 33.5638 14.2221L33.7922 13.2045C34.0742 13.2827 34.9785 13.4375 34.8444 14.0362H34.8443ZM34.9729 12.5468C34.8556 13.069 34.1316 12.8037 33.8966 12.7386L34.1037 11.8157C34.3387 11.8807 35.0952 12.0021 34.9729 12.5468Z" fill="white"/>
<path d="M46.4817 30.0591C46.3709 30.0592 46.2647 30.1082 46.1863 30.1952C46.108 30.2823 46.0639 30.4003 46.0638 30.5234V46.3608C46.0639 46.4839 46.108 46.6019 46.1863 46.6889C46.2647 46.776 46.3709 46.8249 46.4817 46.8251H95.0821C95.1929 46.8249 95.2991 46.776 95.3775 46.6889C95.4558 46.6019 95.4999 46.4839 95.5 46.3608V30.5234C95.4999 30.4003 95.4558 30.2823 95.3775 30.1952C95.2991 30.1082 95.1929 30.0592 95.0821 30.0591L46.4817 30.0591Z" fill="#E6E6E6"/>
<path d="M47.111 45.6616H94.4528V31.2229H47.111V45.6616Z" fill="white"/>
<path d="M88.4771 42.6663C88.2935 42.6663 88.1174 42.7473 87.9876 42.8915C87.8578 43.0358 87.7849 43.2314 87.7849 43.4354C87.7849 43.6394 87.8578 43.8351 87.9876 43.9793C88.1174 44.1236 88.2935 44.2046 88.4771 44.2046H91.246C91.4296 44.2046 91.6056 44.1236 91.7354 43.9793C91.8653 43.8351 91.9382 43.6394 91.9382 43.4354C91.9382 43.2314 91.8653 43.0358 91.7354 42.8915C91.6056 42.7473 91.4296 42.6663 91.246 42.6663H88.4771Z" fill="#4B93E7"/>
<path d="M91.9382 41.1743H59.9745V41.3767H91.9382V41.1743Z" fill="#E6E6E6"/>
<path d="M53.2931 42.9222C55.5199 42.9222 57.325 40.9164 57.325 38.4422C57.325 35.9679 55.5199 33.9622 53.2931 33.9622C51.0664 33.9622 49.2613 35.9679 49.2613 38.4422C49.2613 40.9164 51.0664 42.9222 53.2931 42.9222Z" fill="#4B93E7"/>
<path d="M60.0251 40.0443L59.924 39.8759L63.2455 37.4154L65.5232 38.6303L68.7992 36.3046L68.8436 36.3255L75.3162 39.3935L80.5061 36.5608L85.5456 38.8308L91.8779 32.5989L91.9986 32.7505L85.5818 39.0656L80.5132 36.7824L75.3216 39.6161L68.8164 36.5326L65.5358 38.8615L63.2603 37.6478L60.0251 40.0443Z" fill="#3F3D56"/>
<path d="M60.5665 42.772C60.4095 42.772 60.2589 42.8413 60.1479 42.9646C60.0369 43.088 59.9745 43.2552 59.9745 43.4297C59.9745 43.6041 60.0369 43.7714 60.1479 43.8948C60.2589 44.0181 60.4095 44.0874 60.5665 44.0874H66.7589C66.9158 44.0874 67.0664 44.0181 67.1774 43.8948C67.2884 43.7714 67.3508 43.6041 67.3508 43.4297C67.3508 43.2552 67.2884 43.088 67.1774 42.9646C67.0664 42.8413 66.9158 42.772 66.7589 42.772H60.5665Z" fill="#E6E6E6"/>
<path d="M53.2927 41.3949L54.9249 38.8408L53.2927 39.9116L51.6615 38.8408L53.2926 41.3949H53.2927Z" fill="white"/>
<path d="M53.2926 39.5683H53.2927L54.9239 38.4969L53.2927 35.4895H53.2926L51.6615 38.4969L53.2926 39.5683Z" fill="white"/>
</g>
<defs>
<clipPath id="clip0_1_3179">
<rect width="95" height="73" fill="white" transform="translate(0.5)"/>
</clipPath>
</defs>
</svg>
