<svg width="95" height="73" viewBox="0 0 95 73" fill="none" xmlns="http://www.w3.org/2000/svg">
<g clip-path="url(#clip0_1_3237)">
<path d="M93.721 24.9773C93.8325 25.3736 93.937 25.7719 94.0345 26.1723H60.8672V24.9773H93.721Z" fill="#E6E6E6"/>
<path d="M92.6638 21.8273C92.1299 20.4555 91.5072 19.1136 90.7992 17.8086C90.5814 17.4063 90.3551 17.0079 90.1205 16.6136C90.082 16.546 90.0408 16.4783 89.9996 16.4106V25.3035H92.8657V22.3565L92.6638 21.8273Z" fill="#E6E6E6"/>
<path d="M90.7992 17.8087H89.9996V16.6138H90.1205C90.3556 17.0077 90.5818 17.406 90.7992 17.8087Z" fill="#CCCCCC"/>
<path d="M92.6638 21.8274H89.9996V23.0224H92.8657V22.3566L92.6638 21.8274Z" fill="#CCCCCC"/>
<path d="M88.4477 14.9846H85.5822V25.3037H88.4477V14.9846Z" fill="#E6E6E6"/>
<path d="M88.4477 16.614H85.5822V17.8089H88.4477V16.614Z" fill="#CCCCCC"/>
<path d="M88.4477 21.8279H85.5822V23.0227H88.4477V21.8279Z" fill="#CCCCCC"/>
<path d="M75.3797 14.9246H65.1C64.9416 14.9248 64.7897 14.9821 64.6777 15.0841C64.5657 15.186 64.5026 15.3241 64.5024 15.4683V24.8203C64.5026 24.8735 64.5111 24.9264 64.5276 24.9774C64.5649 25.0891 64.6406 25.187 64.7437 25.2566C64.8468 25.3262 64.9717 25.3639 65.1 25.364H75.3797C75.508 25.3639 75.633 25.3262 75.736 25.2566C75.8391 25.187 75.9148 25.0891 75.9521 24.9774C75.9687 24.9264 75.9772 24.8735 75.9773 24.8203V15.4683C75.9771 15.3241 75.914 15.186 75.802 15.0841C75.69 14.9821 75.5381 14.9248 75.3797 14.9246Z" fill="#E6E6E6"/>
<path d="M74.6492 15.5891H65.8305C65.6721 15.5893 65.5202 15.6467 65.4082 15.7486C65.2961 15.8505 65.2331 15.9887 65.2328 16.1328V24.1557C65.2331 24.2999 65.2961 24.438 65.4082 24.54C65.5202 24.6419 65.6721 24.6992 65.8305 24.6995H74.6492C74.8077 24.6992 74.9595 24.6419 75.0716 24.54C75.1836 24.438 75.2466 24.2999 75.2469 24.1557V16.1328C75.2466 15.9887 75.1836 15.8505 75.0716 15.7486C74.9595 15.6467 74.8077 15.5893 74.6492 15.5891Z" fill="white"/>
<path d="M73.1113 16.9883H67.3685C67.21 16.9885 67.0582 17.0459 66.9461 17.1478C66.8341 17.2497 66.7711 17.3879 66.7708 17.532V22.7566C66.7711 22.9007 66.8341 23.0389 66.9461 23.1408C67.0582 23.2427 67.21 23.3001 67.3685 23.3003H73.1113C73.2695 23.2995 73.4211 23.242 73.533 23.1402C73.6449 23.0384 73.7081 22.9005 73.7089 22.7566V17.532C73.7087 17.3879 73.6457 17.2497 73.5336 17.1478C73.4216 17.0459 73.2697 16.9885 73.1113 16.9883Z" fill="#CCCCCC"/>
<path d="M72.7572 21.8351L71.5442 19.9237C71.5209 19.887 71.4874 19.8565 71.447 19.8353C71.4066 19.8141 71.3608 19.8029 71.3142 19.8029C71.2675 19.8029 71.2217 19.8141 71.1813 19.8353C71.141 19.8565 71.1074 19.887 71.0841 19.9237L70.1984 21.3194L69.0368 19.4892C69.0135 19.4525 68.98 19.422 68.9396 19.4008C68.8992 19.3796 68.8534 19.3684 68.8068 19.3684C68.7601 19.3684 68.7143 19.3796 68.674 19.4008C68.6336 19.422 68.6001 19.4525 68.5768 19.4892L67.3637 21.4006L65.9208 23.6744H68.7039L68.4281 24.1089H74.2003L72.7572 21.8351Z" fill="white"/>
<path d="M72.3291 18.895C72.7906 18.895 73.1648 18.5546 73.1648 18.1346C73.1648 17.7147 72.7906 17.3743 72.3291 17.3743C71.8675 17.3743 71.4933 17.7147 71.4933 18.1346C71.4933 18.5546 71.8675 18.895 72.3291 18.895Z" fill="white"/>
<path d="M94.9895 33.4207C94.9801 32.9519 94.9597 32.4855 94.9283 32.0215C94.9151 31.7992 94.8991 31.578 94.8792 31.3569H89.2719C89.1134 31.3572 88.9615 31.4145 88.8495 31.5164C88.7375 31.6183 88.6744 31.7565 88.6742 31.9007V41.2527C88.6739 41.2954 88.6797 41.3381 88.6915 41.3795C88.7228 41.4981 88.7971 41.6037 88.9024 41.6793C89.0076 41.7549 89.1378 41.7961 89.2719 41.7964H94.4409C94.4675 41.6586 94.4927 41.5185 94.5153 41.3795C94.5299 41.2974 94.5445 41.214 94.5578 41.1318C94.5897 40.9349 94.6202 40.7379 94.6481 40.541C94.688 40.2728 94.7238 40.0033 94.7557 39.7327C94.8725 38.7624 94.9478 37.7817 94.9815 36.7905V36.7893C94.9934 36.416 94.9996 36.041 95 35.6644V34.2145C95 33.9487 94.9974 33.6841 94.9895 33.4207Z" fill="#E6E6E6"/>
<path d="M94.9895 33.4207C94.9801 32.9519 94.9597 32.4855 94.9283 32.0215H90.0023C89.8439 32.0217 89.692 32.0791 89.58 32.181C89.4679 32.2829 89.4049 32.4211 89.4047 32.5652V40.5881C89.4049 40.7322 89.4679 40.8704 89.58 40.9723C89.692 41.0743 89.8439 41.1316 90.0023 41.1318H94.5578C94.5897 40.9349 94.6202 40.7379 94.6481 40.541C94.688 40.2728 94.7238 40.0033 94.7557 39.7327C94.8725 38.7624 94.9478 37.7817 94.9815 36.7905V36.7893C94.9934 36.416 94.9996 36.041 95 35.6644V34.2145C95 33.9487 94.9974 33.6841 94.9895 33.4207Z" fill="white"/>
<path d="M94.9894 33.4207H91.5403C91.3818 33.4209 91.23 33.4782 91.1179 33.5801C91.0059 33.6821 90.9429 33.8202 90.9426 33.9644V39.1889C90.9429 39.3331 91.0059 39.4712 91.1179 39.5732C91.23 39.6751 91.3818 39.7324 91.5403 39.7327H94.7557C94.8725 38.7624 94.9478 37.7817 94.9815 36.7905V36.7893C94.9934 36.416 94.9996 36.041 95 35.6644V34.2145C95 33.9487 94.9974 33.6841 94.9894 33.4207Z" fill="#CCCCCC"/>
<path d="M94.9815 36.7905C94.9483 37.7813 94.873 38.762 94.7557 39.7326C94.7238 40.0033 94.688 40.2727 94.6481 40.5409H92.6001L92.8764 40.1072H90.0927L90.9426 38.7672L91.535 37.8332L92.7489 35.9217C92.772 35.8848 92.8054 35.8542 92.8458 35.8329C92.8862 35.8115 92.932 35.8003 92.9787 35.8003C93.0253 35.8003 93.0712 35.8115 93.1115 35.8329C93.1519 35.8542 93.1853 35.8848 93.2084 35.9217L94.3705 37.7523L94.9815 36.7905Z" fill="white"/>
<path d="M84.9182 9.77139H60.8672V8.57642H83.7256C84.132 8.96669 84.5296 9.36501 84.9182 9.77139Z" fill="#E6E6E6"/>
<path d="M73.6425 1.48364C74.6227 1.9742 75.578 2.4998 76.5086 3.06043V8.90121H73.6425V1.48364Z" fill="#E6E6E6"/>
<path d="M76.508 5.42578H73.6425V6.62063H76.508V5.42578Z" fill="#CCCCCC"/>
<path d="M80.9259 6.12965V8.90142H78.0598V4.04297C78.7279 4.48641 79.3809 4.94756 80.0188 5.42644C80.3242 5.65601 80.6266 5.89041 80.9259 6.12965Z" fill="#E6E6E6"/>
<path d="M80.9259 6.12948V6.62004H78.0598V5.42627H80.0188C80.3242 5.65584 80.6266 5.89025 80.9259 6.12948Z" fill="#CCCCCC"/>
<path d="M70.7166 0.152243C71.475 0.462761 72.2205 0.793827 72.9532 1.14544L72.3635 2.22805L70.4045 5.8299L69.8215 6.90043L68.9091 8.5763L68.7085 8.94482L67.8917 8.5763L66.1412 7.7873L67.2529 5.74291H67.2543L67.836 4.67238L69.7963 1.07053L70.3727 0.0120834L70.3793 0L70.7166 0.152243Z" fill="#E6E6E6"/>
<path d="M72.9466 1.15631L72.3635 2.22805L69.7963 1.07053L70.3727 0.0120827L70.3793 0L70.7167 0.152242L72.9466 1.15631Z" fill="#CCCCCC"/>
<path d="M67.836 4.67261L67.2533 5.74341L69.8213 6.90008L70.404 5.82928L67.836 4.67261Z" fill="#CCCCCC"/>
<path d="M94.5152 41.3796C94.4926 41.5186 94.4674 41.6587 94.4408 41.7965C94.3944 42.0575 94.3439 42.316 94.2895 42.5746H60.8672V41.3796H94.5152Z" fill="#E6E6E6"/>
<path d="M76.508 31.3865H73.6425V41.7056H76.508V31.3865Z" fill="#E6E6E6"/>
<path d="M76.508 33.0159H73.6425V34.2107H76.508V33.0159Z" fill="#CCCCCC"/>
<path d="M76.508 38.2297H73.6425V39.4246H76.508V38.2297Z" fill="#CCCCCC"/>
<path d="M80.9256 31.3865H78.0601V41.7056H80.9256V31.3865Z" fill="#E6E6E6"/>
<path d="M80.9256 33.0159H78.0601V34.2107H80.9256V33.0159Z" fill="#CCCCCC"/>
<path d="M80.9256 38.2297H78.0601V39.4246H80.9256V38.2297Z" fill="#CCCCCC"/>
<path d="M71.1735 31.3438L66.1408 40.5916L68.7088 41.7482L73.7415 32.5004L71.1735 31.3438Z" fill="#E6E6E6"/>
<path d="M70.3788 32.804L69.7961 33.8748L72.3641 35.0314L72.9468 33.9606L70.3788 32.804Z" fill="#CCCCCC"/>
<path d="M67.836 37.4766L67.2533 38.5474L69.8213 39.704L70.404 38.6332L67.836 37.4766Z" fill="#CCCCCC"/>
<path d="M38.8872 45.9845C39.0069 46.0472 39.1211 46.1183 39.2285 46.1974L51.0526 42.8497L51.7194 40.1809L56.2782 40.5699L55.6025 45.3989C55.5479 45.7891 55.3557 46.1525 55.0547 46.4348C54.7537 46.7171 54.3602 46.9029 53.9333 46.9644L40.0181 48.9687C39.8151 49.4163 39.4671 49.7971 39.0204 50.0605C38.5737 50.3238 38.0495 50.4571 37.5174 50.4428C36.9854 50.4284 36.4708 50.267 36.042 49.9801C35.6132 49.6932 35.2906 49.2943 35.1171 48.8365C34.9437 48.3787 34.9275 47.8837 35.0708 47.4173C35.214 46.951 35.51 46.5353 35.9192 46.2257C36.3285 45.9161 36.8317 45.7272 37.3619 45.6841C37.892 45.641 38.424 45.7458 38.8872 45.9845Z" fill="#FFB8B8"/>
<path d="M58.385 42.1709L58.3067 40.953V40.9518L58.2854 40.6183L58.0543 37.0321C58.1235 36.2845 57.8642 35.5425 57.3332 34.9684C56.8023 34.3943 56.0429 34.035 55.2214 33.9692C54.9851 33.9499 54.7471 33.9556 54.5122 33.9861C53.8144 34.0759 53.1704 34.3775 52.6846 34.842C52.1989 35.3065 51.8998 35.9067 51.836 36.5452L51.3566 38.36L50.5185 41.5342C50.4592 41.7562 50.4838 41.99 50.5883 42.1978C50.6929 42.4057 50.8714 42.5754 51.095 42.6796C51.2241 42.7414 51.3654 42.7792 51.5107 42.7908L52.9079 42.9043L54.2532 43.0131L55.8058 43.1387L55.9174 43.1472L56.2042 43.1714L57.1645 43.2487H57.1671C57.3275 43.2605 57.4888 43.2411 57.6404 43.192C57.7919 43.1428 57.9303 43.0649 58.0463 42.9635C58.1309 42.8886 58.2021 42.8022 58.2575 42.7074C58.3544 42.5429 58.3985 42.3571 58.385 42.1709Z" fill="#4B93E7"/>
<path d="M71.3602 27.4025C71.3602 31.5379 67.1571 30.9124 61.9724 30.9124C56.7876 30.9124 52.5845 31.5379 52.5845 27.4025C52.5845 23.2672 54.6376 15.937 61.9724 15.937C69.5598 15.937 71.3602 23.2672 71.3602 27.4025Z" fill="#082777"/>
<path d="M66.4078 29.2222C68.8748 26.9779 68.8748 23.339 66.4078 21.0947C63.9408 18.8503 59.9411 18.8503 57.4741 21.0947C55.0071 23.339 55.0071 26.9779 57.4741 29.2222C59.9411 31.4666 63.9408 31.4666 66.4078 29.2222Z" fill="#FFB8B8"/>
<path d="M70.8335 33.3216C70.7119 33.215 70.5828 33.1157 70.4471 33.0243C69.5882 32.434 68.5089 32.1741 67.4415 32.3006L55.8005 33.6405C54.7342 33.761 53.7614 34.2545 53.0883 35.0164C52.4151 35.7783 52.0946 36.7488 52.1947 37.7221C52.2279 38.0604 52.2651 38.4168 52.3062 38.7878C52.3594 39.253 52.4191 39.7411 52.4882 40.2462C52.6024 41.0956 52.7419 41.9921 52.9079 42.9043C53.0526 43.6897 53.2173 44.486 53.4059 45.2725C53.4604 45.4997 53.5171 45.7261 53.5759 45.9516C53.5758 45.9523 53.5759 45.9529 53.5761 45.9536C53.5764 45.9542 53.5767 45.9548 53.5773 45.9552C53.5839 45.983 53.5905 46.0108 53.5985 46.0374C53.5981 46.0395 53.5986 46.0416 53.5998 46.0434C53.6822 46.3576 53.7685 46.6681 53.8588 46.975C53.8933 47.0886 53.9265 47.2009 53.961 47.3121C54.054 47.6142 54.1523 47.9102 54.2533 48.2014C55.0116 50.3678 56.0143 52.2128 57.3385 53.194C57.3557 53.2085 57.373 53.2205 57.3916 53.2338L57.4448 53.2713L57.5218 53.2495L57.8485 53.1613L58.1274 53.084L61.7612 52.0896L62.6656 51.8419L65.5715 51.0457H65.5728L68.2304 50.3183L68.5545 50.2289L70.8375 49.6042L70.9106 48.8285L71.0089 47.799L71.0673 47.1804L71.5295 42.3014L71.7991 39.4547L72.0913 36.364C72.1456 35.8035 72.0607 35.2391 71.843 34.7125C71.6253 34.1859 71.2803 33.7106 70.8335 33.3216Z" fill="#082777"/>
<path d="M77.3426 56.93C77.3121 56.8491 77.2828 56.7681 77.2523 56.6884C75.887 53.0636 73.8736 50.322 70.9105 48.8286C70.9092 48.8286 70.9092 48.8274 70.9079 48.8274L70.8574 48.802L68.2755 49.6152L67.9568 49.7155L67.6248 49.8206L67.6208 49.8218L65.2036 50.583L65.1996 50.5842L63.3031 51.1811H63.3017L61.5473 51.7333H61.546L61.1382 51.8626L58.0716 52.828L57.7156 52.9403L57.3969 53.0406L57.3477 53.0563L57.3384 53.1941L57.1193 56.6884L57.1047 56.93L56.8311 61.2907L47.7454 73H53.961C56.0437 73.0004 58.1234 72.8562 60.182 72.5687L66.0137 66.8511C66.0626 66.8051 66.1244 66.7721 66.1923 66.7556C66.2603 66.7392 66.332 66.74 66.3995 66.7579C66.4671 66.7758 66.5279 66.8102 66.5756 66.8573C66.6232 66.9044 66.6558 66.9624 66.6699 67.0251L67.5265 70.8916C71.7467 69.5339 75.6946 67.5577 79.2139 65.0411C78.8049 62.0386 78.2072 59.3019 77.3426 56.93Z" fill="#082777"/>
<path d="M54.6422 24.5947H57.1407L58.243 21.7868L58.4634 24.5947H59.6576L60.3006 22.9568L60.4292 24.5947H69.3026C69.3026 23.7958 69.1296 23.0047 68.7936 22.2666C68.4575 21.5285 67.9649 20.8578 67.344 20.2929C66.723 19.7279 65.9858 19.2798 65.1745 18.9741C64.3631 18.6683 63.4936 18.511 62.6154 18.511H61.3294C59.5558 18.511 57.8549 19.152 56.6008 20.2929C55.3467 21.4338 54.6422 22.9812 54.6422 24.5947Z" fill="#082777"/>
<path d="M39.2738 55.0436C38.8659 55.1995 38.4254 55.2722 37.9832 55.2564C37.5411 55.2407 37.1082 55.137 36.7149 54.9526C36.3216 54.7682 35.9775 54.5075 35.7069 54.1891C35.4364 53.8706 35.2458 53.502 35.1487 53.1093L24.4619 52.0082L28.0443 48.1055L37.6434 49.7494C38.3794 49.6448 39.132 49.7894 39.7587 50.1558C40.3853 50.5223 40.8424 51.0851 41.0434 51.7377C41.2443 52.3903 41.1752 53.0873 40.849 53.6965C40.5229 54.3058 39.9624 54.7851 39.2738 55.0436Z" fill="#A0616A"/>
<path d="M33.512 47.8197L28.995 47.085L28.667 47.0319C28.4049 46.9893 28.1556 46.8967 27.9356 46.7602C27.7156 46.6238 27.5298 46.4465 27.3904 46.24C27.2511 46.0336 27.1613 45.8027 27.127 45.5624C27.0927 45.3222 27.1147 45.0781 27.1915 44.8461L29.4094 38.1414L29.4758 37.9421C29.7527 37.0899 29.7034 36.1774 29.336 35.354C28.9685 34.5307 28.3046 33.8452 27.4531 33.4098C26.8767 33.1186 26.2342 32.9523 25.5756 32.9238C24.9171 32.8953 24.2601 33.0054 23.6559 33.2455C23.0518 33.4857 22.5166 33.8493 22.0921 34.3083C21.6675 34.7672 21.3651 35.309 21.2083 35.8916L18.3794 46.3951L18.2745 46.7842C18.0769 47.5171 18.0553 48.2801 18.2113 49.0213C18.3673 49.7624 18.6971 50.4643 19.1782 51.079C19.6594 51.6937 20.2806 52.2067 20.9994 52.5832C21.7183 52.9597 22.518 53.1907 23.3439 53.2605C23.3532 53.2617 23.3611 53.2617 23.3705 53.2629L25.0638 53.3995L27.2605 53.5771L30.023 53.8006L32.6009 54.0096C32.9386 54.0375 33.2754 53.9488 33.5446 53.7613C33.8137 53.5737 33.9955 53.3009 34.0539 52.9971C34.0579 52.9802 34.0605 52.9633 34.0632 52.9464L34.6104 49.2297L34.6157 49.1959C34.6629 48.8812 34.5743 48.5621 34.3685 48.3055C34.1628 48.049 33.8558 47.8748 33.512 47.8197Z" fill="#CCCCCC"/>
<path d="M26.5528 19.6588C24.7497 22.884 23.3286 26.2105 19.3512 26.2105C17.4412 26.2105 15.6095 25.5202 14.2589 24.2915C12.9083 23.0629 12.1496 21.3964 12.1496 19.6588C12.1496 16.0403 15.3742 13.1523 19.3512 13.107C23.3933 13.061 29.909 13.6557 26.5528 19.6588Z" fill="#082777"/>
<path d="M31.0762 61.8512L30.9128 60.3674L30.7906 60.3735L9.31622 61.3147L9.37199 62.8166L9.46635 65.389C12.7892 67.6918 16.4792 69.5192 20.4087 70.8081L20.5482 69.8246C20.5604 69.7444 20.6026 69.6706 20.6678 69.6155C20.733 69.5605 20.8171 69.5276 20.9058 69.5225C20.9946 69.5173 21.0826 69.5403 21.1549 69.5874C21.2271 69.6345 21.2793 69.703 21.3025 69.7811L21.7262 71.2177C25.1492 72.222 28.7039 72.8075 32.2967 72.9588L31.0762 61.8512Z" fill="#082777"/>
<path d="M24.1725 24.6548C26.6395 22.4105 26.6395 18.7717 24.1725 16.5273C21.7056 14.2829 17.7058 14.2829 15.2388 16.5273C12.7718 18.7716 12.7718 22.4105 15.2388 24.6548C17.7058 26.8992 21.7056 26.8992 24.1725 24.6548Z" fill="#A0616A"/>
<path d="M32.31 60.468L31.0576 56.9301L31.0363 56.8697L30.9726 56.6885L30.6153 55.6808C30.4998 55.3533 30.3895 55.0247 30.2872 54.6948C30.193 54.3976 30.1049 54.0996 30.023 53.8007C29.9061 53.3851 29.7999 52.9678 29.7042 52.549C29.3801 51.1414 29.164 49.715 29.0574 48.2801C29.0282 47.8826 29.0074 47.4843 28.995 47.0852C28.9172 44.6387 29.1593 42.1925 29.7162 39.7981C30.201 37.7275 29.942 35.57 28.9775 33.6434C28.013 31.7167 26.3938 30.1228 24.3586 29.0965C23.023 28.4249 21.5448 28.0216 20.0235 27.9136C19.9186 27.9063 19.8137 27.9003 19.7075 27.8942C18.1005 27.8018 16.4911 28.039 14.9984 28.5882C13.5056 29.1373 12.1674 29.9845 11.0826 31.0671C10.5017 31.6429 9.99703 32.2788 9.57917 32.9617C8.41979 34.8621 7.98455 37.0582 8.34139 39.2073L9.83416 48.3261L9.49422 52.1647L9.09313 56.6885L9.07186 56.9301L8.64418 61.7536C8.62392 61.9784 8.68375 62.2032 8.81483 62.3947C8.94591 62.5862 9.14126 62.7342 9.37198 62.8168C9.50712 62.8661 9.65144 62.8911 9.79701 62.8905C9.81828 62.8905 9.83819 62.8905 9.85946 62.8893L31.0762 61.8514L31.2701 61.8418C31.4471 61.8334 31.6196 61.7881 31.7743 61.7094C31.9289 61.6308 32.0617 61.5208 32.1622 61.388C32.2627 61.2552 32.3283 61.1032 32.3539 60.9437C32.3796 60.7841 32.3646 60.6214 32.31 60.468Z" fill="#CCCCCC"/>
<path d="M26.4091 17.3431C24.9655 18.2483 23.2522 18.73 21.499 18.7237C22.1243 19.1182 22.8363 19.3846 23.5858 19.5047C21.2548 19.9596 18.8457 19.9719 16.5092 19.5409C15.9898 19.4651 15.4887 19.3085 15.0277 19.078C14.5791 18.8302 14.2038 18.4357 14.1133 17.9654C13.9581 17.1585 14.6492 16.4254 15.3675 15.9313C16.4671 15.1864 17.7351 14.6732 19.0795 14.4288C20.424 14.1844 21.8113 14.2149 23.1412 14.5181C24.0096 14.7223 24.8795 15.0674 25.4436 15.7018C26.0076 16.3362 26.1747 17.3143 25.6373 17.9676L26.4091 17.3431Z" fill="#082777"/>
<path d="M26.7321 53.8481C26.328 54.012 25.8893 54.0933 25.4469 54.0863C25.0045 54.0793 24.5692 53.9841 24.1716 53.8075C23.774 53.6309 23.4239 53.3771 23.1457 53.0641C22.8676 52.751 22.6684 52.3863 22.5619 51.9955L11.8514 51.1052L15.3401 47.1328L24.9761 48.5873C25.7094 48.4682 26.4653 48.5979 27.1005 48.9519C27.7357 49.306 28.2061 49.8597 28.4226 50.5081C28.639 51.1566 28.5865 51.8548 28.2749 52.4704C27.9634 53.0859 27.4144 53.5761 26.7321 53.8481Z" fill="#A0616A"/>
<path d="M20.8006 46.7395L18.3794 46.3951L15.937 46.0472C15.6739 46.0098 15.4225 45.9222 15.1993 45.7901C14.9762 45.6581 14.7862 45.4846 14.6419 45.281C14.4977 45.0774 14.4024 44.8484 14.3624 44.6089C14.3223 44.3695 14.3384 44.125 14.4096 43.8916L16.5293 36.9441C16.7858 36.0866 16.7147 35.1754 16.3277 34.3595C15.9407 33.5436 15.2607 32.8714 14.399 32.4529C13.8169 32.1704 13.1704 32.0151 12.5109 31.9994C11.8513 31.9836 11.1968 32.1079 10.5993 32.3623C9.99984 32.6127 9.47251 32.9863 9.05881 33.4536C8.64511 33.921 8.35634 34.4694 8.21525 35.0555L5.54176 46.0037C5.36166 46.7422 5.35906 47.5074 5.53412 48.2469C5.70919 48.9864 6.0578 49.6827 6.5561 50.2883C7.05439 50.8939 7.69062 51.3944 8.42122 51.7556C9.15183 52.1167 9.95958 52.33 10.7892 52.3809L20.0369 52.9452C20.375 52.9662 20.7095 52.8709 20.9742 52.6783C21.2388 52.4856 21.4143 52.2096 21.4659 51.9049C21.4699 51.8879 21.4712 51.871 21.4739 51.8541L21.9321 48.1278L21.9361 48.094C21.9756 47.7785 21.8794 47.4614 21.6678 47.2089C21.4562 46.9565 21.1454 46.7883 20.8006 46.7395Z" fill="#CCCCCC"/>
<path d="M61.77 40.964L61.2158 41.2391L54.3877 44.6285L53.8335 44.9036C53.5645 45.0374 53.365 45.2629 53.2785 45.5304C53.192 45.798 53.2258 46.0858 53.3723 46.3308L58.457 54.8089C58.6041 55.0536 58.8519 55.2351 59.146 55.3138C59.4401 55.3925 59.7565 55.3618 60.0258 55.2285L60.0272 55.2278L67.9609 51.2896L67.9623 51.2889C68.2312 51.1551 68.4308 50.9296 68.5172 50.6621C68.6037 50.3945 68.57 50.1067 68.4235 49.8617L63.3387 41.3836C63.1916 41.1389 62.9438 40.9573 62.6497 40.8787C62.3556 40.8 62.0393 40.8307 61.77 40.964Z" fill="#E6E6E6"/>
<path d="M61.9294 41.2296L61.273 41.5555L54.6493 44.8434L53.9929 45.1692C53.8014 45.2645 53.6592 45.425 53.5977 45.6156C53.5361 45.8061 53.5601 46.0111 53.6645 46.1855L58.7492 54.6637C58.854 54.8379 59.0304 54.9672 59.2398 55.0232C59.4493 55.0792 59.6746 55.0574 59.8663 54.9625L59.8678 54.9617L67.8014 51.0236L67.8029 51.0229C67.9944 50.9276 68.1365 50.767 68.1981 50.5765C68.2596 50.386 68.2356 50.181 68.1313 50.0066L63.0465 41.5284C62.9418 41.3542 62.7653 41.2249 62.5559 41.1689C62.3465 41.1129 62.1212 41.1347 61.9294 41.2296Z" fill="white"/>
<path d="M62.1158 43.6234C62.0911 43.5827 62.0498 43.5525 62.0008 43.5394C61.9518 43.5263 61.8991 43.5313 61.8541 43.5533L61.5898 43.685L58.8951 45.0226C58.8505 45.045 58.8174 45.0826 58.8032 45.1271C58.7889 45.1716 58.7946 45.2194 58.819 45.2601C58.8434 45.3008 58.8845 45.3311 58.9333 45.3443C58.9821 45.3575 59.0347 45.3526 59.0796 45.3307L62.0387 43.8614C62.0834 43.839 62.1166 43.8014 62.131 43.7568C62.1454 43.7123 62.14 43.6643 62.1158 43.6234Z" fill="#E6E6E6"/>
<path d="M63.1238 43.7961C63.1117 43.7759 63.0954 43.7581 63.0758 43.7437C63.0562 43.7293 63.0336 43.7186 63.0094 43.7122C62.9852 43.7058 62.9598 43.7038 62.9348 43.7064C62.9097 43.709 62.8855 43.7161 62.8634 43.7272L59.2071 45.542C59.1849 45.5531 59.1654 45.568 59.1496 45.5859C59.1337 45.6038 59.1219 45.6243 59.1149 45.6464C59.1078 45.6684 59.1055 45.6915 59.1082 45.7144C59.111 45.7372 59.1186 45.7593 59.1307 45.7795C59.1428 45.7996 59.1592 45.8174 59.1789 45.8318C59.1986 45.8462 59.2212 45.8569 59.2454 45.8634C59.2696 45.8698 59.295 45.8719 59.3201 45.8694C59.3452 45.8669 59.3696 45.86 59.3917 45.8489L59.5617 45.7644L60.6255 45.2363H60.6269L63.0467 44.0341C63.0691 44.0232 63.0889 44.0084 63.1049 43.9905C63.121 43.9726 63.1329 43.952 63.1401 43.9298C63.1473 43.9076 63.1495 43.8844 63.1467 43.8614C63.1439 43.8385 63.1361 43.8163 63.1238 43.7961Z" fill="#E6E6E6"/>
<path d="M59.15 46.6887L57.9892 44.7519C57.9771 44.7324 57.9571 44.7181 57.9335 44.712C57.9099 44.7059 57.8846 44.7085 57.8631 44.7193L57.2999 44.9984L57.0078 45.1433L55.4393 45.9215L55.1351 46.0725C55.1137 46.0835 55.098 46.1017 55.0913 46.1232C55.0845 46.1447 55.0874 46.1677 55.0993 46.1873L55.1736 46.3117L56.26 48.1242C56.2718 48.1435 56.2916 48.1578 56.315 48.1639C56.3384 48.17 56.3635 48.1675 56.3848 48.1568L58.2575 47.2276L58.5497 47.0826L59.1128 46.8035C59.1236 46.7982 59.1331 46.7911 59.1408 46.7824C59.1485 46.7738 59.1543 46.7639 59.1577 46.7532C59.1612 46.7425 59.1623 46.7313 59.161 46.7203C59.1596 46.7092 59.1559 46.6985 59.15 46.6887Z" fill="#E6E6E6"/>
<path d="M63.5833 46.0809C63.5589 46.0403 63.5179 46.0101 63.4691 45.9969C63.4203 45.9838 63.3677 45.9888 63.323 46.0108L59.3094 48.0033C59.274 48.0209 59.2455 48.0483 59.2281 48.0815C59.2107 48.1147 59.2052 48.152 59.2124 48.1881C59.2153 48.2069 59.222 48.2249 59.2324 48.2413C59.2425 48.258 59.2555 48.2731 59.2709 48.286L59.2722 48.2872C59.302 48.3115 59.3392 48.3269 59.3789 48.3312C59.4186 48.3355 59.4588 48.3286 59.494 48.3114L63.5076 46.319C63.5298 46.3079 63.5494 46.2929 63.5652 46.275C63.581 46.257 63.5928 46.2364 63.5998 46.2142C63.6068 46.1921 63.609 46.169 63.6062 46.1461C63.6033 46.1232 63.5956 46.1011 63.5833 46.0809Z" fill="#E6E6E6"/>
<path d="M64.5927 46.2537C64.5805 46.2336 64.564 46.2158 64.5443 46.2014C64.5245 46.1871 64.5018 46.1764 64.4775 46.17C64.4532 46.1636 64.4278 46.1616 64.4026 46.1642C64.3775 46.1667 64.3532 46.1738 64.331 46.1849L59.6202 48.5229C59.5848 48.5399 59.5562 48.5668 59.5388 48.5996C59.5214 48.6324 59.5159 48.6695 59.5233 48.7053V48.7065C59.5261 48.7253 59.5328 48.7433 59.5432 48.7597C59.5534 48.777 59.5669 48.7925 59.583 48.8056C59.6124 48.8304 59.6497 48.8462 59.6896 48.8505C59.7294 48.8548 59.7697 48.8476 59.8048 48.8298L64.5157 46.4918C64.5604 46.4694 64.5937 46.4318 64.6081 46.3872C64.6226 46.3426 64.617 46.2946 64.5927 46.2537Z" fill="#E6E6E6"/>
<path d="M57.9651 49.9428C58.4162 49.9428 58.782 49.6101 58.782 49.1997C58.782 48.7893 58.4162 48.4565 57.9651 48.4565C57.514 48.4565 57.1483 48.7893 57.1483 49.1997C57.1483 49.6101 57.514 49.9428 57.9651 49.9428Z" fill="#E6E6E6"/>
<path d="M64.1606 37.7016L63.6064 37.9767L56.7783 41.366L56.2241 41.6411C55.9552 41.775 55.7556 42.0004 55.6691 42.268C55.5827 42.5355 55.6164 42.8233 55.7629 43.0683L60.8476 51.5465C60.9948 51.7911 61.2426 51.9727 61.5367 52.0513C61.8307 52.13 62.1471 52.0993 62.4164 51.966L62.4178 51.9653L70.3515 48.0272L70.3529 48.0265C70.6218 47.8926 70.8214 47.6672 70.9079 47.3996C70.9943 47.1321 70.9606 46.8442 70.8141 46.5993L65.7294 38.1211C65.5822 37.8765 65.3345 37.6949 65.0404 37.6162C64.7463 37.5376 64.4299 37.5683 64.1606 37.7016Z" fill="#CCCCCC"/>
<path d="M64.32 37.9674L63.6636 38.2933L57.0399 41.5812L56.3835 41.907C56.192 42.0023 56.0499 42.1628 55.9883 42.3534C55.9267 42.5439 55.9508 42.7489 56.0551 42.9233L61.1398 51.4015C61.2446 51.5757 61.421 51.705 61.6305 51.761C61.8399 51.817 62.0652 51.7952 62.2569 51.7002L62.2584 51.6995L70.192 47.7614L70.1935 47.7607C70.385 47.6654 70.5271 47.5048 70.5887 47.3143C70.6502 47.1238 70.6262 46.9188 70.5219 46.7444L65.4372 38.2662C65.3324 38.092 65.1559 37.9627 64.9465 37.9067C64.7371 37.8507 64.5118 37.8725 64.32 37.9674Z" fill="white"/>
<path d="M64.5064 40.361C64.4817 40.3203 64.4404 40.2901 64.3914 40.277C64.3424 40.2638 64.2897 40.2688 64.2447 40.2909L62.8821 40.9675L62.5022 41.156L61.2857 41.7601C61.2411 41.7825 61.2081 41.8201 61.1938 41.8646C61.1795 41.9091 61.1852 41.9569 61.2096 41.9976C61.234 42.0384 61.2751 42.0686 61.3239 42.0818C61.3728 42.0951 61.4254 42.0902 61.4702 42.0682L62.9047 41.3566L63.2048 41.2067L64.4293 40.599C64.4741 40.5765 64.5072 40.5389 64.5216 40.4944C64.5361 40.4498 64.5306 40.4019 64.5064 40.361Z" fill="#CCCCCC"/>
<path d="M65.5144 40.5339C65.5024 40.5137 65.4861 40.4959 65.4664 40.4815C65.4468 40.4671 65.4242 40.4564 65.4 40.45C65.3758 40.4436 65.3504 40.4416 65.3254 40.4442C65.3003 40.4468 65.2761 40.4539 65.2541 40.465L63.3535 41.4087L63.0613 41.5537L61.5977 42.2798C61.5756 42.2909 61.556 42.3057 61.5402 42.3236C61.5244 42.3415 61.5126 42.3621 61.5055 42.3842C61.4984 42.4062 61.4961 42.4293 61.4989 42.4521C61.5016 42.475 61.5092 42.4971 61.5214 42.5173C61.5335 42.5374 61.5498 42.5552 61.5695 42.5696C61.5892 42.584 61.6118 42.5947 61.636 42.6012C61.6603 42.6076 61.6857 42.6097 61.7108 42.6072C61.7359 42.6047 61.7602 42.5978 61.7823 42.5867L63.2459 41.8606L63.5381 41.7156L65.4373 40.7719C65.4597 40.761 65.4795 40.7462 65.4956 40.7283C65.5116 40.7104 65.5235 40.6898 65.5307 40.6676C65.5379 40.6454 65.5401 40.6222 65.5373 40.5992C65.5345 40.5763 65.5267 40.5541 65.5144 40.5339Z" fill="#CCCCCC"/>
<path d="M61.5407 43.4265L60.6149 41.8824L60.4556 41.6165L60.3798 41.4897C60.3678 41.4702 60.3478 41.4559 60.3241 41.4498C60.3005 41.4437 60.2752 41.4463 60.2537 41.457L58.3744 42.3898L57.5257 42.8103C57.5044 42.8213 57.4886 42.8395 57.4819 42.861C57.4752 42.8825 57.478 42.9055 57.4899 42.9251L57.5656 43.0508L57.6479 43.1897L57.725 43.3166V43.3178L58.6506 44.862C58.6625 44.8813 58.6823 44.8956 58.7056 44.9017C58.729 44.9078 58.7541 44.9053 58.7755 44.8946L61.5034 43.5413C61.5142 43.536 61.5237 43.5289 61.5314 43.5202C61.5392 43.5116 61.5449 43.5017 61.5484 43.491C61.5518 43.4803 61.5529 43.4691 61.5516 43.458C61.5503 43.447 61.5466 43.4363 61.5407 43.4265Z" fill="#4B93E7"/>
<path d="M65.9739 42.8187C65.9495 42.7781 65.9085 42.7479 65.8597 42.7347C65.8109 42.7216 65.7583 42.7266 65.7136 42.7486L64.5143 43.3443L64.2221 43.4893L63.064 44.0632L61.7 44.7411C61.6777 44.7521 61.6581 44.767 61.6422 44.7849C61.6263 44.8029 61.6144 44.8235 61.6073 44.8456C61.6001 44.8677 61.5978 44.8908 61.6005 44.9138C61.6032 44.9367 61.6108 44.9589 61.623 44.9791C61.6351 44.9993 61.6515 45.0172 61.6712 45.0317C61.6909 45.0461 61.7135 45.0569 61.7378 45.0634C61.7621 45.0699 61.7876 45.072 61.8128 45.0696C61.838 45.0671 61.8624 45.0602 61.8846 45.0492L64.4067 43.7974L64.6989 43.6524L65.8982 43.0567C65.9204 43.0457 65.94 43.0307 65.9558 43.0128C65.9716 42.9948 65.9834 42.9741 65.9904 42.952C65.9974 42.9299 65.9996 42.9068 65.9968 42.8839C65.9939 42.861 65.9862 42.8389 65.9739 42.8187Z" fill="#CCCCCC"/>
<path d="M66.9833 42.9915C66.9711 42.9714 66.9547 42.9536 66.9349 42.9392C66.9152 42.9249 66.8925 42.9142 66.8682 42.9078C66.8439 42.9014 66.8184 42.8994 66.7933 42.902C66.7682 42.9045 66.7438 42.9116 66.7217 42.9227L64.8264 43.8639L64.5343 44.0089L62.0109 45.2607C61.9886 45.2716 61.9689 45.2865 61.953 45.3044C61.937 45.3223 61.9251 45.3429 61.918 45.365C61.9108 45.3871 61.9085 45.4102 61.9112 45.4332C61.9139 45.4561 61.9215 45.4783 61.9337 45.4985C61.9458 45.5187 61.9623 45.5365 61.982 45.5509C62.0018 45.5653 62.0244 45.5761 62.0488 45.5825C62.0731 45.5889 62.0986 45.5909 62.1237 45.5883C62.1489 45.5858 62.1733 45.5787 62.1954 45.5676L64.7176 44.3158L65.0098 44.1708L66.9063 43.2296C66.9511 43.2072 66.9843 43.1696 66.9988 43.125C67.0132 43.0804 67.0077 43.0324 66.9833 42.9915Z" fill="#CCCCCC"/>
<path d="M60.3557 46.6804C60.8069 46.6804 61.1726 46.3476 61.1726 45.9372C61.1726 45.5268 60.8069 45.1941 60.3557 45.1941C59.9046 45.1941 59.5389 45.5268 59.5389 45.9372C59.5389 46.3476 59.9046 46.6804 60.3557 46.6804Z" fill="#CCCCCC"/>
<path d="M60.9044 50.1152C61.0419 50.1276 61.1781 50.1497 61.3118 50.1815L70.5755 42.7052L69.9764 40.0231L74.3076 38.6716L75.8752 43.326C76.0019 43.702 75.991 44.1053 75.8443 44.4752C75.6976 44.8451 75.423 45.1618 75.0616 45.3776L63.2846 52.412C63.302 52.896 63.157 53.3733 62.8689 53.7805C62.5808 54.1877 62.1633 54.5054 61.6718 54.6915C61.1804 54.8775 60.6384 54.923 60.1178 54.8219C59.5973 54.7209 59.1229 54.478 58.7577 54.1257C58.3926 53.7733 58.154 53.3282 58.0737 52.8495C57.9935 52.3708 58.0753 51.8812 58.3083 51.4458C58.5414 51.0105 58.9146 50.65 59.3783 50.4123C59.8421 50.1746 60.3744 50.071 60.9044 50.1152Z" fill="#FFB8B8"/>
<path d="M76.9522 39.3412L74.3278 34.7812C74.0577 34.0876 73.5019 33.5167 72.7779 33.1889C72.0538 32.8611 71.218 32.8021 70.447 33.0243C70.4178 33.0316 70.3899 33.04 70.3607 33.0497C69.5794 33.2982 68.9384 33.8185 68.5783 34.4965C68.2183 35.1745 68.1686 35.9548 68.4402 36.6661L69.4934 41.7058C69.5236 41.85 69.5876 41.9867 69.6811 42.1064C69.7747 42.226 69.8955 42.326 70.0353 42.3993C70.1882 42.4806 70.3604 42.5271 70.5373 42.5346C70.6829 42.543 70.8288 42.5245 70.9663 42.4803L71.5295 42.3014L75.1446 41.156L76.3266 40.7814C76.4791 40.7329 76.6183 40.6551 76.7347 40.5533C76.8512 40.4515 76.9421 40.3281 77.0015 40.1915C77.0608 40.0548 77.0872 39.9081 77.0786 39.7614C77.0701 39.6147 77.027 39.4714 76.9522 39.3412Z" fill="#4B93E7"/>
<path d="M86.8592 56.9301H0.132812C0.0975882 56.9301 0.0638068 56.9174 0.0388997 56.8947C0.0139926 56.8721 0 56.8413 0 56.8093C0 56.7773 0.0139926 56.7465 0.0388997 56.7239C0.0638068 56.7012 0.0975882 56.6885 0.132812 56.6885H86.8592C86.8944 56.6885 86.9282 56.7012 86.9531 56.7239C86.978 56.7465 86.992 56.7773 86.992 56.8093C86.992 56.8413 86.978 56.8721 86.9531 56.8947C86.9282 56.9174 86.8944 56.9301 86.8592 56.9301Z" fill="#3F3D56"/>
<path d="M15.0737 54.6948V54.7552C15.0741 55.1649 15.2053 55.5656 15.4512 55.9087C15.697 56.2519 16.0471 56.5228 16.4589 56.6885C16.7543 56.8086 17.0743 56.8704 17.3979 56.8697H38.8471V54.6948H15.0737Z" fill="#3F3D56"/>
<path d="M53.8229 40.3609C53.4825 39.7217 52.9584 39.1781 52.3062 38.7878C52.0105 38.6097 51.6915 38.466 51.3566 38.3601C50.9002 38.2151 50.4202 38.1411 49.9368 38.1414H29.351C28.2066 38.1426 27.1095 38.5567 26.3003 39.2928C25.4911 40.029 25.0359 41.0271 25.0346 42.0682V52.9427C25.0342 53.0953 25.044 53.2478 25.0638 53.3994C25.093 53.6261 25.1436 53.85 25.2152 54.0688C25.2861 54.2843 25.3777 54.4937 25.4888 54.6947C25.8463 55.3482 26.3972 55.8981 27.0795 56.2823C27.7619 56.6665 28.5485 56.8699 29.351 56.8695H49.9368C50.5037 56.8697 51.0651 56.7683 51.5889 56.571C52.1127 56.3737 52.5886 56.0845 52.9895 55.7198C53.3903 55.3551 53.7083 54.9222 53.9251 54.4456C54.1419 53.9691 54.2534 53.4584 54.2532 52.9427V42.0682C54.2542 41.4768 54.107 40.8929 53.8229 40.3609Z" fill="#3F3D56"/>
<path d="M40.7728 48.472C41.3596 48.472 41.8353 48.0393 41.8353 47.5054C41.8353 46.9716 41.3596 46.5388 40.7728 46.5388C40.186 46.5388 39.7103 46.9716 39.7103 47.5054C39.7103 48.0393 40.186 48.472 40.7728 48.472Z" fill="white"/>
</g>
<defs>
<clipPath id="clip0_1_3237">
<rect width="95" height="73" fill="white"/>
</clipPath>
</defs>
</svg>
