<svg width="96" height="73" viewBox="0 0 96 73" fill="none" xmlns="http://www.w3.org/2000/svg">
<g clip-path="url(#clip0_1_3399)">
<path d="M21.5512 7.31249H15.4928C14.9104 7.31306 14.3519 7.56563 13.9401 8.01474C13.5282 8.46385 13.2966 9.07281 13.2961 9.70796V16.8704C13.2186 16.8654 13.1412 16.8578 13.0649 16.8477C11.6296 16.6831 10.265 16.0844 9.12506 15.1193C7.98508 14.1542 7.11502 12.8611 6.61296 11.3856C6.1109 9.91014 5.99681 8.31107 6.28356 6.76869C6.57031 5.2263 7.2465 3.80194 8.23587 2.6562C9.22525 1.51046 10.4885 0.688897 11.8831 0.284146C13.2778 -0.120606 14.7484 -0.0924509 16.1291 0.365437C17.5099 0.823326 18.7459 1.69274 19.6978 2.87565C20.6497 4.05856 21.2796 5.50792 21.5165 7.06033C21.5292 7.14354 21.5408 7.22802 21.5512 7.31249Z" fill="#F2F2F2"/>
<path d="M93.072 7.0603H15.4928C14.8491 7.06107 14.2319 7.34026 13.7768 7.83662C13.3216 8.33298 13.0656 9.00597 13.0648 9.70793V54.3393C13.0656 55.0413 13.3216 55.7143 13.7768 56.2106C14.2319 56.707 14.8491 56.9862 15.4928 56.9869H93.072C93.7158 56.9862 94.3329 56.707 94.7881 56.2106C95.2433 55.7143 95.4993 55.0413 95.5 54.3393V9.70793C95.4993 9.00597 95.2433 8.33298 94.7881 7.83662C94.3329 7.34026 93.7158 7.06107 93.072 7.0603ZM95.2688 54.3393C95.2682 54.9745 95.0366 55.5834 94.6248 56.0325C94.2129 56.4817 93.6545 56.7342 93.072 56.7348H15.4928C14.9104 56.7342 14.3519 56.4817 13.9401 56.0325C13.5282 55.5834 13.2966 54.9745 13.2961 54.3393V9.70793C13.2966 9.07279 13.5282 8.46382 13.9401 8.01471C14.3519 7.5656 14.9104 7.31303 15.4928 7.31246H93.072C93.6545 7.31303 94.2129 7.5656 94.6248 8.01471C95.0366 8.46382 95.2682 9.07279 95.2688 9.70793V54.3393Z" fill="#3F3D56"/>
<path d="M89.2567 14.2934H19.3082C19.2775 14.2934 19.2481 14.2801 19.2264 14.2565C19.2047 14.2328 19.1926 14.2008 19.1926 14.1673C19.1926 14.1339 19.2047 14.1018 19.2264 14.0782C19.2481 14.0545 19.2775 14.0413 19.3082 14.0413H89.2567C89.2873 14.0413 89.3167 14.0545 89.3384 14.0782C89.3601 14.1018 89.3723 14.1339 89.3723 14.1673C89.3723 14.2008 89.3601 14.2328 89.3384 14.2565C89.3167 14.2801 89.2873 14.2934 89.2567 14.2934Z" fill="#3F3D56"/>
<path d="M39.0788 51.5656C39.0481 51.5656 39.0187 51.5523 38.997 51.5287C38.9753 51.505 38.9631 51.473 38.9631 51.4395V9.96006C38.9631 9.92662 38.9753 9.89456 38.997 9.87091C39.0187 9.84727 39.0481 9.83398 39.0788 9.83398C39.1094 9.83398 39.1388 9.84727 39.1605 9.87091C39.1822 9.89456 39.1944 9.92662 39.1944 9.96006V51.4395C39.1944 51.473 39.1822 51.505 39.1605 51.5287C39.1388 51.5523 39.1094 51.5656 39.0788 51.5656Z" fill="#3F3D56"/>
<path d="M56.537 51.5656C56.5063 51.5656 56.4769 51.5523 56.4552 51.5287C56.4335 51.505 56.4214 51.473 56.4214 51.4395V9.96006C56.4214 9.92662 56.4335 9.89456 56.4552 9.87091C56.4769 9.84727 56.5063 9.83398 56.537 9.83398C56.5676 9.83398 56.597 9.84727 56.6187 9.87091C56.6404 9.89456 56.6526 9.92662 56.6526 9.96006V51.4395C56.6526 51.473 56.6404 51.505 56.6187 51.5287C56.597 51.5523 56.5676 51.5656 56.537 51.5656Z" fill="#3F3D56"/>
<path d="M73.9952 51.5656C73.9645 51.5656 73.9351 51.5523 73.9134 51.5287C73.8918 51.505 73.8796 51.473 73.8796 51.4395V9.96006C73.8796 9.92662 73.8918 9.89456 73.9134 9.87091C73.9351 9.84727 73.9645 9.83398 73.9952 9.83398C74.0259 9.83398 74.0553 9.84727 74.0769 9.87091C74.0986 9.89456 74.1108 9.92662 74.1108 9.96006V51.4395C74.1108 51.473 74.0986 51.505 74.0769 51.5287C74.0553 51.5523 74.0259 51.5656 73.9952 51.5656Z" fill="#3F3D56"/>
<path d="M27.8541 27.3067H23.6295C23.4915 27.3065 23.3593 27.2467 23.2617 27.1403C23.1642 27.034 23.1093 26.8898 23.1092 26.7393V21.3029C23.1093 21.1525 23.1642 21.0083 23.2617 20.9019C23.3593 20.7956 23.4915 20.7358 23.6295 20.7356H27.8541C27.9921 20.7358 28.1243 20.7956 28.2218 20.9019C28.3194 21.0083 28.3743 21.1525 28.3744 21.3029V26.7394C28.3743 26.8898 28.3194 27.034 28.2218 27.1403C28.1243 27.2467 27.9921 27.3065 27.8541 27.3067Z" fill="#4B93E7"/>
<path d="M33.8662 42.8143H29.6416C29.5036 42.8141 29.3714 42.7543 29.2738 42.6479C29.1763 42.5415 29.1214 42.3973 29.1213 42.2469V36.8105C29.1214 36.6601 29.1763 36.5159 29.2738 36.4095C29.3714 36.3032 29.5036 36.2433 29.6416 36.2432H33.8662C34.0042 36.2433 34.1364 36.3032 34.2339 36.4095C34.3315 36.5159 34.3863 36.6601 34.3865 36.8105V42.2469C34.3863 42.3973 34.3315 42.5415 34.2339 42.6479C34.1364 42.7543 34.0042 42.8141 33.8662 42.8143Z" fill="#4B93E7"/>
<path d="M47.5091 30.5848H43.2844C43.1465 30.5846 43.0142 30.5248 42.9167 30.4184C42.8192 30.312 42.7643 30.1678 42.7642 30.0174V24.581C42.7643 24.4306 42.8192 24.2864 42.9167 24.18C43.0142 24.0737 43.1465 24.0138 43.2844 24.0137H47.5091C47.647 24.0138 47.7793 24.0737 47.8768 24.18C47.9743 24.2864 48.0292 24.4306 48.0294 24.581V30.0174C48.0292 30.1678 47.9743 30.3121 47.8768 30.4184C47.7793 30.5248 47.647 30.5846 47.5091 30.5848Z" fill="#4B93E7"/>
<path d="M65.1985 24.6592H60.9739C60.8359 24.6591 60.7037 24.5992 60.6061 24.4929C60.5086 24.3865 60.4537 24.2423 60.4536 24.0919V18.6555C60.4537 18.5051 60.5086 18.3609 60.6061 18.2545C60.7037 18.1481 60.8359 18.0883 60.9739 18.0881H65.1985C65.3365 18.0883 65.4687 18.1481 65.5662 18.2545C65.6638 18.3609 65.7186 18.5051 65.7188 18.6555V24.0919C65.7186 24.2423 65.6638 24.3865 65.5662 24.4929C65.4687 24.5992 65.3365 24.6591 65.1985 24.6592Z" fill="#4B93E7"/>
<path d="M81.5005 24.6592H77.2759C77.138 24.6591 77.0057 24.5992 76.9082 24.4929C76.8106 24.3865 76.7558 24.2423 76.7556 24.0919V18.6555C76.7558 18.5051 76.8106 18.3609 76.9082 18.2545C77.0057 18.1481 77.138 18.0883 77.2759 18.0881H81.5005C81.6385 18.0883 81.7707 18.1481 81.8683 18.2545C81.9658 18.3609 82.0207 18.5051 82.0208 18.6555V24.0919C82.0207 24.2423 81.9658 24.3865 81.8683 24.4929C81.7707 24.5992 81.6385 24.6591 81.5005 24.6592Z" fill="#4B93E7"/>
<path d="M89.0157 26.1722H84.791C84.6531 26.172 84.5208 26.1122 84.4233 26.0058C84.3258 25.8995 84.2709 25.7552 84.2708 25.6048V20.1684C84.2709 20.018 84.3258 19.8738 84.4233 19.7674C84.5208 19.6611 84.6531 19.6012 84.791 19.6011H89.0157C89.1536 19.6012 89.2859 19.6611 89.3834 19.7674C89.4809 19.8738 89.5358 20.018 89.536 20.1684V25.6048C89.5358 25.7552 89.4809 25.8995 89.3834 26.0058C89.2859 26.1122 89.1536 26.172 89.0157 26.1722Z" fill="#E6E6E6"/>
<path d="M85.6628 35.8799H81.4381C81.3002 35.8798 81.1679 35.8199 81.0704 35.7136C80.9729 35.6072 80.918 35.463 80.9178 35.3126V29.8762C80.918 29.7258 80.9729 29.5816 81.0704 29.4752C81.1679 29.3688 81.3002 29.309 81.4381 29.3088H85.6628C85.8007 29.309 85.933 29.3688 86.0305 29.4752C86.128 29.5816 86.1829 29.7258 86.1831 29.8762V35.3126C86.1829 35.463 86.128 35.6072 86.0305 35.7136C85.933 35.8199 85.8007 35.8798 85.6628 35.8799Z" fill="#E6E6E6"/>
<path d="M71.3262 33.8628H67.1016C66.9636 33.8627 66.8314 33.8028 66.7339 33.6965C66.6363 33.5901 66.5815 33.4459 66.5813 33.2955V27.8591C66.5815 27.7087 66.6363 27.5645 66.7339 27.4581C66.8314 27.3517 66.9636 27.2919 67.1016 27.2917H71.3262C71.4642 27.2919 71.5964 27.3517 71.694 27.4581C71.7915 27.5645 71.8464 27.7087 71.8465 27.8591V33.2955C71.8464 33.4459 71.7915 33.5901 71.694 33.6965C71.5964 33.8029 71.4642 33.8627 71.3262 33.8628Z" fill="#F7AC25"/>
<path d="M63.1174 35.8799H58.8928C58.7548 35.8798 58.6226 35.8199 58.525 35.7136C58.4275 35.6072 58.3727 35.463 58.3725 35.3126V29.8762C58.3727 29.7258 58.4275 29.5816 58.525 29.4752C58.6226 29.3688 58.7548 29.309 58.8928 29.3088H63.1174C63.2554 29.309 63.3876 29.3688 63.4851 29.4752C63.5827 29.5816 63.6376 29.7258 63.6377 29.8762V35.3126C63.6376 35.463 63.5827 35.6072 63.4851 35.7136C63.3876 35.8199 63.2554 35.8798 63.1174 35.8799Z" fill="#E6E6E6"/>
<path d="M45.428 44.4532H41.2033C41.0654 44.453 40.9331 44.3932 40.8356 44.2868C40.7381 44.1805 40.6832 44.0363 40.683 43.8858V38.4494C40.6832 38.299 40.7381 38.1548 40.8356 38.0484C40.9331 37.9421 41.0654 37.8822 41.2033 37.8821H45.428C45.5659 37.8822 45.6982 37.9421 45.7957 38.0484C45.8932 38.1548 45.9481 38.299 45.9483 38.4494V43.8858C45.9481 44.0363 45.8932 44.1805 45.7957 44.2868C45.6982 44.3932 45.5659 44.453 45.428 44.4532Z" fill="#E6E6E6"/>
<path d="M24.0388 37.2669H19.8141C19.6762 37.2667 19.5439 37.2069 19.4464 37.1005C19.3488 36.9942 19.294 36.85 19.2938 36.6996V31.2631C19.294 31.1127 19.3488 30.9685 19.4464 30.8622C19.5439 30.7558 19.6762 30.696 19.8141 30.6958H24.0388C24.1767 30.696 24.3089 30.7558 24.4065 30.8622C24.504 30.9685 24.5589 31.1127 24.559 31.2631V36.6996C24.5589 36.85 24.504 36.9942 24.4065 37.1005C24.3089 37.2069 24.1767 37.2667 24.0388 37.2669Z" fill="#F7AC25"/>
<path d="M35.9473 27.3067H31.7227C31.5847 27.3065 31.4525 27.2467 31.3549 27.1403C31.2574 27.034 31.2025 26.8898 31.2024 26.7393V21.3029C31.2025 21.1525 31.2574 21.0083 31.3549 20.9019C31.4525 20.7956 31.5847 20.7358 31.7227 20.7356H35.9473C36.0853 20.7358 36.2175 20.7956 36.315 20.9019C36.4126 21.0083 36.4675 21.1525 36.4676 21.3029V26.7394C36.4674 26.8898 36.4126 27.034 36.315 27.1403C36.2175 27.2467 36.0853 27.3065 35.9473 27.3067Z" fill="#E6E6E6"/>
<path d="M32.4886 12.2296H25.8984C25.7757 12.2296 25.6581 12.1764 25.5714 12.0819C25.4846 11.9873 25.4359 11.859 25.4359 11.7253C25.4359 11.5915 25.4846 11.4632 25.5714 11.3687C25.6581 11.2741 25.7757 11.2209 25.8984 11.2209H32.4886C32.6112 11.2209 32.7289 11.2741 32.8156 11.3687C32.9023 11.4632 32.951 11.5915 32.951 11.7253C32.951 11.859 32.9023 11.9873 32.8156 12.0819C32.7289 12.1764 32.6112 12.2296 32.4886 12.2296Z" fill="#CCCCCC"/>
<path d="M51.1029 12.2296H44.5128C44.3901 12.2296 44.2725 12.1764 44.1857 12.0819C44.099 11.9873 44.0503 11.859 44.0503 11.7253C44.0503 11.5915 44.099 11.4632 44.1857 11.3687C44.2725 11.2741 44.3901 11.2209 44.5128 11.2209H51.1029C51.2256 11.2209 51.3432 11.2741 51.43 11.3687C51.5167 11.4632 51.5654 11.5915 51.5654 11.7253C51.5654 11.859 51.5167 11.9873 51.43 12.0819C51.3432 12.1764 51.2256 12.2296 51.1029 12.2296Z" fill="#CCCCCC"/>
<path d="M68.5612 12.2296H61.971C61.8483 12.2296 61.7307 12.1764 61.644 12.0819C61.5572 11.9873 61.5085 11.859 61.5085 11.7253C61.5085 11.5915 61.5572 11.4632 61.644 11.3687C61.7307 11.2741 61.8483 11.2209 61.971 11.2209H68.5612C68.6838 11.2209 68.8015 11.2741 68.8882 11.3687C68.9749 11.4632 69.0236 11.5915 69.0236 11.7253C69.0236 11.859 68.9749 11.9873 68.8882 12.0819C68.8015 12.1764 68.6838 12.2296 68.5612 12.2296Z" fill="#CCCCCC"/>
<path d="M84.8632 12.2296H78.273C78.1504 12.2296 78.0327 12.1764 77.946 12.0819C77.8593 11.9873 77.8105 11.859 77.8105 11.7253C77.8105 11.5915 77.8593 11.4632 77.946 11.3687C78.0327 11.2741 78.1504 11.2209 78.273 11.2209H84.8632C84.9859 11.2209 85.1035 11.2741 85.1902 11.3687C85.2769 11.4632 85.3257 11.5915 85.3257 11.7253C85.3257 11.859 85.2769 11.9873 85.1902 12.0819C85.1035 12.1764 84.9859 12.2296 84.8632 12.2296Z" fill="#CCCCCC"/>
<path d="M17.7281 49.1565C17.5589 49.1384 17.3954 49.0801 17.2492 48.9857C17.1029 48.8913 16.9774 48.763 16.8815 48.61C16.7856 48.457 16.7216 48.2829 16.6941 48.1C16.6666 47.9171 16.6762 47.7299 16.7222 47.5514L13.7586 44.5431L15.3255 44.1096L18.2397 46.6871C18.5095 46.7913 18.7348 46.9997 18.873 47.273C19.0113 47.5462 19.0528 47.8652 18.9897 48.1696C18.9266 48.474 18.7634 48.7426 18.5308 48.9245C18.2983 49.1063 18.0127 49.1889 17.7281 49.1565Z" fill="#FFB8B8"/>
<path d="M21.8203 71.3916H23.2378L23.9121 65.4297H21.8201L21.8203 71.3916Z" fill="#FFB8B8"/>
<path d="M25.9714 72.8267L21.5166 72.8269L21.5165 70.95L24.2502 70.9498C24.7067 70.9498 25.1445 71.1475 25.4673 71.4995C25.7901 71.8515 25.9714 72.3289 25.9714 72.8267Z" fill="#082777"/>
<path d="M12.1016 70.2756L13.4715 70.6733L15.5296 65.1012L13.508 64.5144L12.1016 70.2756Z" fill="#FFB8B8"/>
<path d="M15.7745 72.8271L11.4696 71.5776L11.9123 69.7639L14.554 70.5306C14.9951 70.6587 15.3715 70.9726 15.6004 71.4032C15.8293 71.8339 15.892 72.3461 15.7745 72.8271Z" fill="#082777"/>
<path d="M23.619 70.263H21.4561C21.3195 70.2635 21.1876 70.2082 21.0865 70.1081C20.9854 70.0079 20.9223 69.8701 20.9097 69.7217L19.5967 54.8532C19.587 54.7442 19.543 54.6421 19.472 54.5646C19.401 54.4871 19.3075 54.4389 19.2075 54.4282C19.1075 54.4176 19.0072 54.4451 18.9238 54.5062C18.8404 54.5673 18.779 54.6581 18.7502 54.7631L14.9379 68.6567C14.8976 68.8044 14.8066 68.9294 14.6838 69.0056C14.561 69.0819 14.416 69.1035 14.2789 69.066L12.2668 68.5173C12.1966 68.4982 12.1305 68.4641 12.0724 68.417C12.0143 68.3699 11.9654 68.3108 11.9283 68.243C11.8913 68.1752 11.8669 68.1 11.8566 68.0219C11.8463 67.9438 11.8502 67.8642 11.8682 67.7877C11.9011 67.6477 15.153 53.7896 15.1814 53.6471C15.9182 47.7255 16.7997 46.1387 17.2733 45.2864C17.3125 45.2158 17.3485 45.1509 17.3809 45.0896C17.4215 45.0129 17.6714 44.2519 17.8299 43.7577C17.8505 43.6773 17.8862 43.6024 17.9346 43.5378C17.9831 43.4732 18.0433 43.4202 18.1115 43.3823C20.1013 42.2726 22.4295 43.0407 23.0956 43.3026C23.2061 43.345 23.3009 43.4253 23.366 43.5315C25.3644 46.8185 24.3837 65.9091 24.1668 69.7028C24.1577 69.8545 24.0961 69.9969 23.9944 70.1009C23.8926 70.2049 23.7584 70.2629 23.619 70.263Z" fill="#082777"/>
<path d="M18.0373 32.6016C19.6056 32.6016 20.877 31.2152 20.877 29.505C20.877 27.7948 19.6056 26.4084 18.0373 26.4084C16.469 26.4084 15.1976 27.7948 15.1976 29.505C15.1976 31.2152 16.469 32.6016 18.0373 32.6016Z" fill="#FFB8B8"/>
<path d="M17.7364 44.3587L17.716 44.3372C17.6778 44.2968 13.8942 40.2548 14.3839 36.5173C14.5933 34.9187 15.7794 33.8973 17.814 33.5632C18.5614 33.4422 19.3238 33.6194 19.9611 34.0623C20.5983 34.5052 21.0675 35.184 21.2825 35.974L23.2942 43.4736L17.7364 44.3587Z" fill="#CCCCCC"/>
<path d="M15.8 47.2337L13.104 44.3123C12.9196 44.1114 12.7858 43.8622 12.7153 43.5886C12.6449 43.315 12.6401 43.0262 12.7016 42.75L14.0068 36.9607C14.0459 36.7872 14.1172 36.6243 14.2164 36.4821C14.3155 36.3399 14.4404 36.2214 14.5832 36.134C14.7261 36.0465 14.8838 35.9919 15.0468 35.9737C15.2098 35.9554 15.3744 35.9738 15.5306 36.0277C15.8283 36.1323 16.077 36.3592 16.2239 36.6603C16.3708 36.9614 16.4045 37.313 16.3179 37.6407L14.9438 42.7338L17.1658 45.3356L15.8 47.2337Z" fill="#CCCCCC"/>
<path d="M30.2604 37.2638C30.1891 37.432 30.0849 37.5812 29.955 37.7008C29.8251 37.8203 29.6728 37.9074 29.5087 37.9558C29.3447 38.0043 29.1729 38.0129 29.0054 37.981C28.838 37.9492 28.679 37.8778 28.5396 37.7717L24.9405 39.8059L25.0996 38.0779L28.2902 35.9246C28.4692 35.6811 28.7238 35.5176 29.0059 35.4652C29.288 35.4127 29.5779 35.4749 29.8208 35.64C30.0636 35.805 30.2425 36.0615 30.3235 36.3608C30.4046 36.6601 30.3821 36.9813 30.2604 37.2638Z" fill="#FFB8B8"/>
<path d="M28.1466 38.5499L24.638 40.2032C24.4045 40.3124 24.1491 40.3542 23.8965 40.3247C23.6438 40.2951 23.4024 40.1952 23.1954 40.0345L18.7339 36.5486C18.6007 36.4445 18.4886 36.3118 18.4044 36.1586C18.3201 36.0053 18.2656 35.8349 18.2443 35.6578C18.2229 35.4807 18.235 35.3007 18.28 35.1289C18.325 34.9571 18.4018 34.7973 18.5057 34.6592C18.7054 34.3966 18.991 34.2292 19.3019 34.1923C19.6129 34.1554 19.9248 34.2519 20.1716 34.4615L23.9972 37.7448L27.038 36.4619L28.1466 38.5499Z" fill="#CCCCCC"/>
<path d="M18.5081 30.4974C18.8584 30.0187 19.5129 29.993 19.9941 29.6772C20.6244 29.2637 20.885 28.3395 20.6819 27.5685C20.4788 26.7975 19.8797 26.1966 19.1929 25.9093C18.5061 25.6219 17.742 25.6183 17.0175 25.7573C15.9387 25.9641 14.8767 26.5131 14.2188 27.468C13.5609 28.4229 13.3934 29.8213 13.9897 30.8232C14.2637 31.2837 14.6868 31.6638 14.7962 32.1996C14.9398 32.9031 14.4873 33.5815 14.0025 34.0714C13.4503 34.6294 12.8167 35.0968 12.3328 35.7259C11.849 36.3549 11.5263 37.2144 11.7471 37.9993C11.9321 38.657 12.4704 39.1415 13.0607 39.3842C13.651 39.6268 14.2939 39.6619 14.9246 39.6753C15.537 39.6884 16.1875 39.6721 16.7034 39.312C17.2558 38.9265 17.5507 38.1952 17.5725 37.4805C17.5942 36.7658 17.3752 36.0656 17.0817 35.4261C16.9068 35.045 16.7033 34.6757 16.5871 34.2687C16.4708 33.8618 16.4507 33.4 16.6369 33.0252C16.8326 32.6313 17.2285 32.3937 17.6316 32.3073C17.6526 32.3028 17.6747 32.2988 17.6979 32.2953C17.8126 32.279 17.9231 32.2376 18.0227 32.1735C18.1223 32.1094 18.209 32.0239 18.2774 31.9222C18.3459 31.8205 18.3947 31.7048 18.421 31.5819C18.4472 31.4591 18.4503 31.3317 18.4302 31.2075C18.3842 30.9283 18.3882 30.6611 18.5081 30.4974Z" fill="#082777"/>
<path d="M56.3696 71.5237H54.9522L54.2779 65.5618L56.3699 65.5619L56.3696 71.5237Z" fill="#A0616A"/>
<path d="M53.9397 71.082H56.6734V72.9589H52.2185C52.2185 72.7125 52.2631 72.4684 52.3496 72.2407C52.436 72.013 52.5628 71.8061 52.7227 71.6318C52.8825 71.4575 53.0722 71.3192 53.281 71.2249C53.4899 71.1306 53.7137 71.082 53.9397 71.082Z" fill="#082777"/>
<path d="M66.6544 69.7729L65.3651 70.4151L62.48 65.2977L64.383 64.3499L66.6544 69.7729Z" fill="#A0616A"/>
<path d="M64.2759 70.4719L66.7624 69.2334L67.4775 70.9407L63.4254 72.9589C63.3314 72.7348 63.279 72.4926 63.2709 72.2463C63.2628 71.9999 63.2993 71.7543 63.3783 71.5234C63.4572 71.2924 63.5772 71.0807 63.7312 70.9003C63.8852 70.7199 64.0703 70.5743 64.2759 70.4719Z" fill="#082777"/>
<path d="M62.5266 51.4215C62.6624 51.3101 62.7741 51.1675 62.8539 51.0039C62.9337 50.8402 62.9797 50.6595 62.9885 50.4744C62.9973 50.2893 62.9688 50.1044 62.905 49.9326C62.8412 49.7608 62.7436 49.6064 62.6192 49.4801L64.2854 45.3574L62.1686 45.7486L60.9109 49.6036C60.7303 49.8457 60.6374 50.1516 60.6498 50.4634C60.6622 50.7751 60.7791 51.0711 60.9782 51.2952C61.1774 51.5192 61.445 51.6559 61.7304 51.6792C62.0157 51.7025 62.299 51.6108 62.5266 51.4215Z" fill="#A0616A"/>
<path d="M56.2793 69.9517H54.9252C54.7939 69.9512 54.6675 69.8968 54.5713 69.7993C54.4752 69.7018 54.4162 69.5683 54.4063 69.4255L53.6678 47.9219C53.6623 47.8395 53.6734 47.7568 53.7003 47.6796C53.7271 47.6023 53.7692 47.5324 53.8234 47.4747C53.8776 47.417 53.9428 47.3729 54.0143 47.3455C54.0857 47.3182 54.1619 47.3081 54.2373 47.3162L62.0686 48.2231C62.1955 48.2366 62.3135 48.3005 62.4 48.4026C62.4866 48.5047 62.5358 48.638 62.5383 48.777L62.7024 58.2625C62.7032 58.314 62.7124 58.3649 62.7294 58.4129L65.9418 67.4972C65.9667 67.5673 65.9784 67.6422 65.9765 67.7174C65.9745 67.7926 65.9589 67.8666 65.9304 67.9351C65.902 68.0036 65.8613 68.0653 65.8108 68.1166C65.7603 68.1678 65.701 68.2076 65.6363 68.2336L64.2641 68.7849C64.1449 68.8327 64.0138 68.8314 63.8954 68.7812C63.7771 68.7309 63.6797 68.6352 63.6215 68.512L59.6752 60.1444C59.6537 60.0989 59.638 60.0505 59.6285 60.0003L58.9543 56.4584C58.9348 56.3557 58.8823 56.2639 58.8064 56.1996C58.7304 56.1352 58.6359 56.1025 58.5398 56.1072C58.4437 56.112 58.3523 56.1539 58.282 56.2255C58.2117 56.297 58.1671 56.3936 58.1561 56.4978L56.7962 69.4489C56.7817 69.5873 56.721 69.715 56.6257 69.8078C56.5303 69.9005 56.407 69.9518 56.2793 69.9517Z" fill="#082777"/>
<path d="M56.9536 31.1082C58.5219 31.1082 59.7933 29.7218 59.7933 28.0116C59.7933 26.3014 58.5219 24.915 56.9536 24.915C55.3853 24.915 54.1139 26.3014 54.1139 28.0116C54.1139 29.7218 55.3853 31.1082 56.9536 31.1082Z" fill="#A0616A"/>
<path d="M58.901 49.8881C56.9753 49.8649 55.0955 49.244 53.4817 48.098L53.454 48.0772L53.4569 48.0407L54.5431 34.2458C54.5806 33.7778 54.7721 33.3404 55.0824 33.0145C55.3927 32.6886 55.8007 32.4962 56.231 32.4729C57.6388 32.4024 59.5297 32.4914 60.5419 33.3134C62.0716 34.5559 62.8089 36.4268 62.5647 38.4464C62.0583 42.6345 62.632 48.2841 62.699 48.9145L62.7039 48.9599L62.6658 48.979C61.4865 49.5773 60.2016 49.8875 58.901 49.8881Z" fill="#4B93E7"/>
<path d="M62.6859 48.9378C62.6059 48.9377 62.5267 48.9194 62.4535 48.8842C62.3802 48.849 62.3145 48.7976 62.2603 48.7333L61.6392 47.9943C61.5721 47.914 61.525 47.8162 61.5026 47.7104C61.4801 47.6045 61.483 47.4941 61.511 47.3898L62.9273 42.1622L60.7723 37.227C60.6716 36.996 60.647 36.7343 60.7024 36.4858C60.7514 36.2676 60.8597 36.0708 61.0133 35.9212C61.1669 35.7716 61.3585 35.6763 61.5627 35.6479C61.767 35.6194 61.9744 35.6591 62.1575 35.7618C62.3406 35.8645 62.4909 36.0253 62.5885 36.223L65.513 41.3975C65.6318 41.6074 65.7016 41.8459 65.7161 42.0921C65.7306 42.3383 65.6895 42.5846 65.5963 42.8093L63.2134 48.5667C63.1742 48.6618 63.1138 48.7449 63.0378 48.8082C62.9618 48.8716 62.8725 48.9134 62.778 48.9298C62.7475 48.9351 62.7167 48.9378 62.6859 48.9378Z" fill="#4B93E7"/>
<path d="M42.67 38.952C42.8064 39.0626 42.9633 39.1393 43.1298 39.1766C43.2963 39.2139 43.4683 39.211 43.6336 39.1679C43.7989 39.1249 43.9536 39.0429 44.0867 38.9277C44.2199 38.8124 44.3282 38.6668 44.4041 38.5009L48.5013 39.0804L47.5597 36.9764L43.8133 36.7487C43.5493 36.6281 43.254 36.6173 42.9833 36.7183C42.7125 36.8192 42.4851 37.025 42.3442 37.2966C42.2033 37.5682 42.1586 37.8867 42.2187 38.1918C42.2787 38.4969 42.4393 38.7674 42.67 38.952Z" fill="#A0616A"/>
<path d="M51.7011 40.1011C51.6297 40.1011 51.5584 40.0957 51.4878 40.0851L45.042 39.1102C44.9367 39.0944 44.8366 39.0503 44.7508 38.9818C44.665 38.9133 44.5962 38.8226 44.5505 38.7179C44.5358 38.6842 44.5235 38.6492 44.5138 38.6134C44.4888 38.5203 44.4818 38.4226 44.4933 38.3264C44.5047 38.2302 44.5343 38.1377 44.5802 38.0546L45.1136 37.0903C45.171 36.9872 45.2517 36.9019 45.348 36.8427C45.4443 36.7834 45.5529 36.752 45.6635 36.7516H45.6644L51.2829 36.7587L55.4791 32.659C55.6743 32.4687 55.9237 32.3574 56.1852 32.3439C56.4149 32.3323 56.6423 32.3968 56.8376 32.5291C57.0329 32.6613 57.1869 32.855 57.2792 33.0846C57.3715 33.3142 57.3979 33.5689 57.3547 33.8151C57.3116 34.0614 57.201 34.2876 57.0376 34.4639L52.8505 39.5421C52.7056 39.718 52.5284 39.8587 52.3303 39.955C52.1323 40.0513 51.9179 40.1011 51.7011 40.1011Z" fill="#4B93E7"/>
<path d="M57.2764 30.7664C57.5359 30.1115 57.7555 29.2393 57.2577 28.7762C56.969 28.5077 56.5532 28.5071 56.1749 28.4737C55.1092 28.3795 54.0122 27.8448 53.4914 26.8267C52.9705 25.8085 53.2614 24.2945 54.2441 23.8351C54.9065 23.5255 55.6658 23.7364 56.3592 23.9508L58.441 24.5945C59.0595 24.7858 59.709 24.9968 60.1543 25.5025C60.8645 26.309 60.8114 27.6725 60.2473 28.6063C59.6833 29.54 58.8338 30.5139 57.8613 30.8684L57.2764 30.7664Z" fill="#082777"/>
<path d="M85.9972 72.9999H0.637636C0.619524 73 0.60158 72.9962 0.584832 72.9886C0.568084 72.9811 0.552862 72.9701 0.540036 72.9561C0.52721 72.9422 0.517034 72.9256 0.510091 72.9074C0.503148 72.8891 0.499573 72.8696 0.499573 72.8498C0.499573 72.8301 0.503148 72.8105 0.510091 72.7923C0.517034 72.774 0.52721 72.7575 0.540036 72.7435C0.552862 72.7296 0.568084 72.7185 0.584832 72.711C0.60158 72.7035 0.619524 72.6997 0.637636 72.6997H85.9972C86.0153 72.6997 86.0333 72.7035 86.05 72.711C86.0668 72.7185 86.082 72.7296 86.0948 72.7435C86.1076 72.7575 86.1178 72.774 86.1247 72.7923C86.1317 72.8105 86.1353 72.8301 86.1353 72.8498C86.1353 72.8696 86.1317 72.8891 86.1247 72.9074C86.1178 72.9256 86.1076 72.9422 86.0948 72.9561C86.082 72.9701 86.0668 72.9811 86.05 72.9886C86.0333 72.9962 86.0153 73 85.9972 72.9999Z" fill="#3F3D56"/>
</g>
<defs>
<clipPath id="clip0_1_3399">
<rect width="95" height="73" fill="white" transform="translate(0.5)"/>
</clipPath>
</defs>
</svg>
