<svg width="24" height="24" viewBox="0 0 24 24" fill="none" xmlns="http://www.w3.org/2000/svg">
<path d="M12 0C18.6275 0 24 5.37258 24 12C24 18.6275 18.6275 24 12 24C5.37258 24 0 18.6275 0 12C0 5.37258 5.37258 0 12 0ZM12 6C11.6318 6 11.3256 6.26532 11.2621 6.61519L11.25 6.75V11.25H6.75C6.33579 11.25 6 11.5858 6 12C6 12.3681 6.26532 12.6744 6.61519 12.7379L6.75 12.75H11.25V17.25C11.25 17.6642 11.5858 18 12 18C12.3681 18 12.6744 17.7346 12.7379 17.3848L12.75 17.25V12.75H17.25C17.6642 12.75 18 12.4142 18 12C18 11.6318 17.7346 11.3256 17.3848 11.2621L17.25 11.25H12.75V6.75C12.75 6.33579 12.4142 6 12 6Z" fill="#4B93E7"/>
</svg>
