<svg width="23" height="19" viewBox="0 0 23 19" fill="none" xmlns="http://www.w3.org/2000/svg">
<path d="M11.0275 5.99994L14.1975 9.15994C14.1975 9.10994 14.1975 9.04994 14.1975 8.99994C14.1975 8.20429 13.8814 7.44123 13.3188 6.87862C12.7562 6.31601 11.9932 5.99994 11.1975 5.99994C11.1375 5.99994 11.0875 5.99994 11.0275 5.99994ZM6.72751 6.79994L8.27751 8.34994C8.22751 8.55994 8.19751 8.76994 8.19751 8.99994C8.19751 9.79559 8.51358 10.5587 9.07619 11.1213C9.6388 11.6839 10.4019 11.9999 11.1975 11.9999C11.4175 11.9999 11.6375 11.9699 11.8475 11.9199L13.3975 13.4699C12.7275 13.7999 11.9875 13.9999 11.1975 13.9999C9.87143 13.9999 8.59966 13.4732 7.66198 12.5355C6.72429 11.5978 6.19751 10.326 6.19751 8.99994C6.19751 8.20994 6.39751 7.46994 6.72751 6.79994ZM1.19751 1.26994L3.47751 3.54994L3.92751 3.99994C2.27751 5.29994 0.97751 6.99994 0.19751 8.99994C1.92751 13.3899 6.19751 16.4999 11.1975 16.4999C12.7475 16.4999 14.2275 16.1999 15.5775 15.6599L16.0075 16.0799L18.9275 18.9999L20.1975 17.7299L2.46751 -6.10352e-05M11.1975 3.99994C12.5236 3.99994 13.7954 4.52672 14.733 5.46441C15.6707 6.40209 16.1975 7.67386 16.1975 8.99994C16.1975 9.63994 16.0675 10.2599 15.8375 10.8199L18.7675 13.7499C20.2675 12.4999 21.4675 10.8599 22.1975 8.99994C20.4675 4.60994 16.1975 1.49994 11.1975 1.49994C9.79751 1.49994 8.45751 1.74994 7.19751 2.19994L9.36751 4.34994C9.93751 4.12994 10.5475 3.99994 11.1975 3.99994Z" fill="#91BDF5"/>
</svg>
