<svg width="32" height="32" viewBox="0 0 32 32" fill="none" xmlns="http://www.w3.org/2000/svg">
<g filter="url(#filter0_ii_75_1733)">
<path d="M32 9.14286V26.2857C32 29.3155 29.6423 31.7944 26.6614 31.9878L26.2857 32H5.71429C2.68459 32 0.205624 29.6423 0.0121547 26.6614L0 26.2857V9.14286H32ZM9.14286 20.5714C7.88049 20.5714 6.85714 21.5948 6.85714 22.8571C6.85714 24.1195 7.88049 25.1429 9.14286 25.1429C10.4052 25.1429 11.4286 24.1195 11.4286 22.8571C11.4286 21.5948 10.4052 20.5714 9.14286 20.5714ZM16 20.5714C14.7376 20.5714 13.7143 21.5948 13.7143 22.8571C13.7143 24.1195 14.7376 25.1429 16 25.1429C17.2624 25.1429 18.2857 24.1195 18.2857 22.8571C18.2857 21.5948 17.2624 20.5714 16 20.5714ZM9.14286 13.7143C7.88049 13.7143 6.85714 14.7376 6.85714 16C6.85714 17.2624 7.88049 18.2857 9.14286 18.2857C10.4052 18.2857 11.4286 17.2624 11.4286 16C11.4286 14.7376 10.4052 13.7143 9.14286 13.7143ZM16 13.7143C14.7376 13.7143 13.7143 14.7376 13.7143 16C13.7143 17.2624 14.7376 18.2857 16 18.2857C17.2624 18.2857 18.2857 17.2624 18.2857 16C18.2857 14.7376 17.2624 13.7143 16 13.7143ZM22.8571 13.7143C21.5948 13.7143 20.5714 14.7376 20.5714 16C20.5714 17.2624 21.5948 18.2857 22.8571 18.2857C24.1195 18.2857 25.1429 17.2624 25.1429 16C25.1429 14.7376 24.1195 13.7143 22.8571 13.7143ZM26.2857 0C29.3154 0 31.7944 2.35778 31.9878 5.33857L32 5.71429V6.85714H0V5.71429C0 2.68461 2.3578 0.205626 5.33857 0.0121547L5.71429 0H26.2857Z" fill="#CFD8DC"/>
<path d="M32 9.14286V26.2857C32 29.3155 29.6423 31.7944 26.6614 31.9878L26.2857 32H5.71429C2.68459 32 0.205624 29.6423 0.0121547 26.6614L0 26.2857V9.14286H32ZM9.14286 20.5714C7.88049 20.5714 6.85714 21.5948 6.85714 22.8571C6.85714 24.1195 7.88049 25.1429 9.14286 25.1429C10.4052 25.1429 11.4286 24.1195 11.4286 22.8571C11.4286 21.5948 10.4052 20.5714 9.14286 20.5714ZM16 20.5714C14.7376 20.5714 13.7143 21.5948 13.7143 22.8571C13.7143 24.1195 14.7376 25.1429 16 25.1429C17.2624 25.1429 18.2857 24.1195 18.2857 22.8571C18.2857 21.5948 17.2624 20.5714 16 20.5714ZM9.14286 13.7143C7.88049 13.7143 6.85714 14.7376 6.85714 16C6.85714 17.2624 7.88049 18.2857 9.14286 18.2857C10.4052 18.2857 11.4286 17.2624 11.4286 16C11.4286 14.7376 10.4052 13.7143 9.14286 13.7143ZM16 13.7143C14.7376 13.7143 13.7143 14.7376 13.7143 16C13.7143 17.2624 14.7376 18.2857 16 18.2857C17.2624 18.2857 18.2857 17.2624 18.2857 16C18.2857 14.7376 17.2624 13.7143 16 13.7143ZM22.8571 13.7143C21.5948 13.7143 20.5714 14.7376 20.5714 16C20.5714 17.2624 21.5948 18.2857 22.8571 18.2857C24.1195 18.2857 25.1429 17.2624 25.1429 16C25.1429 14.7376 24.1195 13.7143 22.8571 13.7143ZM26.2857 0C29.3154 0 31.7944 2.35778 31.9878 5.33857L32 5.71429V6.85714H0V5.71429C0 2.68461 2.3578 0.205626 5.33857 0.0121547L5.71429 0H26.2857Z" fill="#E6EEF8"/>
</g>
<defs>
<filter id="filter0_ii_75_1733" x="-4" y="-4" width="40" height="40" filterUnits="userSpaceOnUse" color-interpolation-filters="sRGB">
<feFlood flood-opacity="0" result="BackgroundImageFix"/>
<feBlend mode="normal" in="SourceGraphic" in2="BackgroundImageFix" result="shape"/>
<feColorMatrix in="SourceAlpha" type="matrix" values="0 0 0 0 0 0 0 0 0 0 0 0 0 0 0 0 0 0 127 0" result="hardAlpha"/>
<feOffset dx="4" dy="4"/>
<feGaussianBlur stdDeviation="6"/>
<feComposite in2="hardAlpha" operator="arithmetic" k2="-1" k3="1"/>
<feColorMatrix type="matrix" values="0 0 0 0 0.733333 0 0 0 0 0.764706 0 0 0 0 0.807843 0 0 0 0.6 0"/>
<feBlend mode="normal" in2="shape" result="effect1_innerShadow_75_1733"/>
<feColorMatrix in="SourceAlpha" type="matrix" values="0 0 0 0 0 0 0 0 0 0 0 0 0 0 0 0 0 0 127 0" result="hardAlpha"/>
<feOffset dx="-4" dy="-4"/>
<feGaussianBlur stdDeviation="6"/>
<feComposite in2="hardAlpha" operator="arithmetic" k2="-1" k3="1"/>
<feColorMatrix type="matrix" values="0 0 0 0 0.992157 0 0 0 0 1 0 0 0 0 1 0 0 0 0.8 0"/>
<feBlend mode="normal" in2="effect1_innerShadow_75_1733" result="effect2_innerShadow_75_1733"/>
</filter>
</defs>
</svg>
