<svg width="35" height="32" viewBox="0 0 35 32" fill="none" xmlns="http://www.w3.org/2000/svg">
<g filter="url(#filter0_ii_1_3880)">
<path d="M18.8954 17.4533C21.3052 17.4533 23.2588 19.4068 23.2588 21.8166L23.2565 23.9935C23.5557 29.3358 19.441 32 11.8106 32C4.20484 32 0 29.3707 0 24.0697V21.8166C0 19.4068 1.95352 17.4533 4.36331 17.4533H18.8954ZM30.5327 17.4533C32.9425 17.4533 34.896 19.4068 34.896 21.8166L34.8938 23.3483C35.1568 28.1406 31.5211 30.5432 24.8755 30.5432V30.5432C23.8793 30.5432 23.4164 29.2838 23.8703 28.397C24.4352 27.2931 24.7286 26.0078 24.7269 24.5409L24.7086 23.9121L24.7132 21.8166V21.8166C24.7132 20.0976 25.9593 17.4526 27.6783 17.4528L30.5327 17.4533ZM11.6355 0C15.6525 0 18.9089 3.2564 18.9089 7.27337C18.9089 11.2903 15.6525 14.5467 11.6355 14.5467C7.61854 14.5467 4.36214 11.2903 4.36214 7.27337C4.36214 3.2564 7.61854 0 11.6355 0ZM26.1799 2.90888C29.3929 2.90888 31.9976 5.51357 31.9976 8.72663C31.9976 11.9397 29.3929 14.5444 26.1799 14.5444C22.9668 14.5444 20.3621 11.9397 20.3621 8.72663C20.3621 5.51357 22.9668 2.90888 26.1799 2.90888Z" fill="#CFD8DC"/>
<path d="M18.8954 17.4533C21.3052 17.4533 23.2588 19.4068 23.2588 21.8166L23.2565 23.9935C23.5557 29.3358 19.441 32 11.8106 32C4.20484 32 0 29.3707 0 24.0697V21.8166C0 19.4068 1.95352 17.4533 4.36331 17.4533H18.8954ZM30.5327 17.4533C32.9425 17.4533 34.896 19.4068 34.896 21.8166L34.8938 23.3483C35.1568 28.1406 31.5211 30.5432 24.8755 30.5432V30.5432C23.8793 30.5432 23.4164 29.2838 23.8703 28.397C24.4352 27.2931 24.7286 26.0078 24.7269 24.5409L24.7086 23.9121L24.7132 21.8166V21.8166C24.7132 20.0976 25.9593 17.4526 27.6783 17.4528L30.5327 17.4533ZM11.6355 0C15.6525 0 18.9089 3.2564 18.9089 7.27337C18.9089 11.2903 15.6525 14.5467 11.6355 14.5467C7.61854 14.5467 4.36214 11.2903 4.36214 7.27337C4.36214 3.2564 7.61854 0 11.6355 0ZM26.1799 2.90888C29.3929 2.90888 31.9976 5.51357 31.9976 8.72663C31.9976 11.9397 29.3929 14.5444 26.1799 14.5444C22.9668 14.5444 20.3621 11.9397 20.3621 8.72663C20.3621 5.51357 22.9668 2.90888 26.1799 2.90888Z" fill="#E6EEF8"/>
</g>
<defs>
<filter id="filter0_ii_1_3880" x="-4" y="-4" width="42.9072" height="40" filterUnits="userSpaceOnUse" color-interpolation-filters="sRGB">
<feFlood flood-opacity="0" result="BackgroundImageFix"/>
<feBlend mode="normal" in="SourceGraphic" in2="BackgroundImageFix" result="shape"/>
<feColorMatrix in="SourceAlpha" type="matrix" values="0 0 0 0 0 0 0 0 0 0 0 0 0 0 0 0 0 0 127 0" result="hardAlpha"/>
<feOffset dx="4" dy="4"/>
<feGaussianBlur stdDeviation="6"/>
<feComposite in2="hardAlpha" operator="arithmetic" k2="-1" k3="1"/>
<feColorMatrix type="matrix" values="0 0 0 0 0.733333 0 0 0 0 0.764706 0 0 0 0 0.807843 0 0 0 0.6 0"/>
<feBlend mode="normal" in2="shape" result="effect1_innerShadow_1_3880"/>
<feColorMatrix in="SourceAlpha" type="matrix" values="0 0 0 0 0 0 0 0 0 0 0 0 0 0 0 0 0 0 127 0" result="hardAlpha"/>
<feOffset dx="-4" dy="-4"/>
<feGaussianBlur stdDeviation="6"/>
<feComposite in2="hardAlpha" operator="arithmetic" k2="-1" k3="1"/>
<feColorMatrix type="matrix" values="0 0 0 0 0.992157 0 0 0 0 1 0 0 0 0 1 0 0 0 0.8 0"/>
<feBlend mode="normal" in2="effect1_innerShadow_1_3880" result="effect2_innerShadow_1_3880"/>
</filter>
</defs>
</svg>
