<svg width="140" height="144" viewBox="0 0 140 144" fill="none" xmlns="http://www.w3.org/2000/svg">
<g filter="url(#filter0_dd_1_4637)">
<path d="M67.8954 73.4533C70.3052 73.4533 72.2588 75.4068 72.2588 77.8166L72.2565 79.9935C72.5557 85.3358 68.441 88 60.8106 88C53.2048 88 49 85.3707 49 80.0697V77.8166C49 75.4068 50.9535 73.4533 53.3633 73.4533H67.8954ZM79.5327 73.4533C81.9425 73.4533 83.896 75.4068 83.896 77.8166L83.8938 79.3483C84.1568 84.1406 80.5211 86.5432 73.8755 86.5432V86.5432C72.8793 86.5432 72.4164 85.2838 72.8703 84.397C73.4352 83.2931 73.7286 82.0078 73.7269 80.5409L73.7086 79.9121L73.7132 77.8166V77.8166C73.7132 76.0976 74.9593 73.4526 76.6783 73.4528L79.5327 73.4533ZM60.6355 56C64.6525 56 67.9089 59.2564 67.9089 63.2734C67.9089 67.2903 64.6525 70.5467 60.6355 70.5467C56.6185 70.5467 53.3621 67.2903 53.3621 63.2734C53.3621 59.2564 56.6185 56 60.6355 56ZM75.1799 58.9089C78.3929 58.9089 80.9976 61.5136 80.9976 64.7266C80.9976 67.9397 78.3929 70.5444 75.1799 70.5444C71.9668 70.5444 69.3621 67.9397 69.3621 64.7266C69.3621 61.5136 71.9668 58.9089 75.1799 58.9089Z" fill="#CFD8DC"/>
<path d="M67.8954 73.4533C70.3052 73.4533 72.2588 75.4068 72.2588 77.8166L72.2565 79.9935C72.5557 85.3358 68.441 88 60.8106 88C53.2048 88 49 85.3707 49 80.0697V77.8166C49 75.4068 50.9535 73.4533 53.3633 73.4533H67.8954ZM79.5327 73.4533C81.9425 73.4533 83.896 75.4068 83.896 77.8166L83.8938 79.3483C84.1568 84.1406 80.5211 86.5432 73.8755 86.5432V86.5432C72.8793 86.5432 72.4164 85.2838 72.8703 84.397C73.4352 83.2931 73.7286 82.0078 73.7269 80.5409L73.7086 79.9121L73.7132 77.8166V77.8166C73.7132 76.0976 74.9593 73.4526 76.6783 73.4528L79.5327 73.4533ZM60.6355 56C64.6525 56 67.9089 59.2564 67.9089 63.2734C67.9089 67.2903 64.6525 70.5467 60.6355 70.5467C56.6185 70.5467 53.3621 67.2903 53.3621 63.2734C53.3621 59.2564 56.6185 56 60.6355 56ZM75.1799 58.9089C78.3929 58.9089 80.9976 61.5136 80.9976 64.7266C80.9976 67.9397 78.3929 70.5444 75.1799 70.5444C71.9668 70.5444 69.3621 67.9397 69.3621 64.7266C69.3621 61.5136 71.9668 58.9089 75.1799 58.9089Z" fill="#F0F7FF"/>
</g>
<defs>
<filter id="filter0_dd_1_4637" x="-7" y="0" width="146.907" height="144" filterUnits="userSpaceOnUse" color-interpolation-filters="sRGB">
<feFlood flood-opacity="0" result="BackgroundImageFix"/>
<feColorMatrix in="SourceAlpha" type="matrix" values="0 0 0 0 0 0 0 0 0 0 0 0 0 0 0 0 0 0 127 0" result="hardAlpha"/>
<feOffset dx="16" dy="16"/>
<feGaussianBlur stdDeviation="20"/>
<feColorMatrix type="matrix" values="0 0 0 0 0.733333 0 0 0 0 0.764706 0 0 0 0 0.807843 0 0 0 0.6 0"/>
<feBlend mode="normal" in2="BackgroundImageFix" result="effect1_dropShadow_1_4637"/>
<feColorMatrix in="SourceAlpha" type="matrix" values="0 0 0 0 0 0 0 0 0 0 0 0 0 0 0 0 0 0 127 0" result="hardAlpha"/>
<feOffset dx="-16" dy="-16"/>
<feGaussianBlur stdDeviation="20"/>
<feColorMatrix type="matrix" values="0 0 0 0 0.992157 0 0 0 0 1 0 0 0 0 1 0 0 0 0.8 0"/>
<feBlend mode="normal" in2="effect1_dropShadow_1_4637" result="effect2_dropShadow_1_4637"/>
<feBlend mode="normal" in="SourceGraphic" in2="effect2_dropShadow_1_4637" result="shape"/>
</filter>
</defs>
</svg>
