<svg width="16" height="17" viewBox="0 0 16 17" fill="none" xmlns="http://www.w3.org/2000/svg">
<path d="M9.8351 8.14249C9.7571 8.0645 9.7571 7.9375 9.8351 7.85951L13.6498 4.04866C14.1167 3.57968 14.1167 2.82072 13.6498 2.35174C13.1828 1.88275 12.4269 1.88275 11.9599 2.35174L8.14224 6.16558C8.06424 6.24357 7.93726 6.24357 7.85926 6.16558L4.04958 2.35074C3.58062 1.88375 2.82068 1.88375 2.35172 2.35074C1.88276 2.81772 1.88276 3.57368 2.35172 4.04066L6.1654 7.85751C6.2434 7.9355 6.2434 8.0625 6.1654 8.14049L2.35072 11.9513C1.88376 12.4203 1.88376 13.1793 2.35072 13.6483C2.81768 14.1172 3.57362 14.1172 4.04058 13.6483L7.85726 9.83442C7.93526 9.75643 8.06224 9.75643 8.14024 9.83442L11.9509 13.6493C12.4199 14.1162 13.1788 14.1162 13.6478 13.6493C14.1167 13.1823 14.1167 12.4263 13.6478 11.9593L9.8351 8.14249Z" fill="url(#paint0_linear_1_1742)"/>
<path opacity="0.2" d="M3.20065 2.30003C3.44163 2.30003 3.66761 2.39303 3.8366 2.56205L7.64728 6.37737C7.74127 6.47237 7.86726 6.52438 8.00125 6.52438C8.13424 6.52438 8.26023 6.47237 8.35422 6.37836L12.1719 2.56405C12.3409 2.39403 12.5659 2.30103 12.8048 2.30103C13.0438 2.30103 13.2688 2.39403 13.4378 2.56405C13.7878 2.91508 13.7878 3.48712 13.4388 3.83715L9.62311 7.64747C9.42813 7.84249 9.42813 8.15951 9.62311 8.35453L13.4368 12.1728C13.6068 12.3419 13.6998 12.5669 13.6998 12.8059C13.6998 13.0449 13.6068 13.2699 13.4368 13.439C13.2668 13.608 13.0408 13.702 12.7998 13.702C12.5589 13.702 12.3329 13.609 12.1639 13.44L8.35322 9.62364C8.25923 9.52863 8.13324 9.47662 7.99925 9.47662C7.86626 9.47662 7.74027 9.52863 7.64628 9.62264L3.8286 13.437C3.65961 13.607 3.43463 13.7 3.19565 13.7C2.95667 13.7 2.73169 13.607 2.5627 13.437C2.21273 13.0859 2.21273 12.5139 2.5617 12.1638L6.37638 8.35253C6.57137 8.15751 6.57137 7.84049 6.37638 7.64547L2.5637 3.82815C2.39372 3.65914 2.30072 3.43412 2.30072 3.1951C2.30072 2.95608 2.39372 2.73106 2.5637 2.56205C2.73369 2.39303 2.95967 2.30003 3.20065 2.30003ZM3.20065 2C2.89368 2 2.5867 2.11701 2.35172 2.35003C1.88276 2.81707 1.88276 3.57313 2.35172 4.04017L6.1654 7.85749C6.2434 7.93549 6.2434 8.06251 6.1654 8.14051L2.35072 11.9518C1.88376 12.4209 1.88376 13.1799 2.35072 13.649C2.5837 13.883 2.88968 14 3.19565 14C3.50162 14 3.8076 13.883 4.04058 13.649L7.85726 9.83465C7.89626 9.79565 7.94725 9.77565 7.99825 9.77565C8.04925 9.77565 8.10024 9.79565 8.13924 9.83465L11.9499 13.65C12.1839 13.883 12.4909 14 12.7988 14C13.1068 14 13.4128 13.883 13.6478 13.65C14.1167 13.1829 14.1167 12.4269 13.6478 11.9598L9.8351 8.14251C9.7571 8.06451 9.7571 7.9375 9.8351 7.85949L13.6498 4.04817C14.1167 3.57913 14.1167 2.82007 13.6498 2.35103C13.4168 2.11701 13.1108 2 12.8048 2C12.4989 2 12.1929 2.11701 11.9599 2.35103L8.14224 6.16535C8.10324 6.20435 8.05225 6.22435 8.00125 6.22435C7.95025 6.22435 7.89926 6.20435 7.86026 6.16535L4.04958 2.35003C3.8146 2.11701 3.50762 2 3.20065 2Z" fill="#424242"/>
<defs>
<linearGradient id="paint0_linear_1_1742" x1="8.00025" y1="1.89103" x2="8.00025" y2="13.8123" gradientUnits="userSpaceOnUse">
<stop stop-color="#FF5252"/>
<stop offset="0.4455" stop-color="#EE3030"/>
<stop offset="1" stop-color="#D50000"/>
</linearGradient>
</defs>
</svg>
