<svg width="23" height="15" viewBox="0 0 23 15" fill="none" xmlns="http://www.w3.org/2000/svg">
<path d="M11.3334 2.275C15.1234 2.275 18.5034 4.2985 20.1534 7.5C18.5034 10.7015 15.1334 12.725 11.3334 12.725C7.53337 12.725 4.16337 10.7015 2.51337 7.5C4.16337 4.2985 7.54337 2.275 11.3334 2.275ZM11.3334 0.375C6.33337 0.375 2.06337 3.3295 0.333374 7.5C2.06337 11.6705 6.33337 14.625 11.3334 14.625C16.3334 14.625 20.6034 11.6705 22.3334 7.5C20.6034 3.3295 16.3334 0.375 11.3334 0.375ZM11.3334 5.125C12.7134 5.125 13.8334 6.189 13.8334 7.5C13.8334 8.811 12.7134 9.875 11.3334 9.875C9.95337 9.875 8.83337 8.811 8.83337 7.5C8.83337 6.189 9.95337 5.125 11.3334 5.125ZM11.3334 3.225C8.85337 3.225 6.83337 5.144 6.83337 7.5C6.83337 9.856 8.85337 11.775 11.3334 11.775C13.8134 11.775 15.8334 9.856 15.8334 7.5C15.8334 5.144 13.8134 3.225 11.3334 3.225Z" fill="#91BDF5"/>
</svg>
