<svg width="25" height="24" viewBox="0 0 25 24" fill="none" xmlns="http://www.w3.org/2000/svg">
<path d="M12.8027 10.2847V14.3977H19.6112C19.3337 16.1632 17.5525 19.5734 12.8027 19.5734C8.70923 19.5734 5.36498 16.1827 5.36498 11.9992C5.36498 7.81569 8.70848 4.42494 12.8027 4.42494C15.1345 4.42494 16.6975 5.41344 17.5877 6.27294L20.842 3.13644C18.7525 1.18719 16.045 -6.10352e-05 12.8027 -6.10352e-05C6.16973 -6.10352e-05 0.802734 5.36319 0.802734 11.9999C0.802734 18.6367 6.16973 23.9999 12.8027 23.9999C19.7282 23.9999 24.3265 19.1324 24.3265 12.2737C24.3265 11.4847 24.2402 10.8832 24.1352 10.2854L12.8027 10.2847Z" fill="#E6EEF8"/>
</svg>
