<svg width="16" height="16" viewBox="0 0 16 16" fill="none" xmlns="http://www.w3.org/2000/svg">
<path d="M14.8149 0H1.18111C0.529111 0 0 0.516667 0 1.15289V14.8456C0 15.4827 0.529111 16 1.18111 16H14.8149C15.4673 16 16 15.4827 16 14.8456V1.15289C16 0.516667 15.4673 0 14.8149 0ZM4.74533 13.6342H2.37111V5.99889H4.74533V13.6342ZM3.55822 4.95489C2.79756 4.95489 2.18267 4.33844 2.18267 3.57844C2.18267 2.81956 2.79756 2.20311 3.55822 2.20311C4.31711 2.20311 4.93356 2.81956 4.93356 3.57844C4.93356 4.33844 4.31711 4.95489 3.55822 4.95489ZM13.6333 13.6342H11.2629V9.92133C11.2629 9.03556 11.2456 7.89667 10.0293 7.89667C8.79422 7.89667 8.606 8.86133 8.606 9.85711V13.6344H6.23378V5.99889H8.51044V7.04156H8.54289C8.85978 6.44156 9.634 5.80844 10.7887 5.80844C13.19 5.80844 13.6336 7.38933 13.6336 9.446L13.6333 13.6342Z" fill="#4B93E7"/>
</svg>
