<svg width="22" height="22" viewBox="0 0 22 22" fill="none" xmlns="http://www.w3.org/2000/svg">
<path d="M8.25 0C6.73123 0 5.5 1.23123 5.5 2.75V4.125C5.5 4.88439 4.88439 5.5 4.125 5.5V5.5C1.84682 5.5 0 7.34682 0 9.625V17.875C0 20.1532 1.84682 22 4.125 22H17.875C20.1532 22 22 20.1532 22 17.875V9.625C22 7.34682 20.1532 5.5 17.875 5.5V5.5C17.1156 5.5 16.5 4.88439 16.5 4.125V2.75C16.5 1.23123 15.2688 0 13.75 0H8.25ZM13.75 4.125C13.75 4.88439 13.1344 5.5 12.375 5.5H9.625C8.86561 5.5 8.25 4.88439 8.25 4.125V4.125C8.25 3.36561 8.86561 2.75 9.625 2.75H12.375C13.1344 2.75 13.75 3.36561 13.75 4.125V4.125Z" fill="#CFD8DC"/>
<path d="M8.25 0C6.73123 0 5.5 1.23123 5.5 2.75V4.125C5.5 4.88439 4.88439 5.5 4.125 5.5V5.5C1.84682 5.5 0 7.34682 0 9.625V17.875C0 20.1532 1.84682 22 4.125 22H17.875C20.1532 22 22 20.1532 22 17.875V9.625C22 7.34682 20.1532 5.5 17.875 5.5V5.5C17.1156 5.5 16.5 4.88439 16.5 4.125V2.75C16.5 1.23123 15.2688 0 13.75 0H8.25ZM13.75 4.125C13.75 4.88439 13.1344 5.5 12.375 5.5H9.625C8.86561 5.5 8.25 4.88439 8.25 4.125V4.125C8.25 3.36561 8.86561 2.75 9.625 2.75H12.375C13.1344 2.75 13.75 3.36561 13.75 4.125V4.125Z" fill="white"/>
</svg>
