<svg width="32" height="32" viewBox="0 0 32 32" fill="none" xmlns="http://www.w3.org/2000/svg">
<g filter="url(#filter0_ii_1_3592)">
<path d="M12 0C9.79088 0 8 1.79088 8 4V6C8 7.10457 7.10457 8 6 8V8C2.68628 8 0 10.6863 0 14V26C0 29.3137 2.68628 32 6 32H26C29.3137 32 32 29.3137 32 26V14C32 10.6863 29.3137 8 26 8V8C24.8954 8 24 7.10457 24 6V4C24 1.79088 22.2091 0 20 0H12ZM20 6C20 7.10457 19.1046 8 18 8H14C12.8954 8 12 7.10457 12 6V6C12 4.89543 12.8954 4 14 4H18C19.1046 4 20 4.89543 20 6V6Z" fill="#CFD8DC"/>
<path d="M12 0C9.79088 0 8 1.79088 8 4V6C8 7.10457 7.10457 8 6 8V8C2.68628 8 0 10.6863 0 14V26C0 29.3137 2.68628 32 6 32H26C29.3137 32 32 29.3137 32 26V14C32 10.6863 29.3137 8 26 8V8C24.8954 8 24 7.10457 24 6V4C24 1.79088 22.2091 0 20 0H12ZM20 6C20 7.10457 19.1046 8 18 8H14C12.8954 8 12 7.10457 12 6V6C12 4.89543 12.8954 4 14 4H18C19.1046 4 20 4.89543 20 6V6Z" fill="#E6EEF8"/>
</g>
<defs>
<filter id="filter0_ii_1_3592" x="-4" y="-4" width="40" height="40" filterUnits="userSpaceOnUse" color-interpolation-filters="sRGB">
<feFlood flood-opacity="0" result="BackgroundImageFix"/>
<feBlend mode="normal" in="SourceGraphic" in2="BackgroundImageFix" result="shape"/>
<feColorMatrix in="SourceAlpha" type="matrix" values="0 0 0 0 0 0 0 0 0 0 0 0 0 0 0 0 0 0 127 0" result="hardAlpha"/>
<feOffset dx="4" dy="4"/>
<feGaussianBlur stdDeviation="6"/>
<feComposite in2="hardAlpha" operator="arithmetic" k2="-1" k3="1"/>
<feColorMatrix type="matrix" values="0 0 0 0 0.733333 0 0 0 0 0.764706 0 0 0 0 0.807843 0 0 0 0.6 0"/>
<feBlend mode="normal" in2="shape" result="effect1_innerShadow_1_3592"/>
<feColorMatrix in="SourceAlpha" type="matrix" values="0 0 0 0 0 0 0 0 0 0 0 0 0 0 0 0 0 0 127 0" result="hardAlpha"/>
<feOffset dx="-4" dy="-4"/>
<feGaussianBlur stdDeviation="6"/>
<feComposite in2="hardAlpha" operator="arithmetic" k2="-1" k3="1"/>
<feColorMatrix type="matrix" values="0 0 0 0 0.992157 0 0 0 0 1 0 0 0 0 1 0 0 0 0.8 0"/>
<feBlend mode="normal" in2="effect1_innerShadow_1_3592" result="effect2_innerShadow_1_3592"/>
</filter>
</defs>
</svg>
