<svg width="256" height="228" viewBox="0 0 256 228" fill="none" xmlns="http://www.w3.org/2000/svg">
<g clip-path="url(#clip0_1_202)">
<path d="M46.1253 156.777C45.9002 156.777 45.6766 156.742 45.4624 156.673C45.1913 156.587 44.9399 156.448 44.7227 156.265C44.5055 156.081 44.3269 155.856 44.1972 155.602L42.1058 151.54C41.8434 151.029 41.7941 150.434 41.9688 149.887C42.1436 149.339 42.528 148.884 43.0378 148.62L76.8466 131.162C77.357 130.899 77.9506 130.85 78.4972 131.025C79.0439 131.2 79.4988 131.585 79.7624 132.095L81.8537 136.158C82.1162 136.669 82.1654 137.264 81.9907 137.811C81.8159 138.359 81.4315 138.814 80.9217 139.078L47.113 156.536C46.8077 156.694 46.469 156.777 46.1253 156.777Z" fill="#4B93E7"/>
<path d="M58.3893 140.949C58.4799 141.074 58.5569 141.208 58.6191 141.35L62.1917 149.164C62.3068 149.424 62.3696 149.705 62.3764 149.989C62.3832 150.274 62.3338 150.558 62.2312 150.823C62.1286 151.089 61.9747 151.332 61.7783 151.538C61.582 151.744 61.347 151.909 61.0868 152.024L49.071 156.23C47.8212 156.667 46.4549 156.63 45.2309 156.125C44.0069 155.621 43.0104 154.684 42.4301 153.492C41.8227 152.245 41.7169 150.812 42.1343 149.489C42.5517 148.167 43.4606 147.055 44.6731 146.384L55.7526 140.249C56.2057 140.045 56.7148 140.004 57.1947 140.131C57.6746 140.259 58.0963 140.548 58.3893 140.949Z" fill="#082777"/>
<path d="M199.877 120.495H141.995C140.678 120.491 139.406 120.01 138.415 119.141L114.574 98.0811C113.755 97.3571 112.701 96.9578 111.609 96.9585H91.0333V25.8846C91.0349 24.5299 91.5729 23.231 92.5294 22.2731C93.4859 21.3151 94.7827 20.7763 96.1354 20.7747H194.775C196.128 20.7763 197.425 21.3151 198.381 22.2731C199.338 23.231 199.876 24.5299 199.877 25.8846L199.877 120.495Z" fill="white"/>
<path d="M114.688 53.7567C120.665 53.7567 125.511 48.9039 125.511 42.9176C125.511 36.9313 120.665 32.0784 114.688 32.0784C108.711 32.0784 103.866 36.9313 103.866 42.9176C103.866 48.9039 108.711 53.7567 114.688 53.7567Z" fill="#EBEBEB"/>
<path d="M156.742 37.1109H136.643C136.274 37.1109 135.92 37.2577 135.659 37.5191C135.398 37.7804 135.251 38.1349 135.251 38.5045C135.251 38.8741 135.398 39.2286 135.659 39.4899C135.92 39.7513 136.274 39.8981 136.643 39.8981H156.742C157.111 39.8981 157.465 39.7513 157.726 39.4899C157.987 39.2286 158.133 38.8741 158.133 38.5045C158.133 38.1349 157.987 37.7804 157.726 37.5191C157.465 37.2577 157.111 37.1109 156.742 37.1109Z" fill="#EBEBEB"/>
<path d="M185.919 45.9371H136.377C135.755 45.9371 135.251 46.5626 135.251 47.3307C135.251 48.0987 135.755 48.7243 136.377 48.7243H185.919C186.541 48.7243 187.045 48.0987 187.045 47.3307C187.045 46.5626 186.541 45.9371 185.919 45.9371Z" fill="#EBEBEB"/>
<path d="M182.026 64.5959H108.884C108.291 64.5959 107.808 65.2215 107.808 65.9895C107.808 66.7575 108.291 67.3831 108.884 67.3831H182.026C182.62 67.3831 183.102 66.7575 183.102 65.9895C183.102 65.2215 182.62 64.5959 182.026 64.5959Z" fill="#EBEBEB"/>
<path d="M182.026 73.2672H108.884C108.291 73.2672 107.808 73.8928 107.808 74.6608C107.808 75.4288 108.291 76.0544 108.884 76.0544H182.026C182.62 76.0544 183.102 75.4288 183.102 74.6608C183.102 73.8928 182.62 73.2672 182.026 73.2672Z" fill="#EBEBEB"/>
<path d="M182.026 81.9385H108.884C108.291 81.9385 107.808 82.5641 107.808 83.3321C107.808 84.1002 108.291 84.7257 108.884 84.7257H182.026C182.62 84.7257 183.102 84.1002 183.102 83.3321C183.102 82.5641 182.62 81.9385 182.026 81.9385Z" fill="#EBEBEB"/>
<path d="M182.026 90.6099H108.884C108.291 90.6099 107.808 91.2354 107.808 92.0035C107.808 92.7715 108.291 93.3971 108.884 93.3971H182.026C182.62 93.3971 183.102 92.7715 183.102 92.0035C183.102 91.2354 182.62 90.6099 182.026 90.6099Z" fill="#EBEBEB"/>
<path d="M247.806 120.495H141.995C140.942 120.497 139.911 120.188 139.031 119.608L138.962 119.563V47.2533C138.963 45.8985 139.501 44.5997 140.458 43.6417C141.414 42.6838 142.711 42.1449 144.064 42.1434H242.704C244.056 42.1449 245.353 42.6838 246.31 43.6417C247.266 44.5997 247.804 45.8985 247.806 47.2533L247.806 120.495Z" fill="#4B93E7"/>
<path d="M162.617 75.1254C168.594 75.1254 173.439 70.2725 173.439 64.2862C173.439 58.2999 168.594 53.4471 162.617 53.4471C156.64 53.4471 151.794 58.2999 151.794 64.2862C151.794 70.2725 156.64 75.1254 162.617 75.1254Z" fill="#EBEBEB"/>
<path d="M204.67 58.4795H184.571C184.202 58.4795 183.848 58.6263 183.587 58.8877C183.326 59.149 183.18 59.5035 183.18 59.8731C183.18 60.2427 183.326 60.5972 183.587 60.8585C183.848 61.1199 184.202 61.2667 184.571 61.2667H204.67C205.039 61.2667 205.393 61.1199 205.654 60.8585C205.915 60.5972 206.062 60.2427 206.062 59.8731C206.062 59.5035 205.915 59.149 205.654 58.8877C205.393 58.6263 205.039 58.4795 204.67 58.4795Z" fill="#EBEBEB"/>
<path d="M233.848 67.3057H184.305C183.684 67.3057 183.18 67.9312 183.18 68.6993C183.18 69.4673 183.684 70.0929 184.305 70.0929H233.848C234.469 70.0929 234.973 69.4673 234.973 68.6993C234.973 67.9312 234.469 67.3057 233.848 67.3057Z" fill="#EBEBEB"/>
<path d="M229.955 85.9645H156.813C156.219 85.9645 155.737 86.5901 155.737 87.3581C155.737 88.1261 156.219 88.7517 156.813 88.7517H229.955C230.549 88.7517 231.031 88.1261 231.031 87.3581C231.031 86.5901 230.549 85.9645 229.955 85.9645Z" fill="#EBEBEB"/>
<path d="M229.955 94.6358H156.813C156.219 94.6358 155.737 95.2614 155.737 96.0294C155.737 96.7975 156.219 97.423 156.813 97.423H229.955C230.549 97.423 231.031 96.7975 231.031 96.0294C231.031 95.2614 230.549 94.6358 229.955 94.6358Z" fill="#EBEBEB"/>
<path d="M229.955 103.307H156.813C156.219 103.307 155.737 103.933 155.737 104.701C155.737 105.469 156.219 106.094 156.813 106.094H229.955C230.549 106.094 231.031 105.469 231.031 104.701C231.031 103.933 230.549 103.307 229.955 103.307Z" fill="#EBEBEB"/>
<path d="M229.955 111.978H156.813C156.219 111.978 155.737 112.604 155.737 113.372C155.737 114.14 156.219 114.766 156.813 114.766H229.955C230.549 114.766 231.031 114.14 231.031 113.372C231.031 112.604 230.549 111.978 229.955 111.978Z" fill="#EBEBEB"/>
<path d="M250.743 119.721H141.995C140.95 119.722 139.935 119.368 139.116 118.717C139.051 118.668 138.99 118.615 138.928 118.559L129.722 110.43L115.084 97.5004C114.125 96.6519 112.889 96.1838 111.609 96.1843H85.0036C83.6101 96.1862 82.2742 96.7416 81.2888 97.7285C80.3034 98.7154 79.7489 100.053 79.7469 101.449V221.918C79.7489 223.314 80.3034 224.652 81.2888 225.639C82.2742 226.626 83.6101 227.181 85.0036 227.183H250.743C252.137 227.181 253.473 226.626 254.458 225.639C255.444 224.652 255.998 223.314 256 221.918V124.985C255.998 123.59 255.444 122.252 254.458 121.265C253.473 120.278 252.137 119.723 250.743 119.721ZM255.382 221.918C255.38 223.15 254.891 224.331 254.022 225.202C253.152 226.072 251.973 226.562 250.743 226.564H85.0036C83.7739 226.562 82.5951 226.072 81.7255 225.202C80.856 224.331 80.3669 223.15 80.3654 221.918V101.449C80.3669 100.217 80.856 99.0367 81.7255 98.1659C82.5951 97.295 83.7739 96.8051 85.0036 96.8036H111.609C112.738 96.8028 113.829 97.2158 114.676 97.965L128.789 110.43L138.517 119.024C139.479 119.869 140.715 120.336 141.995 120.34H250.743C251.973 120.342 253.152 120.831 254.022 121.702C254.891 122.573 255.38 123.754 255.382 124.985V221.918Z" fill="#4B93E7"/>
<path d="M31.9279 138.33C41.0676 138.33 48.4769 130.91 48.4769 121.756C48.4769 112.602 41.0676 105.182 31.9279 105.182C22.7881 105.182 15.3789 112.602 15.3789 121.756C15.3789 130.91 22.7881 138.33 31.9279 138.33Z" fill="#4B93E7"/>
<path d="M31.794 227.003H27.2302C26.6563 227.002 26.1061 226.774 25.7004 226.367C25.2946 225.961 25.0663 225.41 25.0657 224.835V186.739C25.0663 186.164 25.2946 185.613 25.7004 185.207C26.1061 184.8 26.6563 184.572 27.2302 184.571H31.794C32.3679 184.572 32.918 184.8 33.3238 185.207C33.7296 185.613 33.9579 186.164 33.9585 186.739V224.835C33.9579 225.41 33.7296 225.961 33.3238 226.367C32.918 226.774 32.3679 227.002 31.794 227.003Z" fill="#4B93E7"/>
<path d="M41.6889 227.003H37.1251C36.5512 227.002 36.001 226.774 35.5953 226.367C35.1895 225.961 34.9612 225.41 34.9606 224.835V186.739C34.9612 186.164 35.1895 185.613 35.5953 185.207C36.001 184.8 36.5512 184.572 37.1251 184.571H41.6889C42.2628 184.572 42.8129 184.8 43.2187 185.207C43.6245 185.613 43.8528 186.164 43.8534 186.739V224.835C43.8528 225.41 43.6245 225.961 43.2187 226.367C42.8129 226.774 42.2628 227.002 41.6889 227.003Z" fill="#4B93E7"/>
<path d="M58.2618 178.304C58.2618 191.816 45.5712 196.175 32.0799 196.175C18.5887 196.175 9.40564 191.816 9.40564 178.304C9.40564 164.792 18.4872 141.761 31.9784 141.761C45.4697 141.761 58.2618 164.792 58.2618 178.304Z" fill="#082777"/>
<path d="M31.5802 127.899L31.563 127.28C32.7135 127.248 33.7278 127.175 34.49 126.618C34.7061 126.451 34.8837 126.239 35.0107 125.997C35.1378 125.755 35.2113 125.488 35.2263 125.215C35.2397 125.048 35.2145 124.881 35.1527 124.725C35.0909 124.57 34.9941 124.431 34.8698 124.319C34.3639 123.891 33.5498 124.029 32.9564 124.302L32.4447 124.537L33.426 117.355L34.0387 117.439L33.204 123.548C34.0103 123.311 34.7574 123.413 35.269 123.846C35.4655 124.018 35.6197 124.233 35.7195 124.474C35.8192 124.715 35.862 124.976 35.8443 125.237C35.8262 125.604 35.7283 125.962 35.5574 126.287C35.3864 126.612 35.1466 126.896 34.8547 127.118C33.8755 127.835 32.6028 127.87 31.5802 127.899Z" fill="#082777"/>
<path d="M40.3994 117.966H37.0687V118.585H40.3994V117.966Z" fill="#082777"/>
<path d="M29.8861 117.966H26.5554V118.585H29.8861V117.966Z" fill="#082777"/>
<path d="M215.802 205.815H124.893C123.663 205.813 122.484 205.323 121.614 204.452C120.745 203.582 120.256 202.401 120.254 201.169V150.999C120.256 149.768 120.745 148.587 121.614 147.716C122.484 146.845 123.663 146.355 124.893 146.354H215.802C217.032 146.355 218.211 146.845 219.08 147.716C219.95 148.587 220.439 149.768 220.44 150.999V201.169C220.439 202.401 219.95 203.582 219.08 204.452C218.211 205.323 217.032 205.813 215.802 205.815ZM124.893 146.973C123.827 146.975 122.805 147.399 122.051 148.154C121.298 148.909 120.874 149.932 120.873 150.999V201.169C120.874 202.237 121.298 203.26 122.051 204.015C122.805 204.769 123.827 205.194 124.893 205.195H215.802C216.868 205.194 217.89 204.769 218.643 204.015C219.397 203.26 219.821 202.237 219.822 201.169V150.999C219.821 149.932 219.397 148.909 218.643 148.154C217.89 147.399 216.868 146.975 215.802 146.973H124.893Z" fill="white"/>
<path d="M139.58 175.775C145.557 175.775 150.403 170.922 150.403 164.935C150.403 158.949 145.557 154.096 139.58 154.096C133.603 154.096 128.758 158.949 128.758 164.935C128.758 170.922 133.603 175.775 139.58 175.775Z" fill="white"/>
<path d="M181.634 159.129H161.535C161.166 159.129 160.812 159.276 160.551 159.537C160.29 159.798 160.143 160.153 160.143 160.522C160.143 160.892 160.29 161.246 160.551 161.508C160.812 161.769 161.166 161.916 161.535 161.916H181.634C182.003 161.916 182.357 161.769 182.618 161.508C182.879 161.246 183.025 160.892 183.025 160.522C183.025 160.153 182.879 159.798 182.618 159.537C182.357 159.276 182.003 159.129 181.634 159.129Z" fill="white"/>
<path d="M210.811 167.955H161.269C160.647 167.955 160.143 168.581 160.143 169.349C160.143 170.117 160.647 170.742 161.269 170.742H210.811C211.433 170.742 211.937 170.117 211.937 169.349C211.937 168.581 211.433 167.955 210.811 167.955Z" fill="white"/>
<path d="M206.918 186.614H133.776C133.183 186.614 132.7 187.239 132.7 188.007C132.7 188.775 133.183 189.401 133.776 189.401H206.918C207.512 189.401 207.994 188.775 207.994 188.007C207.994 187.239 207.512 186.614 206.918 186.614Z" fill="white"/>
<path d="M206.918 195.285H133.776C133.183 195.285 132.7 195.911 132.7 196.679C132.7 197.447 133.183 198.072 133.776 198.072H206.918C207.512 198.072 207.994 197.447 207.994 196.679C207.994 195.911 207.512 195.285 206.918 195.285Z" fill="white"/>
<path d="M18.7204 117.202C20.0074 115.262 22.2721 114.439 24.5053 114.239C27.019 114.014 29.4478 114.499 31.902 114.971C34.603 115.49 37.4616 115.976 40.1831 115.319C41.3871 115.041 42.5121 114.492 43.4733 113.714C44.4346 112.936 45.207 111.95 45.7324 110.83C46.7288 108.644 46.9435 106.181 46.3404 103.856C45.7026 101.383 44.1196 99.2065 42.2006 97.5628C38.2838 94.2079 32.9835 92.7002 27.8854 92.8422C22.8067 92.9735 17.898 94.7021 13.8549 97.7832C9.805 100.975 6.95513 105.448 5.77044 110.472C4.53164 115.454 4.93519 120.704 6.92084 125.437C8.03644 128.029 9.64989 130.366 10.8949 132.892C12.0541 135.245 12.9468 137.98 12.2255 140.604C11.5927 142.906 9.73456 144.952 7.4019 145.577C5.18015 146.172 2.98641 145.196 1.76903 143.274C0.602943 141.432 0.575043 139.02 2.32586 137.533C2.7673 137.152 3.28151 136.865 3.83724 136.689C4.39297 136.513 4.9786 136.453 5.55852 136.511C6.13844 136.569 6.70053 136.744 7.21061 137.026C7.72069 137.309 8.16811 137.692 8.52565 138.153C9.23594 139.077 9.55389 140.244 9.41052 141.401C9.32427 141.986 10.218 142.239 10.305 141.648C10.514 140.425 10.2823 139.166 9.65128 138.097C9.02027 137.029 8.0309 136.219 6.85946 135.813C5.68802 135.406 4.41059 135.43 3.25478 135.879C2.09897 136.328 1.13986 137.173 0.548317 138.264C-0.507517 140.252 0.0621652 142.651 1.40245 144.35C2.09397 145.255 3.03124 145.942 4.10215 146.327C5.17305 146.713 6.33222 146.782 7.44098 146.525C9.88067 145.961 11.8765 144.018 12.815 141.736C13.8599 139.196 13.3812 136.361 12.3626 133.895C11.2615 131.23 9.62637 128.84 8.3333 126.272C7.16247 123.951 6.41742 121.439 6.13364 118.854C5.56568 113.664 6.74185 108.432 9.47607 103.987C12.263 99.6101 16.5167 96.3723 21.4732 94.8548C26.3605 93.3183 31.7507 93.3654 36.5359 95.2537C41.2495 97.1138 45.8011 101.167 45.7464 106.612C45.7231 108.937 44.8611 111.309 43.0824 112.86C40.9568 114.714 37.9972 114.872 35.3252 114.583C32.6362 114.292 30.0249 113.505 27.3243 113.305C24.9754 113.13 22.4412 113.312 20.3439 114.481C19.3672 115.026 18.5357 115.799 17.9194 116.733C17.5881 117.233 18.3912 117.698 18.7204 117.202Z" fill="#082777"/>
<path d="M13.953 194.885C13.8435 194.885 13.7342 194.876 13.6261 194.86L9.11423 194.172C8.54699 194.085 8.03743 193.776 7.69733 193.313C7.35723 192.85 7.21436 192.271 7.30007 191.703L13.0238 154.04C13.1108 153.472 13.4192 152.962 13.8815 152.621C14.3437 152.281 14.9219 152.138 15.4894 152.223L20.0012 152.911C20.5685 152.998 21.078 153.307 21.4181 153.77C21.7583 154.233 21.9011 154.812 21.8154 155.38L16.0916 193.043C16.0131 193.555 15.7544 194.022 15.3622 194.36C14.97 194.697 14.4702 194.884 13.953 194.885Z" fill="#4B93E7"/>
<path d="M19.3447 169.217C19.1904 169.217 19.0365 169.201 18.8857 169.168L10.4735 167.473C10.1954 167.413 9.93179 167.299 9.69772 167.137C9.46364 166.975 9.2637 166.769 9.10934 166.53C8.95497 166.29 8.8492 166.023 8.79807 165.743C8.74695 165.462 8.75147 165.175 8.81138 164.896L12.4724 152.687C12.8536 151.417 13.6866 150.332 14.8135 149.637C15.9404 148.941 17.2828 148.684 18.5865 148.914C19.9508 149.154 21.1707 149.91 21.9943 151.026C22.8179 152.141 23.1821 153.531 23.0118 154.908L21.4598 167.492C21.3578 167.978 21.0921 168.415 20.7071 168.729C20.3221 169.043 19.8412 169.216 19.3447 169.217Z" fill="#082777"/>
<path d="M59.3253 227.183H10.7783C10.6963 227.183 10.6177 227.151 10.5597 227.092C10.5017 227.034 10.4691 226.956 10.4691 226.873C10.4691 226.791 10.5017 226.713 10.5597 226.654C10.6177 226.596 10.6963 226.564 10.7783 226.564H59.3253C59.4073 226.564 59.4859 226.596 59.5439 226.654C59.6019 226.713 59.6345 226.791 59.6345 226.873C59.6345 226.956 59.6019 227.034 59.5439 227.092C59.4859 227.151 59.4073 227.183 59.3253 227.183Z" fill="#4E4E4E"/>
<path d="M26.1362 129.34C28.3701 133.026 34.4462 138.186 40.8797 129.34" stroke="#082777"/>
</g>
<path d="M105.037 32.9183C97.5854 25.1123 87.1536 11.1869 105.037 17.934V32.9183Z" stroke="#4B93E7" stroke-width="12.3264"/>
<path d="M105.037 32.9183C112.488 25.1123 122.92 11.1869 105.037 17.934V32.9183Z" stroke="#4B93E7" stroke-width="12.3264"/>
<path d="M105.037 32.9183C97.5854 25.1123 87.1536 11.1869 105.037 17.934V32.9183Z" fill="#082777"/>
<path d="M105.037 32.9184C112.488 25.1123 122.92 11.1869 105.037 17.934V32.9184Z" fill="#082777"/>
<ellipse cx="105.218" cy="6.07918" rx="6.9477" ry="6.07924" fill="#4B93E7"/>
<defs>
<clipPath id="clip0_1_202">
<rect width="256" height="206.408" fill="white" transform="translate(0.00012207 20.7747)"/>
</clipPath>
</defs>
</svg>
