<svg width="16" height="16" viewBox="0 0 16 16" fill="none" xmlns="http://www.w3.org/2000/svg">
<path d="M12.4773 0.0411377L15.6567 3.35542V15.9589H3.77954V16H15.6973V3.39714L12.4773 0.0411377Z" fill="#909090"/>
<path d="M12.4378 0H3.73895V15.9589H15.6567V3.356L12.4378 0Z" fill="#F4F4F4"/>
<path d="M3.65143 0.857178H0V4.75832H11.4857V0.857178H3.65143Z" fill="#7A7B7C"/>
<path d="M11.5469 4.69209H0.0742798V0.788086H11.5469V4.69209Z" fill="#DD2025"/>
<path d="M3.87827 1.448H3.86112H3.74284H3.13141V4.19086H3.71884V3.26571L3.84855 3.27314C3.97459 3.27097 4.09945 3.24839 4.21827 3.20628C4.32244 3.17045 4.41827 3.11389 4.49998 3.04C4.58312 2.96961 4.64867 2.88077 4.69141 2.78057C4.74872 2.614 4.76919 2.43697 4.75141 2.26171C4.74784 2.13652 4.72589 2.01253 4.68627 1.89371C4.65019 1.80794 4.59666 1.73063 4.52907 1.66668C4.46149 1.60273 4.38133 1.55356 4.29369 1.52228C4.21793 1.49485 4.13965 1.47495 4.05998 1.46286C3.99965 1.45355 3.93873 1.44858 3.87769 1.448M3.76969 2.75886H3.71884V1.91314H3.82912C3.8778 1.90963 3.92664 1.9171 3.97204 1.93501C4.01744 1.95291 4.05823 1.98078 4.09141 2.01657C4.16016 2.10858 4.19689 2.22057 4.19598 2.33543C4.19598 2.476 4.19598 2.60343 4.06912 2.69314C3.97773 2.74341 3.87371 2.76661 3.76969 2.75886Z" fill="#464648"/>
<path d="M5.86744 1.44068C5.80401 1.44068 5.7423 1.44525 5.69887 1.44696L5.56287 1.45039H5.11716V4.19325H5.64173C5.8422 4.19874 6.0418 4.16477 6.22916 4.09325C6.37996 4.03343 6.5135 3.93701 6.61773 3.81268C6.71908 3.68722 6.79182 3.54116 6.83087 3.38468C6.87576 3.20746 6.89766 3.0252 6.89601 2.84239C6.9071 2.62648 6.89039 2.41004 6.8463 2.19839C6.80446 2.0426 6.72611 1.89902 6.61773 1.77953C6.5327 1.68306 6.42861 1.60523 6.31201 1.55096C6.21189 1.50463 6.10656 1.47048 5.9983 1.44925C5.95525 1.44214 5.91165 1.43889 5.86801 1.43953M5.76401 3.68925H5.70687V1.93839H5.7143C5.8321 1.92484 5.9513 1.94609 6.05716 1.99953C6.13468 2.06144 6.19785 2.13942 6.2423 2.22811C6.29027 2.32144 6.31793 2.42388 6.32344 2.52868C6.32859 2.65439 6.32344 2.75725 6.32344 2.84239C6.32577 2.94047 6.31946 3.03856 6.30459 3.13553C6.28697 3.23509 6.25441 3.33142 6.20801 3.42125C6.15549 3.50477 6.08454 3.57514 6.00059 3.62696C5.93008 3.67256 5.8466 3.69383 5.76287 3.68753" fill="#464648"/>
<path d="M8.66555 1.4502H7.27698V4.19305H7.86441V3.10505H8.60726V2.59534H7.86441V1.95991H8.66441V1.4502" fill="#464648"/>
<path d="M11.1521 10.4315C11.1521 10.4315 12.9738 10.1012 12.9738 10.7235C12.9738 11.3458 11.8452 11.0927 11.1521 10.4315ZM9.80524 10.4789C9.51581 10.5429 9.23374 10.6365 8.96353 10.7584L9.1921 10.2441C9.42067 9.72981 9.65781 9.02866 9.65781 9.02866C9.93056 9.48771 10.2479 9.91875 10.6052 10.3155C10.3358 10.3557 10.0687 10.4106 9.80524 10.4801V10.4789ZM9.0841 6.76466C9.0841 6.22238 9.25953 6.07438 9.3961 6.07438C9.53267 6.07438 9.68638 6.14009 9.69153 6.61095C9.64703 7.08441 9.5479 7.55114 9.3961 8.00181C9.18817 7.62343 9.08056 7.19812 9.08353 6.76638L9.0841 6.76466ZM6.42753 12.7738C5.86867 12.4395 7.59953 11.4104 7.91324 11.3772C7.91153 11.3778 7.01267 13.1235 6.42753 12.7738ZM13.5058 10.7972C13.5001 10.7401 13.4487 10.1075 12.323 10.1344C11.8537 10.1268 11.3848 10.1599 10.9212 10.2332C10.4722 9.78089 10.0856 9.27068 9.77153 8.71609C9.9694 8.14434 10.0891 7.54847 10.1275 6.94466C10.111 6.25895 9.94696 5.86581 9.42124 5.87152C8.89553 5.87724 8.81896 6.33724 8.8881 7.02181C8.95583 7.48183 9.08358 7.931 9.2681 8.35781C9.2681 8.35781 9.02524 9.11381 8.7041 9.86581C8.38296 10.6178 8.16353 11.0121 8.16353 11.0121C7.60509 11.1939 7.07938 11.464 6.60638 11.8121C6.13553 12.2504 5.9441 12.5869 6.1921 12.9235C6.40581 13.2138 7.15381 13.2795 7.82238 12.4035C8.17762 11.9511 8.50215 11.4753 8.79381 10.9795C8.79381 10.9795 9.81324 10.7001 10.1304 10.6235C10.4475 10.5469 10.831 10.4864 10.831 10.4864C10.831 10.4864 11.7618 11.4229 12.6595 11.3898C13.5572 11.3567 13.5138 10.8532 13.5081 10.7984" fill="#DD2025"/>
<path d="M12.3937 0.0439453V3.39995H15.6126L12.3937 0.0439453Z" fill="#909090"/>
<path d="M12.4378 0V3.356H15.6567L12.4378 0Z" fill="#F4F4F4"/>
<path d="M3.83441 1.40405H3.81727H3.69898H3.08755V4.14691H3.67727V3.22234L3.80756 3.22977C3.9336 3.2276 4.05845 3.20502 4.17727 3.16291C4.28144 3.12707 4.37727 3.0705 4.45898 2.99662C4.5415 2.92605 4.60645 2.83723 4.6487 2.7372C4.70601 2.57062 4.72648 2.39359 4.7087 2.21834C4.70513 2.09314 4.68318 1.96915 4.64355 1.85034C4.60748 1.76457 4.55395 1.68725 4.48636 1.62331C4.41877 1.55936 4.33861 1.51018 4.25098 1.47891C4.17487 1.45121 4.0962 1.43112 4.01613 1.41891C3.9558 1.4096 3.89488 1.40464 3.83384 1.40405M3.72584 2.71491H3.67498V1.8692H3.78584C3.83452 1.86569 3.88336 1.87316 3.92875 1.89106C3.97415 1.90896 4.01495 1.93684 4.04813 1.97262C4.11688 2.06463 4.15361 2.17663 4.1527 2.29148C4.1527 2.43205 4.1527 2.55948 4.02584 2.6492C3.93445 2.69946 3.83042 2.72209 3.72641 2.71434" fill="white"/>
<path d="M5.82352 1.39673C5.76009 1.39673 5.69838 1.4013 5.65495 1.40302L5.52067 1.40645H5.07495V4.1493H5.59952C5.79999 4.1548 5.99959 4.12082 6.18695 4.0493C6.33776 3.98949 6.4713 3.89306 6.57552 3.76873C6.67687 3.64328 6.74961 3.49721 6.78867 3.34073C6.83356 3.16351 6.85545 2.98125 6.85381 2.79845C6.86489 2.58254 6.84818 2.3661 6.80409 2.15445C6.76226 1.99865 6.6839 1.85507 6.57552 1.73559C6.49049 1.63911 6.3864 1.56129 6.26981 1.50702C6.16968 1.46068 6.06436 1.42654 5.95609 1.4053C5.91304 1.39819 5.86944 1.39494 5.82581 1.39559M5.72181 3.6453H5.66467V1.89445H5.67209C5.7899 1.88089 5.90909 1.90215 6.01495 1.95559C6.09247 2.01749 6.15564 2.09547 6.20009 2.18416C6.24807 2.27749 6.27572 2.37993 6.28124 2.48473C6.28638 2.61045 6.28124 2.7133 6.28124 2.79845C6.28356 2.89652 6.27725 2.99462 6.26238 3.09159C6.24477 3.19115 6.21221 3.28747 6.16581 3.3773C6.11329 3.46082 6.04233 3.53119 5.95838 3.58302C5.88788 3.62862 5.80439 3.64989 5.72067 3.64359" fill="white"/>
<path d="M8.6217 1.40625H7.23312V4.14911H7.82055V3.06111H8.56341V2.55139H7.82055V1.91596H8.62055V1.40625" fill="white"/>
</svg>
