<svg width="37" height="32" viewBox="0 0 37 32" fill="none" xmlns="http://www.w3.org/2000/svg">
<g filter="url(#filter0_ii_1_1666)">
<path d="M19.5771 3.42857H30.8571C33.7606 3.42857 36.1583 5.59398 36.5233 8.39791L36.5593 8.76714L36.5714 9.14286V26.2857C36.5714 29.3154 34.2136 31.7944 31.2329 31.9878L30.8571 32H5.71429C2.68461 32 0.205626 29.6422 0.0121547 26.6614L0 26.2857V10.2857H11.5901L11.9402 10.2678C12.6349 10.1965 13.2916 9.91459 13.8218 9.46005L14.0759 9.21857L19.5771 3.42857ZM11.8095 0C12.4277 0 13.032 0.16709 13.5597 0.480371L13.8667 0.685714L16.88 2.94629L12.4187 7.64429L12.2798 7.76849C12.1319 7.8804 11.9589 7.95467 11.7759 7.98481L11.5901 8H0V5.71429C0 2.68461 2.3578 0.205626 5.33857 0.0121547L5.71429 0H11.8095Z" fill="#CFD8DC"/>
<path d="M19.5771 3.42857H30.8571C33.7606 3.42857 36.1583 5.59398 36.5233 8.39791L36.5593 8.76714L36.5714 9.14286V26.2857C36.5714 29.3154 34.2136 31.7944 31.2329 31.9878L30.8571 32H5.71429C2.68461 32 0.205626 29.6422 0.0121547 26.6614L0 26.2857V10.2857H11.5901L11.9402 10.2678C12.6349 10.1965 13.2916 9.91459 13.8218 9.46005L14.0759 9.21857L19.5771 3.42857ZM11.8095 0C12.4277 0 13.032 0.16709 13.5597 0.480371L13.8667 0.685714L16.88 2.94629L12.4187 7.64429L12.2798 7.76849C12.1319 7.8804 11.9589 7.95467 11.7759 7.98481L11.5901 8H0V5.71429C0 2.68461 2.3578 0.205626 5.33857 0.0121547L5.71429 0H11.8095Z" fill="#F0F7FF"/>
</g>
<defs>
<filter id="filter0_ii_1_1666" x="-4" y="-4" width="44.5715" height="40" filterUnits="userSpaceOnUse" color-interpolation-filters="sRGB">
<feFlood flood-opacity="0" result="BackgroundImageFix"/>
<feBlend mode="normal" in="SourceGraphic" in2="BackgroundImageFix" result="shape"/>
<feColorMatrix in="SourceAlpha" type="matrix" values="0 0 0 0 0 0 0 0 0 0 0 0 0 0 0 0 0 0 127 0" result="hardAlpha"/>
<feOffset dx="4" dy="4"/>
<feGaussianBlur stdDeviation="6"/>
<feComposite in2="hardAlpha" operator="arithmetic" k2="-1" k3="1"/>
<feColorMatrix type="matrix" values="0 0 0 0 0.733333 0 0 0 0 0.764706 0 0 0 0 0.807843 0 0 0 0.6 0"/>
<feBlend mode="normal" in2="shape" result="effect1_innerShadow_1_1666"/>
<feColorMatrix in="SourceAlpha" type="matrix" values="0 0 0 0 0 0 0 0 0 0 0 0 0 0 0 0 0 0 127 0" result="hardAlpha"/>
<feOffset dx="-4" dy="-4"/>
<feGaussianBlur stdDeviation="6"/>
<feComposite in2="hardAlpha" operator="arithmetic" k2="-1" k3="1"/>
<feColorMatrix type="matrix" values="0 0 0 0 0.992157 0 0 0 0 1 0 0 0 0 1 0 0 0 0.8 0"/>
<feBlend mode="normal" in2="effect1_innerShadow_1_1666" result="effect2_innerShadow_1_1666"/>
</filter>
</defs>
</svg>
