<svg width="24" height="24" viewBox="0 0 24 24" fill="none" xmlns="http://www.w3.org/2000/svg">
<path d="M9.26316 0C14.3791 0 18.5263 4.14726 18.5263 9.26316C18.5263 11.3656 17.8259 13.3044 16.6457 14.8591L23.63 21.8437C24.1233 22.3369 24.1233 23.1367 23.63 23.63C23.1816 24.0785 22.4798 24.1192 21.9853 23.7523L21.8437 23.63L14.8591 16.6457C13.3044 17.8259 11.3656 18.5263 9.26316 18.5263C4.14726 18.5263 0 14.3791 0 9.26316C0 4.14726 4.14726 0 9.26316 0ZM9.26316 2.52632C5.5425 2.52632 2.52632 5.5425 2.52632 9.26316C2.52632 12.9838 5.5425 16 9.26316 16C12.9838 16 16 12.9838 16 9.26316C16 5.5425 12.9838 2.52632 9.26316 2.52632Z" fill="#BBC5DC"/>
</svg>
