<svg width="18" height="16" viewBox="0 0 18 16" fill="none" xmlns="http://www.w3.org/2000/svg">
<path d="M5.07541 15.9938C6.55382 16.0433 8.02715 15.7959 9.40832 15.2662C10.7895 14.7366 12.0505 13.9355 13.1168 12.9102C14.1831 11.8849 15.033 10.6563 15.6164 9.29698C16.1997 7.93763 16.5047 6.47513 16.5132 4.99591C17.1907 4.15749 17.6938 3.19209 17.9929 2.15646C18.0153 2.07463 18.0135 1.9881 17.9877 1.90728C17.962 1.82646 17.9135 1.75479 17.848 1.70091C17.7825 1.64703 17.7028 1.61323 17.6186 1.60359C17.5343 1.59395 17.449 1.60887 17.3731 1.64656C17.0186 1.81718 16.6196 1.87229 16.2321 1.80413C15.8447 1.73597 15.4884 1.54798 15.2135 1.26663C14.8625 0.88228 14.4379 0.572291 13.965 0.35503C13.492 0.137768 12.9802 0.0176537 12.4599 0.00180381C11.9397 -0.0140461 11.4216 0.074691 10.9362 0.262757C10.4509 0.450823 10.0083 0.734391 9.63454 1.09666C9.12283 1.59222 8.74803 2.21174 8.54655 2.89499C8.34508 3.57825 8.32379 4.302 8.48475 4.99591C5.1354 5.19588 2.83584 3.60618 0.996189 1.4266C0.940922 1.36401 0.868627 1.31887 0.788131 1.29669C0.707636 1.27451 0.622423 1.27625 0.5429 1.3017C0.463377 1.32715 0.392985 1.3752 0.34032 1.43999C0.287655 1.50478 0.254996 1.58351 0.246332 1.66655C-0.104131 3.6106 0.14868 5.61534 0.970812 7.41152C1.79294 9.2077 3.14502 10.7093 4.84545 11.7146C3.70531 13.0222 2.10419 13.8389 0.376307 13.9942C0.283737 14.0095 0.198283 14.0535 0.131905 14.1198C0.0655277 14.1861 0.0215483 14.2715 0.00612198 14.3641C-0.0093043 14.4566 0.0045948 14.5517 0.045874 14.636C0.0871532 14.7202 0.153747 14.7895 0.236334 14.834C1.73957 15.5853 3.39496 15.982 5.07541 15.9938Z" fill="#4B93E7"/>
</svg>
